<?xml version="1.0" standalone="no"?>
<!DOCTYPE svg PUBLIC "-//W3C//DTD SVG 20010904//EN"
 "http://www.w3.org/TR/2001/REC-SVG-20010904/DTD/svg10.dtd">
<svg version="1.0" xmlns="http://www.w3.org/2000/svg"
 width="292.000000pt" height="323.000000pt" viewBox="0 0 292.000000 323.000000"
 preserveAspectRatio="xMidYMid meet">

<g transform="translate(0.000000,323.000000) scale(0.100000,-0.100000)"
fill="#000000" stroke="none">
<path d="M1415 3114 c-71 -77 -155 -292 -155 -397 0 -24 8 -49 20 -65 l21 -25
-6 59 -5 59 16 -75 c8 -41 20 -80 26 -87 6 -8 9 -16 6 -18 -3 -3 -18 14 -33
37 -45 67 -112 133 -155 153 -40 18 -40 18 -66 -6 -25 -23 -26 -23 -39 -5 -9
11 -20 16 -31 12 -9 -3 -23 -1 -31 6 -11 9 -16 9 -23 -1 -6 -11 -15 -11 -40
-2 -43 14 -51 14 -44 -2 9 -25 -21 -35 -118 -39 -103 -3 -119 -10 -123 -52 -2
-13 -6 -38 -10 -54 -7 -32 7 -47 73 -83 20 -11 32 -28 37 -49 4 -18 17 -42 28
-53 13 -13 22 -35 22 -58 1 -47 25 -82 76 -115 23 -14 44 -34 46 -45 4 -13 14
-19 37 -19 17 0 40 -7 50 -15 31 -24 103 -19 136 9 18 15 47 25 84 30 109 12
150 53 44 43 -63 -6 -63 -6 -23 7 l40 13 -30 8 c-16 4 -35 12 -42 17 -7 5 -63
16 -125 23 -62 7 -93 13 -68 14 44 1 158 -13 196 -24 10 -3 7 1 -9 8 -15 7
-24 17 -20 21 4 4 1 5 -7 2 -8 -3 -55 3 -105 13 -49 11 -77 20 -61 20 15 1 55
-6 88 -15 33 -8 62 -13 65 -11 5 5 -122 45 -181 57 -28 5 -33 8 -16 9 14 1 59
-8 99 -19 40 -12 75 -19 78 -16 2 2 -28 16 -66 31 -67 27 -97 44 -48 29 60
-18 156 -68 150 -77 -3 -6 -1 -7 5 -3 6 4 26 0 44 -9 30 -15 31 -15 13 0 -11
9 -19 20 -18 25 3 10 -124 115 -218 180 -40 27 -69 50 -64 50 16 0 172 -110
233 -165 34 -31 59 -62 56 -67 -4 -7 -2 -8 4 -4 7 4 12 9 12 11 0 8 -172 200
-213 239 l-42 38 41 -31 c23 -17 75 -68 115 -114 110 -125 116 -129 79 -62
-50 90 -99 167 -129 200 l-26 30 34 -30 c18 -16 67 -86 108 -155 41 -69 72
-116 68 -105 -4 11 -22 60 -41 109 -18 50 -32 92 -30 94 2 2 25 -51 51 -117
26 -67 50 -121 52 -121 3 0 2 8 -2 18 -13 35 -63 227 -60 230 2 2 13 -29 25
-69 36 -123 40 -131 36 -64 -4 58 -4 57 13 -25 15 -74 18 -80 23 -50 5 33 5
32 7 -10 1 -33 4 -41 11 -30 8 12 10 10 10 -8 0 -42 25 -18 28 27 2 31 -5 60
-27 108 -17 36 -29 69 -26 73 3 5 -4 46 -15 92 -11 45 -19 101 -18 123 1 33 2
35 5 10 10 -73 54 -268 63 -283 10 -15 10 -15 6 3 -16 67 -47 288 -43 307 3
18 5 16 6 -8 0 -18 8 -69 17 -115 9 -46 22 -122 29 -169 18 -125 19 -30 0 135
-8 72 -14 168 -13 215 1 59 3 68 5 30 2 -30 10 -124 19 -208 10 -97 13 -190
10 -252 -6 -95 -5 -99 14 -97 15 1 20 9 21 32 1 30 1 30 11 -7 12 -44 37 -60
31 -20 -4 21 -2 24 6 12 8 -12 11 -3 12 35 l2 50 6 -45 7 -45 11 55 c19 90 23
98 17 40 -3 -30 -3 -52 -1 -50 3 3 15 43 28 90 12 46 24 80 26 75 1 -6 -8 -50
-21 -100 -13 -49 -23 -91 -21 -93 1 -1 23 50 49 115 25 65 51 125 57 133 9 12
9 11 4 -5 -9 -25 -70 -184 -80 -207 -5 -12 -2 -16 12 -14 10 2 24 -4 31 -13 8
-9 11 -11 8 -5 -10 21 174 173 266 220 67 34 74 29 9 -6 -79 -44 -277 -197
-267 -207 2 -2 35 15 73 37 39 22 74 40 79 40 5 0 -28 -21 -73 -48 -44 -26
-92 -55 -105 -64 l-23 -18 25 9 c14 5 38 12 53 16 17 3 25 10 21 17 -4 6 -3 8
3 5 6 -4 54 5 108 18 54 14 107 25 119 24 11 -1 -7 -7 -41 -15 -86 -19 -175
-45 -170 -50 2 -3 33 2 68 11 35 8 82 14 104 13 32 -1 34 -2 10 -5 -16 -2 -72
-13 -122 -24 -51 -11 -98 -17 -104 -13 -8 4 -9 3 -5 -4 4 -7 0 -12 -10 -12
-10 0 -14 -3 -10 -7 4 -5 51 -11 104 -14 l97 -5 -110 -3 c-60 -2 -121 -6 -135
-10 -23 -7 -21 -9 20 -20 69 -18 129 -41 136 -53 3 -5 -7 -3 -22 5 -16 8 -48
20 -71 26 -42 12 -143 22 -143 15 0 -10 56 -38 88 -45 l37 -8 -35 3 c-19 2
-43 6 -52 11 -15 6 -18 2 -18 -19 0 -23 2 -25 24 -15 30 14 66 -3 66 -31 0
-14 7 -20 21 -20 19 0 20 2 8 17 -13 15 -12 15 6 5 20 -11 107 -99 220 -223
33 -36 1 -6 -70 68 -72 73 -134 133 -138 133 -12 0 163 -199 248 -284 39 -39
57 -60 40 -49 -32 22 -151 144 -223 227 -23 27 -42 45 -42 39 0 -9 100 -143
148 -199 15 -16 3 -6 -27 25 -41 42 -52 49 -46 30 4 -13 19 -37 34 -54 l26
-30 -26 23 c-26 23 -45 30 -34 12 3 -6 -4 -10 -17 -10 -23 -1 -23 -1 -3 -16
39 -31 135 -74 207 -94 76 -21 183 -27 193 -10 3 5 -6 19 -20 32 -39 34 -55
64 -66 125 -6 32 -22 78 -35 104 -22 45 -128 169 -143 169 -4 0 -15 -6 -24
-12 -15 -12 -11 -17 36 -54 30 -23 64 -57 77 -75 l22 -34 -33 37 c-44 49 -120
108 -139 108 -8 0 24 -39 70 -87 l85 -87 -94 87 c-51 48 -98 87 -104 87 -13 0
0 -15 117 -145 89 -99 84 -95 -46 38 -79 81 -151 147 -159 147 -8 0 11 -24 42
-53 70 -65 293 -299 259 -272 -14 11 -97 93 -185 183 -107 109 -154 162 -141
162 11 0 34 -11 52 -25 38 -29 99 -34 130 -10 10 8 33 15 51 15 22 0 33 6 38
20 3 10 21 28 40 40 58 36 85 76 85 126 0 32 4 44 15 44 8 0 19 16 25 38 11
41 42 76 78 87 32 9 43 37 35 90 -5 40 -12 51 -47 77 -37 27 -45 29 -91 22
-90 -13 -100 -11 -99 14 1 24 -11 27 -52 12 -21 -8 -29 -7 -38 6 -11 14 -13
14 -25 0 -7 -8 -19 -12 -26 -10 -8 3 -24 -1 -37 -10 -28 -20 -38 -20 -38 -1 0
26 -28 28 -74 7 -49 -24 -95 -73 -168 -182 -28 -41 -48 -68 -46 -60 3 8 -1 67
-8 130 -7 63 -12 131 -12 150 0 19 8 -30 17 -110 l16 -145 24 39 c17 27 24 53
24 85 l-1 46 7 -40 6 -40 19 28 c15 23 17 38 12 95 -9 91 -30 161 -61 203 -42
57 -65 112 -65 156 0 23 -5 45 -10 48 -6 4 -26 -10 -45 -31z m52 -281 c-3 -10
-5 -2 -5 17 0 19 2 27 5 18 2 -10 2 -26 0 -35z m3 -268 c2 -44 6 -82 10 -85 4
-3 2 -20 -4 -38 -10 -28 -11 -20 -14 70 -2 57 -7 144 -12 193 -5 50 -9 108 -9
130 2 57 27 -173 29 -270z m-53 203 c-2 -13 -4 -5 -4 17 -1 22 1 32 4 23 2
-10 2 -28 0 -40z m100 -35 c-2 -16 -4 -3 -4 27 0 30 2 43 4 28 2 -16 2 -40 0
-55z m40 15 c-3 -8 -6 -5 -6 6 -1 11 2 17 5 13 3 -3 4 -12 1 -19z m-118 -182
c2 -98 -6 -59 -12 59 -3 75 -2 92 3 55 4 -30 8 -82 9 -114z m88 62 c-2 -13 -4
-3 -4 22 0 25 2 35 4 23 2 -13 2 -33 0 -45z m230 0 c-40 -50 -122 -187 -115
-193 2 -3 39 33 81 79 42 46 96 99 119 117 34 26 31 21 -17 -27 -34 -32 -91
-93 -128 -134 -37 -41 -64 -66 -61 -55 6 20 5 20 -10 1 -29 -36 -16 -4 33 83
44 77 114 171 127 171 3 0 -10 -19 -29 -42z m113 -148 c-8 -5 -19 -10 -25 -10
-5 0 -3 5 5 10 8 5 20 10 25 10 6 0 3 -5 -5 -10z m-772 -34 c37 -19 76 -41 87
-50 11 -9 -20 5 -70 31 -96 49 -102 53 -91 53 3 0 37 -15 74 -34z m-145 -123
c-7 -2 -19 -2 -25 0 -7 3 -2 5 12 5 14 0 19 -2 13 -5z m972 2 c-5 -2 -64 -5
-130 -7 -66 -3 -106 -1 -90 3 29 7 240 11 220 4z m-812 -22 c-7 -2 -19 -2 -25
0 -7 3 -2 5 12 5 14 0 19 -2 13 -5z m60 -30 c-7 -2 -21 -2 -30 0 -10 3 -4 5
12 5 17 0 24 -2 18 -5z m7 -30 c-8 -3 -32 -14 -52 -25 -21 -10 -38 -16 -38
-13 0 8 74 44 90 44 13 -1 13 -1 0 -6z"/>
<path d="M1373 2308 c-22 -24 -46 -68 -57 -106 -7 -21 -6 -21 18 -11 20 9 29
9 41 -1 12 -10 16 -8 23 11 5 13 12 48 16 77 8 59 -5 69 -41 30z"/>
<path d="M1441 2293 c2 -73 13 -98 38 -96 12 2 31 -2 42 -8 18 -9 19 -8 13 18
-12 50 -25 78 -46 101 -32 33 -48 28 -47 -15z"/>
<path d="M1297 2213 c-4 -3 -22 -7 -40 -8 -27 -1 -53 -18 -127 -80 -119 -103
-168 -142 -205 -167 l-30 -20 25 22 c14 12 82 70 152 128 69 59 125 109 123
110 -2 2 -23 -9 -47 -25 -49 -33 -111 -37 -153 -9 -19 13 -30 14 -45 6 -35
-19 -130 -143 -141 -185 -24 -90 -42 -126 -76 -154 -25 -21 -34 -34 -29 -47 6
-15 17 -16 85 -11 110 9 321 78 284 93 -7 3 -9 12 -6 21 4 11 -6 7 -33 -10
-41 -28 -114 -61 -114 -52 0 2 26 18 59 34 69 35 121 77 121 97 0 8 16 24 35
35 19 12 32 25 29 30 -7 12 -17 6 -84 -51 -60 -51 -159 -120 -173 -120 -5 0
16 17 46 38 101 67 186 145 186 170 1 23 42 72 61 72 5 0 10 6 10 14 0 8 12
24 27 36 23 18 28 19 35 5 13 -21 25 -19 31 7 7 24 4 32 -6 21z m-212 -81
c-32 -27 -95 -73 -95 -68 0 6 90 76 98 76 3 0 2 -4 -3 -8z m-95 -16 c0 -2 -8
-10 -17 -17 -16 -13 -17 -12 -4 4 13 16 21 21 21 13z m-10 -60 c0 -2 -8 -10
-17 -17 -16 -13 -17 -12 -4 4 13 16 21 21 21 13z m40 -57 c-47 -41 -156 -119
-165 -119 -5 0 23 22 61 49 38 27 83 61 99 75 17 14 32 25 35 25 3 0 -11 -14
-30 -30z m-15 -53 c-49 -42 -131 -92 -165 -101 -14 -3 3 9 37 28 34 19 83 50
110 70 61 46 70 47 18 3z"/>
<path d="M1408 2183 c-13 -12 -20 -13 -37 -3 -18 9 -26 7 -47 -9 -20 -16 -30
-18 -45 -10 -25 13 -59 2 -59 -19 0 -9 -14 -25 -30 -34 -42 -24 -47 -44 -19
-74 20 -21 21 -27 9 -34 -8 -5 -20 -10 -27 -10 -18 0 -73 -75 -73 -99 0 -26
25 -38 44 -22 11 9 16 9 22 0 4 -8 -4 -21 -21 -35 -23 -18 -26 -27 -21 -49 6
-24 11 -27 36 -21 28 5 29 4 27 -32 -2 -35 0 -37 28 -37 28 0 30 3 35 40 5 37
9 41 40 37 14 -3 13 -38 -2 -62 -15 -24 -6 -35 19 -22 13 7 28 6 52 -4 40 -17
54 -9 73 42 6 19 14 34 18 34 3 0 13 -19 22 -41 17 -39 19 -41 50 -34 18 3 48
7 66 6 30 0 33 3 27 22 -14 45 -11 62 13 65 17 3 22 -2 22 -18 0 -33 19 -60
41 -60 25 0 36 27 21 51 -18 28 -15 31 19 24 52 -12 66 30 24 67 -33 29 -32
41 5 33 23 -5 32 -3 37 11 3 9 1 24 -5 33 -14 19 -36 64 -34 71 2 14 -37 52
-47 46 -18 -11 -13 -26 8 -26 11 0 23 -5 26 -10 4 -7 -3 -8 -22 -4 -43 10 -50
21 -25 44 12 12 22 27 22 34 0 15 -27 40 -52 49 -10 4 -18 13 -18 21 0 24 -36
39 -60 24 -16 -10 -25 -9 -50 6 -22 13 -34 15 -44 7 -9 -7 -18 -6 -33 4 -17
12 -22 12 -35 -2z m-13 -53 c8 -12 55 -13 74 -1 17 11 55 -5 46 -19 -3 -5 4
-12 16 -15 11 -4 18 -9 16 -12 -3 -2 -19 3 -36 11 -45 24 -61 21 -61 -13 0
-16 -7 -34 -15 -41 -13 -11 -15 -8 -16 16 -1 21 -3 24 -6 9 -9 -35 -20 -37
-15 -3 4 33 3 32 -31 -17 -19 -28 -43 -57 -53 -65 -10 -8 -4 3 14 25 45 56 40
66 -10 20 l-43 -40 38 41 c20 22 34 43 31 47 -4 3 3 5 14 2 15 -3 20 1 19 16
-1 10 -6 18 -12 18 -32 -4 -38 3 -15 16 30 17 37 18 45 5z m-92 -27 c-7 -2
-19 -2 -25 0 -7 3 -2 5 12 5 14 0 19 -2 13 -5z m32 -12 c-6 -5 -21 -11 -35
-15 -21 -5 -20 -3 5 9 35 17 42 18 30 6z m196 -28 c13 -16 12 -17 -3 -4 -10 7
-18 15 -18 17 0 8 8 3 21 -13z m-201 3 c0 -2 -8 -10 -17 -17 -16 -13 -17 -12
-4 4 13 16 21 21 21 13z m118 -46 c-7 -10 -14 -17 -17 -15 -4 4 18 35 25 35 2
0 -1 -9 -8 -20z m78 -17 c15 -20 23 -33 16 -29 -13 8 -56 66 -49 66 3 0 17
-17 33 -37z m-6 -43 c6 -11 8 -20 6 -20 -3 0 -10 9 -16 20 -6 11 -8 20 -6 20
3 0 10 -9 16 -20z m-83 -52 c-3 -7 -5 -2 -5 12 0 14 2 19 5 13 2 -7 2 -19 0
-25z"/>
<path d="M453 1414 c-56 -20 -139 -96 -153 -139 -24 -74 13 -123 161 -213 129
-77 156 -116 113 -159 -19 -19 -31 -23 -52 -18 -45 11 -86 42 -112 84 -24 38
-28 40 -73 41 l-48 0 3 -87 3 -88 60 -12 c33 -7 96 -14 140 -15 70 -2 86 1
130 24 28 14 70 47 93 72 82 89 52 154 -118 256 -136 81 -173 138 -115 176 23
15 27 15 62 -3 23 -11 50 -37 68 -65 29 -45 32 -47 78 -47 l48 -1 -3 87 -3 88
-51 11 c-95 21 -186 24 -231 8z"/>
<path d="M2159 1413 c-134 -3 -136 -4 -148 -29 -15 -34 -16 -32 29 -44 l40
-11 0 -202 0 -202 -35 -28 c-23 -18 -35 -36 -35 -52 l0 -25 170 0 169 0 16 29
15 29 -70 12 -70 12 0 213 c0 235 -3 225 66 225 63 0 107 -79 89 -160 -8 -35
-48 -70 -81 -70 -25 0 -49 -33 -40 -56 12 -32 137 -6 208 45 20 14 49 44 63
66 51 77 20 182 -68 227 -47 24 -97 27 -318 21z"/>
<path d="M971 1384 c-14 -31 -16 -28 32 -47 l37 -16 0 -199 0 -200 -35 -26
c-23 -18 -35 -35 -35 -52 0 -24 0 -24 103 -24 101 0 104 1 115 25 16 35 17 33
-28 46 l-40 12 1 176 0 176 23 -50 c12 -27 53 -125 91 -217 l69 -168 41 0 40
0 85 210 c46 116 87 210 90 210 3 0 4 -71 3 -157 l-2 -158 -35 -30 c-22 -18
-36 -39 -36 -52 0 -23 1 -23 145 -23 l144 0 15 28 c14 27 14 27 -27 37 l-42
11 -3 201 -2 202 40 32 c26 21 40 40 40 56 l0 24 -127 -3 -127 -3 -76 -187
c-41 -103 -78 -188 -81 -188 -3 0 -41 86 -84 190 l-79 190 -121 0 c-122 0
-122 0 -134 -26z"/>
<path d="M386 625 c-9 -10 -15 -24 -12 -32 3 -8 6 -17 6 -19 0 -2 4 -4 9 -4 4
0 6 11 4 24 -3 15 1 25 11 29 15 6 112 -6 122 -15 2 -3 -10 -36 -28 -74 -33
-67 -35 -69 -67 -66 -22 3 -31 0 -27 -7 4 -6 18 -11 32 -11 22 0 24 -3 19 -22
-4 -13 -17 -41 -29 -63 -18 -34 -27 -40 -59 -43 -26 -2 -39 1 -43 12 -3 9 -11
16 -18 16 -17 -1 43 -50 60 -50 33 0 57 25 85 86 24 53 34 65 61 73 32 9 32 9
6 10 -35 1 -34 12 1 81 26 53 29 55 74 60 68 8 65 16 -6 16 -34 -1 -89 3 -123
8 -51 7 -63 6 -78 -9z"/>
<path d="M2470 505 c-7 -8 -8 -15 -2 -15 5 0 15 7 22 15 7 8 8 15 2 15 -5 0
-15 -7 -22 -15z"/>
<path d="M607 429 c-16 -21 -24 -39 -18 -39 7 0 7 -8 0 -27 -23 -60 17 -71 67
-18 l33 35 -6 -35 c-4 -26 -2 -35 8 -35 18 0 89 58 89 73 0 6 -15 -3 -33 -21
-29 -28 -57 -41 -57 -27 0 3 11 33 25 67 27 67 27 86 -1 41 -35 -55 -86 -113
-100 -113 -19 0 -18 20 6 76 27 62 22 72 -13 23z"/>
<path d="M862 430 c-18 -22 -28 -40 -23 -40 6 0 16 9 23 20 20 31 27 24 24
-25 -3 -59 -17 -73 -53 -55 -45 23 -50 23 -24 1 36 -32 80 -27 129 15 23 19
42 41 42 47 0 6 -17 -6 -38 -26 -21 -20 -40 -37 -43 -37 -2 0 -2 32 1 70 3 39
3 70 0 70 -3 0 -20 -18 -38 -40z"/>
<path d="M1082 450 c-34 -21 -72 -74 -72 -101 0 -9 7 -23 16 -30 14 -11 21
-10 47 4 27 16 31 16 39 3 14 -25 31 -19 71 22 53 54 46 65 -8 12 -38 -38 -45
-41 -51 -26 -4 11 3 39 19 72 15 30 27 57 27 59 0 13 -59 3 -88 -15z m43 -39
c-30 -59 -72 -96 -91 -80 -24 20 8 78 61 111 50 30 58 23 30 -31z"/>
<path d="M1322 450 c-34 -21 -72 -74 -72 -101 0 -9 7 -23 16 -30 14 -11 21
-10 48 4 23 13 18 7 -18 -24 -57 -50 -82 -99 -66 -129 17 -32 44 -9 83 72 19
40 51 89 71 107 20 19 36 40 36 45 0 6 -5 3 -11 -6 -5 -10 -19 -22 -29 -28
-19 -10 -18 -7 5 46 14 31 25 58 25 60 0 12 -60 1 -88 -16z m68 5 c0 -36 -91
-142 -111 -129 -14 8 -11 47 7 73 25 35 104 78 104 56z m-97 -221 c-31 -64
-53 -81 -53 -40 0 24 67 113 77 102 3 -2 -8 -30 -24 -62z"/>
<path d="M1523 449 c-40 -26 -76 -95 -62 -121 12 -23 37 -23 62 -1 18 17 19
17 28 0 6 -9 17 -17 26 -17 17 0 83 65 83 81 0 5 -18 -9 -39 -32 -37 -38 -61
-44 -61 -16 0 7 11 33 25 59 14 26 25 52 25 58 0 17 -53 11 -87 -11z m67 6 c0
-13 -50 -102 -62 -112 -26 -20 -49 -23 -55 -8 -9 26 18 75 56 101 33 22 61 31
61 19z"/>
<path d="M1740 430 c-17 -22 -27 -40 -21 -40 5 0 17 10 25 22 15 22 16 20 16
-30 0 -62 -13 -71 -62 -46 l-33 17 19 -22 c21 -23 64 -28 99 -10 29 15 77 60
77 72 0 5 -18 -7 -41 -28 -22 -20 -42 -35 -43 -33 -2 2 0 33 3 71 4 37 3 67 0
67 -4 0 -22 -18 -39 -40z"/>
<path d="M2035 438 c-27 -46 -85 -108 -101 -108 -18 0 -18 0 10 70 14 33 22
60 18 60 -4 0 -20 -16 -35 -35 -15 -19 -24 -35 -19 -35 5 0 9 -16 8 -36 -1
-49 14 -52 59 -13 l36 32 -3 -28 c-2 -15 2 -30 9 -32 13 -5 93 64 93 80 0 6
-18 -6 -40 -28 -22 -21 -43 -36 -46 -32 -4 3 4 34 16 67 25 68 23 85 -5 38z"/>
<path d="M2210 448 c-42 -29 -77 -94 -63 -117 14 -22 35 -24 58 -5 20 16 20
16 0 9 -36 -12 -39 -10 -43 13 -5 30 38 85 78 102 17 7 33 10 36 7 6 -6 -22
-65 -43 -89 -8 -9 -12 -22 -8 -28 4 -7 2 -16 -5 -20 -7 -5 -14 -20 -16 -34 -3
-32 -44 -108 -61 -114 -28 -8 -12 49 23 88 20 22 32 40 26 40 -5 0 -24 -16
-41 -35 -22 -26 -31 -46 -31 -71 0 -31 3 -35 23 -32 16 2 31 22 58 78 22 44
52 88 75 107 20 18 35 35 32 38 -3 3 -13 -4 -23 -15 -29 -32 -37 -23 -16 18
10 20 22 47 25 60 7 19 4 22 -22 22 -16 0 -44 -10 -62 -22z"/>
<path d="M2394 426 c-33 -33 -44 -51 -44 -75 0 -39 23 -50 61 -29 23 14 28 14
33 2 3 -8 12 -14 19 -14 19 0 64 37 79 63 7 15 -4 8 -33 -18 l-44 -40 -3 27
c-2 15 6 45 17 67 28 54 27 61 -10 61 -24 0 -42 -11 -75 -44z m86 20 c0 -7
-15 -36 -32 -62 -24 -36 -40 -50 -60 -52 -33 -4 -38 20 -11 58 34 50 103 87
103 56z"/>
</g>
</svg>
