<?xml version="1.0" encoding="UTF-8" standalone="no"?>
<!DOCTYPE svg PUBLIC "-//W3C//DTD SVG 1.1//EN" "http://www.w3.org/Graphics/SVG/1.1/DTD/svg11.dtd">
<svg xmlns="http://www.w3.org/2000/svg" version="1.1" viewBox="0.00 0.00 548.00 219.00">
<g stroke-width="2.00" fill="none" stroke-linecap="butt">
<path stroke="#e37a08" vector-effect="non-scaling-stroke" d="
  M 110.75 24.06
  Q 109.35 20.08 106.96 18.54"
/>
<path stroke="#e37a08" vector-effect="non-scaling-stroke" d="
  M 102.81 16.68
  L 102.75 15.74
  Q 102.72 15.20 102.22 15.40
  Q 101.74 15.60 101.43 16.19"
/>
<path stroke="#e3600b" vector-effect="non-scaling-stroke" d="
  M 373.12 41.75
  Q 372.57 41.72 372.40 42.22"
/>
<path stroke="#e3600b" vector-effect="non-scaling-stroke" d="
  M 366.53 43.00
  Q 366.41 42.83 366.28 42.66"
/>
<path stroke="#e3600b" vector-effect="non-scaling-stroke" d="
  M 366.75 47.69
  Q 366.72 47.29 367.18 47.44"
/>
<path stroke="#e3600b" vector-effect="non-scaling-stroke" d="
  M 375.23 45.29
  L 374.30 45.30"
/>
<path stroke="#e37a08" vector-effect="non-scaling-stroke" d="
  M 435.66 49.48
  Q 434.12 49.86 433.61 48.62
  Q 433.37 48.05 433.01 48.56
  Q 432.84 48.81 432.83 49.29"
/>
<path stroke="#e37a08" vector-effect="non-scaling-stroke" d="
  M 430.69 46.62
  Q 430.18 46.32 429.94 45.69
  Q 429.73 45.16 429.42 45.63
  Q 429.15 46.02 429.07 46.70"
/>
<path stroke="#e37a08" vector-effect="non-scaling-stroke" d="
  M 428.41 49.52
  Q 429.06 50.68 428.42 51.41
  Q 428.23 51.62 428.49 51.73
  L 429.27 52.07"
/>
<path stroke="#e3470c" vector-effect="non-scaling-stroke" d="
  M 433.41 76.03
  L 433.10 113.72"
/>
<path stroke="#e3470c" vector-effect="non-scaling-stroke" d="
  M 424.60 109.95
  Q 424.44 109.14 423.74 109.06"
/>
<path stroke="#e3470c" vector-effect="non-scaling-stroke" d="
  M 422.07 107.71
  Q 421.85 107.92 421.38 107.94"
/>
<path stroke="#e3470c" vector-effect="non-scaling-stroke" d="
  M 413.24 105.76
  Q 411.25 106.77 410.22 108.82
  Q 409.69 109.85 410.55 109.07
  L 413.38 106.50"
/>
<path stroke="#e3470c" vector-effect="non-scaling-stroke" d="
  M 407.96 112.41
  L 406.29 112.56"
/>
<path stroke="#e3470c" vector-effect="non-scaling-stroke" d="
  M 404.77 109.81
  L 398.14 110.50"
/>
<path stroke="#e3470c" vector-effect="non-scaling-stroke" d="
  M 394.39 111.83
  L 393.08 113.51
  Q 392.77 113.92 393.27 114.02
  Q 393.50 114.07 393.76 113.92
  Q 393.99 113.80 394.15 113.43
  Q 394.75 112.09 394.72 113.05"
/>
<path stroke="#e3470c" vector-effect="non-scaling-stroke" d="
  M 63.53 77.03
  L 63.19 87.15"
/>
<path stroke="#e3470c" vector-effect="non-scaling-stroke" d="
  M 44.78 113.81
  L 45.08 114.51"
/>
<path stroke="#e3470c" vector-effect="non-scaling-stroke" d="
  M 57.98 111.06
  L 58.23 138.00"
/>
<path stroke="#d74029" vector-effect="non-scaling-stroke" d="
  M 351.99 100.20
  Q 351.82 100.08 351.52 100.69"
/>
<path stroke="#e3470c" vector-effect="non-scaling-stroke" d="
  M 41.84 102.56
  Q 41.94 103.20 42.56 103.35"
/>
<path stroke="#e3470c" vector-effect="non-scaling-stroke" d="
  M 44.25 104.02
  Q 44.79 104.76 45.50 105.18"
/>
<path stroke="#e3470c" vector-effect="non-scaling-stroke" d="
  M 46.74 105.97
  Q 46.81 106.33 47.35 106.51"
/>
<path stroke="#e3470c" vector-effect="non-scaling-stroke" d="
  M 43.82 93.37
  Q 42.94 92.73 42.31 92.67"
/>
</g>
<path fill="#ffda00" d="
  M 399.28 6.63
  L 394.04 6.57
  A 0.47 0.47 0.0 0 1 393.57 6.10
  L 393.52 1.23
  A 0.47 0.47 0.0 0 1 393.99 0.75
  L 402.01 0.76
  A 0.47 0.47 0.0 0 1 402.42 1.46
  L 399.70 6.38
  A 0.47 0.47 0.0 0 1 399.28 6.63
  Z"
/>
<path fill="#ffda00" d="
  M 400.88 6.13
  Q 400.93 4.66 403.61 1.19
  Q 403.95 0.75 404.50 0.75
  L 409.45 0.76
  Q 410.03 0.76 410.44 1.17
  Q 416.45 7.29 410.26 13.27
  Q 409.89 13.63 409.38 13.62
  L 404.81 13.60
  Q 404.24 13.60 403.83 13.21
  Q 400.72 10.23 400.88 6.13
  Z"
/>
<path fill="#ffda00" d="
  M 422.00 6.60
  L 414.67 6.66
  A 0.33 0.33 0.0 0 1 414.38 6.48
  L 411.68 1.23
  A 0.33 0.33 0.0 0 1 411.97 0.75
  L 424.72 0.76
  A 0.33 0.33 0.0 0 1 425.02 1.24
  L 422.29 6.43
  A 0.33 0.33 0.0 0 1 422.00 6.60
  Z"
/>
<path fill="#ffda00" d="
  M 431.10 13.74
  C 429.92 13.76 427.83 13.74 426.55 13.38
  A 1.40 1.39 -6.4 0 1 425.71 12.71
  L 422.97 7.69
  Q 422.68 7.16 422.97 6.64
  L 425.83 1.25
  Q 426.09 0.76 426.65 0.76
  L 432.59 0.75
  A 0.92 0.92 0.0 0 1 433.40 1.23
  L 436.18 6.41
  Q 436.43 6.87 436.24 7.36
  C 435.13 10.20 433.79 13.70 431.10 13.74
  Z"
/>
<path fill="#ffda00" d="
  M 435.08 0.75
  L 445.91 0.76
  A 0.73 0.73 0.0 0 1 446.58 1.77
  L 444.71 6.23
  A 0.73 0.73 0.0 0 1 444.03 6.68
  L 437.52 6.66
  A 0.73 0.73 0.0 0 1 436.88 6.28
  L 434.44 1.83
  A 0.73 0.73 0.0 0 1 435.08 0.75
  Z"
/>
<path fill="#ffa506" d="
  M 503.83 13.34
  Q 502.53 14.63 500.82 14.74
  A 0.89 0.88 66.2 0 1 500.11 14.46
  L 496.15 10.20
  A 0.75 0.74 -41.6 0 0 495.12 10.15
  Q 490.66 13.99 485.26 15.53
  Q 482.07 16.43 480.00 17.55
  Q 474.87 20.32 469.40 22.39
  A 1.37 1.34 -86.0 0 0 468.69 23.02
  Q 467.65 25.01 465.67 25.54
  C 461.69 26.62 458.57 27.93 454.29 27.37
  Q 453.79 27.31 453.32 27.51
  L 451.50 28.29
  Q 451.00 28.51 451.00 27.96
  L 451.00 2.05
  Q 451.00 1.62 451.43 1.58
  C 480.94 -1.87 518.12 3.60 533.47 32.90
  A 0.55 0.55 0.0 0 1 532.63 33.58
  Q 529.26 30.77 525.42 28.93
  Q 520.91 26.78 519.28 25.54
  Q 515.74 22.84 512.71 19.57
  C 510.76 17.47 508.28 17.12 507.04 14.01
  A 1.97 1.97 0.0 0 0 503.83 13.34
  Z"
/>
<path fill="#ffda00" d="
  M 110.75 24.06
  Q 109.35 20.08 106.96 18.54
  Q 104.80 18.27 102.81 16.68
  L 102.75 15.74
  Q 102.72 15.20 102.22 15.40
  Q 101.74 15.60 101.43 16.19
  Q 99.63 16.63 97.86 15.19
  A 0.40 0.40 0.0 0 0 97.21 15.53
  Q 97.33 16.94 96.78 18.26
  Q 96.46 19.02 96.17 18.26
  L 93.85 12.26
  A 0.96 0.96 0.0 0 0 93.05 11.64
  Q 91.42 11.47 90.30 10.28
  Q 89.92 9.87 89.37 9.79
  Q 87.11 9.47 85.03 10.05
  C 83.75 10.40 82.91 11.55 81.58 12.12
  Q 81.00 12.37 81.00 11.73
  L 81.00 3.50
  Q 81.00 3.00 81.50 3.00
  L 145.49 3.00
  Q 146.00 3.00 145.95 3.51
  C 144.06 21.50 136.39 38.52 122.30 50.17
  Q 121.96 50.46 121.95 50.01
  L 121.74 43.65
  Q 121.72 42.99 121.11 42.73
  L 118.74 41.74
  A 0.42 0.42 0.0 0 1 118.60 41.06
  L 119.07 40.59
  Q 119.36 40.29 119.75 40.45
  Q 122.29 41.48 125.07 40.88
  Q 125.78 40.73 125.15 40.37
  L 120.54 37.74
  Q 119.94 37.39 120.23 36.76
  L 121.16 34.74
  Q 121.44 34.14 121.07 33.58
  L 119.33 30.96
  A 0.58 0.49 -71.2 0 1 119.24 30.73
  L 118.74 28.23
  Q 118.61 27.58 117.96 27.72
  Q 113.16 28.74 109.37 31.78
  A 0.35 0.35 0.0 0 1 108.85 31.34
  L 111.73 26.25
  Q 112.03 25.72 111.66 25.24
  L 110.75 24.06
  Z"
/>
<path fill="#ffda00" d="
  M 206.97 54.90
  L 157.51 55.36
  A 0.32 0.32 0.0 0 1 157.18 55.03
  L 157.63 3.59
  A 0.32 0.32 0.0 0 1 158.18 3.38
  L 207.20 54.36
  A 0.32 0.32 0.0 0 1 206.97 54.90
  Z
  M 164.30 24.03
  C 167.30 28.67 172.01 29.45 172.79 35.65
  A 1.20 1.20 0.0 0 0 174.75 36.43
  Q 176.82 34.71 176.39 32.03
  Q 175.08 23.77 167.25 21.38
  Q 166.78 21.24 166.36 21.50
  L 162.14 24.15
  A 1.19 1.18 78.2 0 0 161.60 24.98
  C 160.79 30.73 163.78 38.62 170.82 37.64
  A 1.35 1.35 0.0 0 0 171.90 35.84
  C 171.53 34.85 171.05 33.93 170.11 33.27
  C 166.99 31.11 163.91 28.22 163.83 24.17
  Q 163.81 23.27 164.30 24.03
  Z
  M 185.88 37.33
  A 0.40 0.40 0.0 0 0 185.34 36.95
  Q 177.05 40.09 178.17 49.53
  Q 178.29 50.56 179.45 50.93
  Q 179.97 51.10 179.97 50.56
  C 180.02 44.10 185.90 43.80 185.88 37.33
  Z
  M 187.22 37.86
  L 180.86 50.96
  A 0.88 0.88 0.0 0 0 181.27 52.13
  L 181.41 52.20
  A 7.58 6.34 -64.1 0 0 190.43 48.15
  L 190.93 47.11
  A 7.58 6.34 -64.1 0 0 188.54 37.52
  L 188.40 37.45
  A 0.88 0.88 0.0 0 0 187.22 37.86
  Z"
/>
<path fill="#ffa506" d="
  M 74.94 17.82
  C 46.97 19.91 31.50 42.70 24.52 67.42
  Q 24.36 68.00 23.75 68.00
  L 13.05 68.00
  Q 12.51 68.00 12.56 67.46
  C 15.94 31.86 37.19 5.34 74.96 3.77
  Q 75.49 3.75 75.49 4.28
  L 75.49 17.22
  Q 75.49 17.78 74.94 17.82
  Z"
/>
<path fill="#ffa506" d="
  M 373.12 41.75
  Q 372.57 41.72 372.40 42.22
  C 370.86 40.63 371.45 39.29 370.52 37.66
  C 369.42 35.73 365.58 34.89 363.14 34.62
  Q 362.70 34.57 363.02 34.87
  Q 366.38 38.12 366.53 43.00
  Q 366.41 42.83 366.28 42.66
  L 354.72 45.23
  A 0.30 0.30 0.0 0 0 354.69 45.80
  Q 360.59 47.81 366.75 47.69
  Q 366.72 47.29 367.18 47.44
  L 368.89 51.80
  Q 369.07 52.27 369.48 52.55
  Q 371.13 53.69 372.23 55.62
  Q 372.48 56.06 371.98 56.05
  L 331.47 55.68
  A 0.28 0.28 0.0 0 1 331.27 55.20
  L 380.06 4.26
  Q 380.73 3.57 380.74 4.53
  L 381.19 39.03
  Q 381.20 39.64 380.61 39.80
  L 373.12 41.75
  Z"
/>
<path fill="#ffa506" d="
  M 445.77 8.56
  Q 444.65 6.97 445.81 5.43
  Q 446.21 4.90 446.20 5.56
  L 446.17 8.44
  Q 446.16 9.13 445.77 8.56
  Z"
/>
<path fill="#ffda00" d="
  M 446.19 17.32
  A 2.88 2.88 0.0 0 1 443.30 20.19
  L 440.04 20.18
  A 6.13 5.74 -89.8 0 1 434.32 14.03
  L 434.32 13.73
  A 6.13 5.74 -89.8 0 1 440.08 7.62
  L 443.34 7.63
  A 2.88 2.88 0.0 0 1 446.21 10.52
  L 446.19 17.32
  Z"
/>
<path fill="#ffda00" d="
  M 393.55 8.20
  A 0.59 0.59 0.0 0 1 394.14 7.61
  L 396.43 7.60
  A 6.10 6.02 89.9 0 1 402.46 13.69
  L 402.46 14.13
  A 6.10 6.02 89.9 0 1 396.45 20.24
  L 394.16 20.25
  A 0.59 0.59 0.0 0 1 393.57 19.66
  L 393.55 8.20
  Z"
/>
<path fill="#ffda00" d="
  M 424.67 15.78
  C 423.77 17.35 423.17 18.62 422.19 19.81
  A 0.94 0.90 -69.1 0 1 421.49 20.14
  L 415.54 20.15
  A 0.79 0.78 -13.6 0 1 414.84 19.73
  L 411.95 14.37
  A 1.09 1.08 -44.7 0 1 411.96 13.33
  L 414.74 8.25
  A 1.11 1.09 -75.1 0 1 415.72 7.67
  L 421.49 7.71
  A 1.14 1.13 -18.7 0 1 422.39 8.15
  C 423.79 9.94 425.95 13.54 424.67 15.78
  Z"
/>
<path fill="#ffda00" d="
  M 401.68 17.68
  C 402.62 16.06 402.88 14.33 405.22 14.35
  Q 407.37 14.37 409.49 14.40
  Q 409.95 14.41 410.30 14.70
  Q 414.13 17.83 413.27 21.97
  Q 411.82 28.95 404.35 27.07
  Q 403.90 26.95 403.62 26.60
  C 401.37 23.80 399.62 21.21 401.68 17.68
  Z"
/>
<path fill="#ffda00" d="
  M 430.97 14.27
  Q 432.45 14.23 433.15 14.90
  Q 438.77 20.38 433.80 25.79
  Q 432.02 27.74 429.04 27.52
  Q 426.76 27.35 425.29 25.35
  Q 423.84 23.38 422.99 20.93
  A 1.16 1.15 50.2 0 1 423.07 19.99
  Q 423.66 18.92 424.76 16.73
  C 426.36 13.55 428.06 14.34 430.97 14.27
  Z"
/>
<path fill="#c61a0f" d="
  M 102.81 16.68
  Q 102.14 16.62 101.43 16.19
  Q 101.74 15.60 102.22 15.40
  Q 102.72 15.20 102.75 15.74
  L 102.81 16.68
  Z"
/>
<path fill="#ffda00" d="
  M 95.84 47.53
  L 102.15 43.05
  Q 102.61 42.72 102.91 43.20
  Q 104.98 46.51 108.36 44.78
  Q 108.81 44.54 109.23 44.82
  Q 113.64 47.63 112.32 52.72
  A 1.06 1.06 0.0 0 0 113.01 53.99
  L 113.43 54.14
  A 1.09 1.09 0.0 0 1 113.61 56.12
  Q 98.70 64.50 81.54 65.52
  Q 81.00 65.55 81.00 65.01
  L 81.00 18.70
  Q 81.00 17.84 81.74 18.28
  L 89.79 23.01
  Q 90.24 23.28 89.78 23.53
  L 86.12 25.59
  A 0.77 0.77 0.0 0 0 85.77 26.54
  L 86.33 27.99
  A 0.62 0.61 -21.8 0 1 85.99 28.77
  Q 84.62 29.32 84.32 30.78
  Q 84.20 31.33 84.61 31.73
  Q 86.02 33.08 85.04 34.97
  A 0.86 0.83 40.9 0 0 85.12 35.86
  L 87.44 38.99
  Q 87.73 39.38 88.21 39.29
  L 90.73 38.79
  Q 91.32 38.67 91.80 39.01
  Q 93.68 40.29 95.91 40.25
  Q 96.33 40.24 96.44 40.65
  Q 97.41 44.24 95.67 47.37
  A 0.12 0.12 0.0 0 0 95.84 47.53
  Z"
/>
<path fill="#c61a0f" d="
  M 110.75 24.06
  L 106.96 18.54
  Q 109.35 20.08 110.75 24.06
  Z"
/>
<path fill="#ffa506" d="
  M 446.12 19.65
  L 446.21 21.95
  Q 446.23 22.77 445.75 22.11
  Q 444.84 20.87 445.51 19.52
  Q 446.08 18.37 446.12 19.65
  Z"
/>
<path fill="#ffa506" d="
  M 44.68 63.35
  Q 43.94 65.42 43.14 67.54
  Q 42.97 68.00 42.48 68.00
  L 27.77 68.00
  Q 27.32 68.00 27.42 67.56
  C 32.82 44.24 49.18 21.29 74.95 20.22
  Q 75.49 20.19 75.49 20.74
  L 75.48 34.53
  Q 75.48 35.18 74.85 35.29
  C 59.76 37.87 49.59 49.73 44.68 63.35
  Z"
/>
<path fill="#ffda00" d="
  M 394.00 20.97
  C 396.02 20.60 398.88 20.26 400.04 22.22
  Q 401.61 24.90 403.12 27.56
  Q 403.36 27.99 403.12 28.42
  L 399.64 34.48
  A 1.19 1.19 0.0 0 1 398.64 35.08
  L 394.14 35.22
  Q 393.54 35.23 393.54 34.64
  L 393.53 21.52
  Q 393.53 21.05 394.00 20.97
  Z"
/>
<path fill="#ffda00" d="
  M 423.76 31.77
  C 422.04 35.83 418.48 34.60 415.00 34.59
  Q 414.43 34.59 414.15 34.09
  L 411.01 28.38
  Q 410.80 28.00 411.01 27.63
  L 414.56 21.34
  Q 414.82 20.89 415.34 20.89
  L 421.38 20.94
  A 0.96 0.96 0.0 0 1 422.20 21.43
  L 425.60 27.37
  Q 425.87 27.84 425.60 28.31
  C 424.88 29.51 424.39 30.29 423.76 31.77
  Z"
/>
<path fill="#ffda00" d="
  M 433.59 27.56
  L 436.94 21.52
  Q 437.21 21.04 437.74 20.97
  C 441.00 20.50 444.48 20.27 445.69 23.76
  Q 447.64 29.42 444.49 34.19
  A 0.99 0.97 15.4 0 1 443.68 34.64
  L 437.82 34.73
  Q 437.19 34.74 436.88 34.18
  L 433.59 28.31
  A 0.78 0.76 -45.7 0 1 433.59 27.56
  Z"
/>
<path fill="#c61a0f" d="
  M 97.09 23.26
  L 96.35 22.43
  A 0.23 0.23 0.0 0 1 96.68 22.12
  Q 97.30 22.74 97.66 23.51
  A 0.20 0.20 0.0 0 1 97.31 23.70
  Q 97.22 23.55 97.16 23.38
  A 0.28 0.27 -77.0 0 0 97.09 23.26
  Z"
/>
<path fill="#ffda00" d="
  M 410.11 29.10
  Q 416.47 35.00 410.49 41.28
  A 1.08 1.06 -68.0 0 1 409.71 41.62
  L 404.58 41.62
  Q 404.13 41.62 403.81 41.30
  Q 397.66 35.03 404.06 29.08
  Q 404.47 28.70 405.04 28.70
  L 409.22 28.75
  A 1.33 1.30 65.9 0 1 410.11 29.10
  Z"
/>
<path fill="#ffda00" d="
  M 434.21 30.36
  Q 435.30 32.49 436.26 34.81
  A 1.10 1.09 -42.2 0 1 436.21 35.75
  L 433.47 40.87
  A 1.03 1.02 -75.8 0 1 432.57 41.41
  L 426.69 41.34
  A 1.01 1.00 75.0 0 1 425.82 40.83
  L 422.99 35.68
  A 1.07 1.07 0.0 0 1 422.97 34.67
  L 425.64 29.48
  A 1.17 1.17 0.0 0 1 426.63 28.84
  C 428.50 28.74 433.01 28.02 434.21 30.36
  Z"
/>
<path fill="#c61a0f" d="
  M 106.91 31.88
  Q 104.96 34.16 103.24 36.73
  Q 102.98 37.13 102.24 37.24
  Q 102.06 37.27 102.19 37.15
  C 103.93 35.48 104.46 33.01 105.87 31.68
  Q 106.53 31.05 106.91 31.51
  Q 107.06 31.69 106.91 31.88
  Z"
/>
<path fill="#c61a0f" d="
  M 445.76 36.58
  Q 444.72 35.03 445.69 33.55
  Q 446.21 32.75 446.20 33.71
  L 446.18 36.45
  Q 446.18 37.21 445.76 36.58
  Z"
/>
<path fill="#ffda00" d="
  M 446.05 45.22
  A 2.80 2.80 0.0 0 1 443.28 48.05
  L 440.39 48.08
  A 6.22 5.87 89.4 0 1 434.45 41.92
  L 434.45 41.64
  A 6.22 5.87 89.4 0 1 440.25 35.36
  L 443.14 35.33
  A 2.80 2.80 0.0 0 1 445.97 38.10
  L 446.05 45.22
  Z"
/>
<path fill="#ffda00" d="
  M 393.51 36.47
  A 0.73 0.73 0.0 0 1 394.24 35.74
  L 396.48 35.75
  A 6.16 6.15 -89.9 0 1 402.62 41.92
  L 402.62 42.30
  A 6.16 6.15 -89.9 0 1 396.46 48.45
  L 394.22 48.44
  A 0.73 0.73 0.0 0 1 393.49 47.71
  L 393.51 36.47
  Z"
/>
<path fill="#ffda00" d="
  M 424.78 40.26
  C 425.78 42.49 423.62 45.94 422.39 47.58
  Q 422.08 47.99 421.56 48.00
  L 415.49 48.07
  A 0.78 0.77 -14.3 0 1 414.81 47.67
  L 411.95 42.34
  A 1.04 1.02 45.6 0 1 411.95 41.37
  L 414.68 36.31
  A 1.13 1.13 0.0 0 1 415.67 35.72
  L 421.73 35.69
  A 0.94 0.93 -15.3 0 1 422.53 36.14
  Q 424.11 38.79 424.78 40.26
  Z"
/>
<path fill="#ffa506" d="
  M 75.07 56.26
  C 69.55 58.17 66.98 62.05 65.38 67.52
  Q 65.24 68.00 64.74 68.00
  L 46.22 68.00
  Q 45.34 68.00 45.60 67.16
  C 49.96 52.81 59.46 39.98 75.03 37.39
  Q 75.49 37.32 75.49 37.78
  L 75.48 55.69
  Q 75.48 56.12 75.07 56.26
  Z"
/>
<path fill="#c61a0f" d="
  M 373.12 41.75
  Q 373.62 43.76 375.23 45.29
  L 374.30 45.30
  L 372.40 42.22
  Q 372.57 41.72 373.12 41.75
  Z"
/>
<path fill="#ffda00" d="
  M 400.61 48.09
  L 402.99 43.42
  Q 403.24 42.93 403.75 42.76
  C 407.20 41.57 410.67 41.88 412.49 45.50
  Q 415.04 50.58 410.23 54.91
  Q 409.89 55.21 409.43 55.22
  L 404.20 55.24
  A 0.91 0.90 -14.3 0 1 403.38 54.76
  L 400.63 49.71
  A 1.74 1.72 -46.0 0 1 400.61 48.09
  Z"
/>
<path fill="#ffda00" d="
  M 435.66 49.48
  Q 434.12 49.86 433.61 48.62
  Q 433.37 48.05 433.01 48.56
  Q 432.84 48.81 432.83 49.29
  L 430.69 46.62
  Q 430.18 46.32 429.94 45.69
  Q 429.73 45.16 429.42 45.63
  Q 429.15 46.02 429.07 46.70
  Q 427.25 47.78 428.41 49.52
  Q 429.06 50.68 428.42 51.41
  Q 428.23 51.62 428.49 51.73
  L 429.27 52.07
  L 428.22 54.32
  A 1.27 1.27 0.0 0 1 425.96 54.40
  Q 424.68 52.12 423.38 49.89
  C 422.32 48.07 424.38 45.59 425.17 43.93
  Q 425.81 42.60 427.25 42.60
  Q 429.62 42.59 431.99 42.32
  A 1.29 1.27 59.4 0 1 432.90 42.56
  C 434.78 43.95 434.46 45.87 435.74 47.12
  A 1.36 1.35 18.1 0 1 436.12 47.86
  Q 436.27 48.76 435.66 49.48
  Z"
/>
<path fill="#c61a0f" d="
  M 366.28 42.66
  Q 366.41 42.83 366.53 43.00
  L 367.18 47.44
  Q 366.72 47.29 366.75 47.69
  L 366.28 42.66
  Z"
/>
<path fill="#c61a0f" d="
  M 379.30 44.82
  Q 378.75 45.73 377.72 45.83
  A 0.44 0.44 0.0 0 1 377.49 44.99
  L 380.62 43.53
  Q 381.78 42.99 381.16 44.10
  L 381.01 44.37
  A 0.28 0.27 18.2 0 1 380.74 44.50
  L 380.08 44.44
  Q 379.57 44.39 379.30 44.82
  Z"
/>
<path fill="#ffa506" d="
  M 374.30 45.30
  L 375.23 45.29
  C 376.42 47.34 378.96 46.22 380.62 45.55
  Q 381.24 45.30 381.24 45.97
  L 381.25 55.25
  Q 381.25 56.00 380.50 56.00
  L 377.48 56.00
  A 0.68 0.67 -1.8 0 1 376.80 55.37
  Q 376.41 50.14 374.30 45.30
  Z"
/>
<path fill="#c61a0f" d="
  M 430.69 46.62
  L 429.07 46.70
  Q 429.15 46.02 429.42 45.63
  Q 429.73 45.16 429.94 45.69
  Q 430.18 46.32 430.69 46.62
  Z"
/>
<path fill="#c61a0f" d="
  M 363.03 46.37
  Q 361.18 47.02 359.55 45.90
  Q 359.19 45.65 359.63 45.64
  Q 362.60 45.51 363.68 45.80
  Q 364.22 45.94 364.36 46.38
  Q 364.50 46.81 364.09 46.61
  L 363.72 46.42
  Q 363.38 46.24 363.03 46.37
  Z"
/>
<path fill="#e86643" d="
  M 445.79 50.33
  Q 444.72 48.73 445.66 47.09
  A 0.28 0.28 0.0 0 1 446.18 47.22
  L 446.21 50.19
  A 0.23 0.23 0.0 0 1 445.79 50.33
  Z"
/>
<path fill="#c61a0f" d="
  M 435.66 49.48
  L 435.33 50.42
  Q 435.14 50.98 434.72 50.55
  Q 433.90 49.69 432.83 49.29
  Q 432.84 48.81 433.01 48.56
  Q 433.37 48.05 433.61 48.62
  Q 434.12 49.86 435.66 49.48
  Z"
/>
<path fill="#ffda00" d="
  M 415.18 49.04
  C 417.29 48.85 419.74 48.66 421.80 49.29
  A 1.34 1.33 84.1 0 1 422.57 49.92
  L 425.39 55.07
  A 0.88 0.88 0.0 0 1 425.39 55.93
  L 422.27 61.54
  A 0.82 0.82 0.0 0 1 421.57 61.96
  L 414.74 62.11
  A 0.78 0.76 -14.2 0 1 414.04 61.70
  L 411.29 56.45
  Q 411.03 55.95 411.30 55.45
  L 414.45 49.53
  Q 414.68 49.09 415.18 49.04
  Z"
/>
<path fill="#ffda00" d="
  M 439.37 56.08
  A 0.91 0.91 0.0 0 0 440.09 54.44
  L 436.06 51.60
  A 0.42 0.42 0.0 0 1 436.31 50.84
  Q 437.67 50.87 436.93 49.67
  A 0.49 0.49 0.0 0 1 437.34 48.92
  L 443.41 48.91
  A 1.10 1.06 71.2 0 1 444.28 49.36
  Q 448.37 54.98 444.63 60.84
  A 0.99 0.98 -73.8 0 1 443.80 61.30
  L 437.41 61.33
  A 0.96 0.93 -18.3 0 1 436.66 60.97
  Q 434.81 58.57 436.40 55.84
  Q 436.62 55.47 437.04 55.56
  L 439.37 56.08
  Z"
/>
<path fill="#ffda00" d="
  M 393.51 50.29
  A 1.01 1.01 0.0 0 1 394.52 49.28
  L 395.79 49.29
  A 7.10 6.52 0.1 0 1 402.88 55.82
  L 402.88 56.20
  A 7.10 6.52 0.1 0 1 395.77 62.71
  L 394.50 62.70
  A 1.01 1.01 0.0 0 1 393.49 61.69
  L 393.51 50.29
  Z"
/>
<path fill="#c61a0f" d="
  M 429.27 52.07
  L 428.49 51.73
  Q 428.23 51.62 428.42 51.41
  Q 429.06 50.68 428.41 49.52
  L 428.86 49.39
  Q 429.40 49.23 429.19 49.75
  Q 428.76 50.84 429.27 52.07
  Z"
/>
<path fill="#ffa506" d="
  M 539.84 56.28
  L 496.30 56.78
  A 0.30 0.30 0.0 0 1 496.12 56.72
  L 488.14 50.59
  A 0.30 0.30 0.0 0 1 488.32 50.05
  L 539.21 49.68
  A 0.30 0.30 0.0 0 1 539.51 49.95
  L 540.14 55.95
  A 0.30 0.30 0.0 0 1 539.84 56.28
  Z"
/>
<ellipse fill="#c61a0f" cx="0.00" cy="0.00" transform="translate(429.25,54.09) rotate(68.4)" rx="0.71" ry="0.42"/>
<path fill="#ffda00" d="
  M 429.50 60.50
  A 0.89 0.89 0.0 0 0 431.25 60.69
  L 432.04 57.95
  Q 432.18 57.44 432.67 57.64
  Q 434.93 58.58 435.75 60.65
  C 436.76 63.23 434.49 66.34 433.05 68.47
  A 1.08 1.06 13.7 0 1 432.26 68.94
  C 430.15 69.14 426.62 69.59 425.45 67.55
  Q 424.17 65.33 423.08 63.01
  Q 422.86 62.56 423.04 62.09
  C 423.94 59.66 425.78 55.03 428.74 56.33
  Q 429.24 56.55 429.27 57.10
  L 429.50 60.50
  Z"
/>
<path fill="#ffda00" d="
  M 413.57 63.84
  L 411.23 68.39
  A 1.59 1.59 0.0 0 1 409.82 69.25
  L 404.41 69.24
  A 1.59 1.59 0.0 0 1 403.01 68.40
  L 400.56 63.81
  A 1.59 1.59 0.0 0 1 400.55 62.31
  L 403.11 57.49
  A 1.59 1.59 0.0 0 1 404.53 56.64
  L 409.73 56.70
  A 1.59 1.59 0.0 0 1 411.13 57.57
  L 413.57 62.40
  A 1.59 1.59 0.0 0 1 413.57 63.84
  Z"
/>
<path fill="#e86643" d="
  M 445.62 60.65
  Q 446.18 59.56 446.19 60.78
  L 446.22 63.45
  Q 446.22 64.36 445.74 63.59
  Q 444.83 62.16 445.62 60.65
  Z"
/>
<path fill="#e86643" d="
  M 497.01 62.61
  Q 496.71 61.83 496.48 60.90
  Q 496.39 60.51 496.78 60.51
  L 540.01 60.51
  Q 540.54 60.51 540.59 61.03
  Q 541.44 69.92 540.69 78.82
  Q 540.66 79.25 540.23 79.25
  L 499.01 79.25
  Q 498.46 79.25 498.55 78.71
  Q 500.00 70.41 497.01 62.61
  Z"
/>
<path fill="#ffa506" d="
  M 191.61 119.37
  Q 191.31 116.79 191.55 114.20
  Q 191.75 111.98 191.27 109.27
  Q 190.72 106.14 190.70 101.89
  C 190.67 98.37 187.16 97.37 184.59 96.16
  Q 183.96 95.86 184.42 95.33
  Q 186.96 92.45 184.10 89.33
  A 0.77 0.73 73.3 0 0 183.72 89.11
  C 180.65 88.47 179.50 90.59 179.16 93.13
  Q 178.97 94.57 180.65 94.92
  A 0.79 0.78 -42.2 0 1 180.57 96.47
  Q 177.44 96.81 175.70 99.22
  C 174.23 101.26 174.42 104.53 174.42 107.05
  Q 174.42 107.55 173.91 107.55
  C 172.39 107.55 168.94 107.93 168.91 105.48
  C 168.85 100.70 167.96 95.51 167.37 90.75
  C 167.17 89.10 168.74 86.38 166.31 85.39
  Q 165.72 85.14 165.81 85.78
  Q 166.96 94.02 167.94 102.25
  C 168.23 104.62 165.46 106.69 168.15 108.23
  Q 168.61 108.49 168.67 109.02
  L 172.28 140.40
  A 0.21 0.21 0.0 0 0 172.67 140.47
  Q 172.74 140.32 172.84 140.19
  Q 173.06 139.92 173.02 139.58
  L 169.54 109.29
  A 0.47 0.47 0.0 0 1 170.27 108.85
  Q 172.51 110.38 175.20 110.55
  A 0.75 0.75 0.0 0 0 175.96 110.05
  L 177.30 106.24
  Q 177.54 105.55 177.74 106.25
  L 178.87 110.20
  Q 179.00 110.63 178.87 111.07
  Q 176.86 118.14 178.41 125.27
  Q 178.82 127.12 178.62 129.39
  Q 178.22 133.90 180.09 139.22
  Q 180.75 141.08 179.11 142.43
  Q 178.73 142.74 178.24 142.74
  L 157.74 142.74
  Q 157.24 142.74 157.24 142.24
  L 157.32 62.22
  Q 157.32 61.75 157.78 61.75
  L 207.00 61.75
  Q 207.49 61.75 207.49 62.25
  L 207.49 142.25
  Q 207.49 142.74 207.00 142.74
  L 186.75 142.75
  Q 186.26 142.75 185.95 142.37
  Q 184.66 140.75 185.46 138.74
  Q 187.26 134.21 186.79 129.84
  Q 186.55 127.55 186.93 125.68
  Q 188.31 118.81 186.72 111.96
  C 186.26 109.94 186.97 108.63 187.08 107.06
  Q 187.39 102.81 188.37 106.96
  Q 189.68 112.49 190.09 118.15
  Q 190.12 118.52 190.39 118.76
  L 191.24 119.56
  A 0.22 0.22 0.0 0 0 191.61 119.37
  Z"
/>
<path fill="#ffda00" d="
  M 446.29 69.25
  L 434.45 69.24
  A 0.43 0.43 0.0 0 1 434.07 68.61
  L 437.50 62.26
  A 0.43 0.43 0.0 0 1 437.93 62.04
  L 444.85 62.94
  A 0.43 0.43 0.0 0 1 445.21 63.26
  L 446.70 68.71
  A 0.43 0.43 0.0 0 1 446.29 69.25
  Z"
/>
<path fill="#ffda00" d="
  M 424.98 69.25
  L 412.28 69.24
  A 0.40 0.40 0.0 0 1 411.93 68.65
  L 414.97 63.15
  A 0.40 0.40 0.0 0 1 415.31 62.95
  L 422.04 62.87
  A 0.40 0.40 0.0 0 1 422.39 63.09
  L 425.33 68.66
  A 0.40 0.40 0.0 0 1 424.98 69.25
  Z"
/>
<path fill="#ffda00" d="
  M 402.34 69.25
  L 393.80 69.25
  A 0.30 0.30 0.0 0 1 393.50 68.95
  L 393.54 63.67
  A 0.30 0.30 0.0 0 1 393.83 63.37
  L 399.40 63.26
  A 0.30 0.30 0.0 0 1 399.67 63.42
  L 402.60 68.81
  A 0.30 0.30 0.0 0 1 402.34 69.25
  Z"
/>
<path fill="#e86643" d="
  M 353.08 121.17
  C 348.90 121.58 345.13 121.35 341.30 123.50
  A 0.99 0.98 -12.8 0 0 340.80 124.28
  C 340.15 131.96 343.68 139.87 351.30 142.38
  Q 352.45 142.75 351.24 142.75
  L 330.75 142.75
  Q 330.25 142.75 330.25 142.25
  L 330.25 64.25
  Q 330.25 63.75 330.75 63.75
  L 380.00 63.75
  Q 380.50 63.75 380.50 64.25
  L 380.50 142.25
  Q 380.50 142.75 380.00 142.75
  L 355.61 142.75
  Q 354.96 142.75 355.48 142.35
  Q 355.98 141.96 356.61 142.13
  A 0.64 0.63 -57.8 0 0 357.20 141.99
  L 362.66 137.14
  Q 363.12 136.73 363.70 136.89
  L 365.29 137.33
  Q 365.81 137.47 365.90 136.94
  L 366.22 134.91
  A 0.90 0.89 -5.6 0 1 366.81 134.20
  C 369.85 133.12 374.94 128.27 369.54 126.48
  Q 369.13 126.34 368.70 126.42
  Q 367.76 126.61 366.83 126.40
  Q 366.32 126.29 366.21 125.78
  Q 365.52 122.40 361.74 121.96
  C 358.95 121.63 355.86 120.90 353.08 121.17
  Z
  M 351.50 80.61
  A 0.56 0.56 0.0 0 0 352.36 80.02
  L 351.28 75.32
  A 0.56 0.56 0.0 0 0 351.02 74.96
  L 345.77 71.97
  A 0.56 0.56 0.0 0 0 344.96 72.62
  L 346.36 77.07
  A 0.56 0.56 0.0 0 0 346.59 77.37
  L 351.50 80.61
  Z
  M 359.24 74.42
  A 0.70 0.70 0.0 0 0 358.52 74.01
  Q 352.48 74.72 354.19 80.95
  Q 354.35 81.54 354.80 81.13
  Q 357.16 79.01 359.16 76.43
  Q 359.77 75.65 359.24 74.42
  Z
  M 356.42 84.44
  C 359.66 81.80 363.12 77.80 368.61 77.98
  Q 369.39 78.01 368.81 77.48
  C 363.18 72.31 357.22 78.70 355.77 84.02
  Q 355.44 85.24 356.42 84.44
  Z
  M 351.99 100.20
  Q 351.82 100.08 351.52 100.69
  Q 350.55 100.81 349.61 101.74
  Q 349.18 102.16 348.90 101.62
  C 345.61 95.17 338.27 96.55 333.93 101.02
  Q 333.65 101.32 334.04 101.43
  Q 337.17 102.35 339.48 104.72
  A 1.51 1.50 69.8 0 0 340.45 105.17
  L 349.96 105.82
  Q 350.75 105.88 350.35 105.20
  L 349.80 104.28
  Q 349.58 103.90 350.01 103.97
  Q 352.87 104.38 355.65 103.26
  Q 355.84 103.19 355.99 103.31
  L 356.20 103.47
  Q 356.34 103.58 356.19 103.68
  L 355.53 104.10
  Q 354.95 104.47 355.64 104.40
  Q 358.79 104.05 360.78 101.60
  C 361.21 101.07 361.64 100.99 362.28 100.97
  Q 362.81 100.95 362.54 100.50
  L 361.97 99.56
  Q 361.72 99.15 361.25 99.22
  L 354.62 100.12
  Q 354.07 100.20 354.10 99.65
  L 354.35 92.96
  A 0.26 0.25 -57.8 0 1 354.83 92.85
  L 355.06 93.29
  A 0.16 0.16 0.0 0 0 355.31 93.33
  Q 355.72 92.95 355.19 92.57
  Q 354.17 91.82 354.05 90.51
  Q 353.99 89.90 354.57 90.10
  C 357.98 91.27 358.78 89.55 361.58 88.57
  Q 362.11 88.39 361.68 88.04
  Q 358.46 85.43 354.44 87.14
  A 0.22 0.22 0.0 0 0 354.52 87.57
  L 355.77 87.60
  A 0.18 0.18 0.0 0 1 355.84 87.94
  L 355.07 88.28
  Q 354.35 88.60 354.18 87.83
  Q 353.89 86.49 354.97 85.64
  A 0.34 0.34 0.0 0 0 354.68 85.04
  L 354.08 85.18
  A 0.86 0.85 -85.0 0 0 353.49 85.68
  L 352.83 87.29
  Q 352.67 87.68 353.00 87.94
  Q 353.29 88.17 353.34 89.09
  Q 353.37 89.49 353.35 89.89
  Q 353.31 91.04 353.50 92.18
  A 0.66 0.66 0.0 0 1 353.08 92.91
  L 351.80 93.38
  Q 351.17 93.62 351.17 92.94
  Q 351.18 90.21 349.19 88.29
  Q 348.70 87.81 349.22 87.36
  L 351.11 85.77
  A 1.15 1.15 0.0 0 0 350.50 83.75
  Q 344.54 83.04 341.20 86.40
  C 339.11 88.51 339.01 92.91 338.05 95.95
  Q 337.89 96.43 338.39 96.32
  L 343.89 95.03
  Q 344.43 94.90 344.83 94.52
  L 345.33 94.05
  Q 345.72 93.69 346.18 93.94
  Q 347.89 94.86 349.68 94.29
  Q 349.97 94.20 350.16 94.44
  L 350.48 94.85
  A 0.37 0.37 0.0 0 0 351.10 94.79
  Q 351.69 93.64 353.06 94.04
  Q 353.68 94.21 353.35 94.77
  L 353.00 95.37
  Q 352.73 95.83 352.19 95.74
  L 351.25 95.59
  A 0.35 0.29 50.0 0 0 351.25 96.23
  L 352.19 96.41
  A 0.93 0.93 0.0 0 1 352.93 97.11
  Q 353.38 98.93 351.99 100.20
  Z
  M 355.28 95.58
  L 355.32 96.16
  A 0.50 0.49 77.9 0 0 355.98 96.59
  Q 360.61 94.90 365.49 95.40
  Q 366.33 95.48 365.82 94.81
  C 364.05 92.48 358.12 94.00 355.77 94.82
  Q 355.23 95.01 355.28 95.58
  Z
  M 352.15 108.54
  Q 350.91 107.24 349.38 108.20
  A 0.73 0.72 -25.9 0 0 349.08 109.05
  Q 349.87 111.38 352.28 110.96
  Q 352.95 110.85 353.06 111.52
  L 353.58 114.86
  A 0.23 0.23 0.0 0 0 353.89 115.04
  Q 354.07 114.97 354.18 114.76
  Q 354.27 114.57 354.24 114.22
  Q 354.00 111.80 356.18 111.32
  Q 356.66 111.22 356.68 111.71
  Q 356.83 115.36 353.44 115.76
  Q 352.86 115.83 353.22 116.29
  Q 354.62 118.07 354.86 120.39
  Q 354.87 120.50 354.98 120.50
  Q 355.12 120.50 355.27 120.50
  A 0.15 0.15 0.0 0 0 355.41 120.29
  C 354.15 117.23 355.39 115.17 358.11 113.44
  C 361.10 111.53 363.61 108.83 367.05 107.80
  Q 370.47 106.79 373.25 104.61
  Q 373.55 104.37 373.19 104.24
  Q 364.47 101.06 358.89 108.01
  Q 358.59 108.39 358.18 108.15
  Q 356.64 107.26 355.31 108.47
  A 1.07 1.07 0.0 0 1 353.58 107.35
  L 354.26 105.25
  Q 354.53 104.40 353.64 104.40
  L 352.84 104.39
  Q 352.31 104.39 352.36 104.92
  L 352.63 108.32
  A 0.28 0.28 0.0 0 1 352.15 108.54
  Z
  M 343.74 110.68
  C 341.32 111.18 339.23 110.89 337.49 112.78
  Q 335.90 114.51 335.30 116.87
  Q 335.19 117.32 335.54 117.63
  Q 338.36 120.10 341.89 119.86
  C 346.02 119.59 347.14 114.99 351.47 114.98
  Q 352.00 114.98 351.71 114.54
  C 349.92 111.81 347.07 109.99 343.74 110.68
  Z"
/>
<path fill="#ffc639" d="
  M 247.26 119.07
  Q 248.68 124.09 245.97 128.73
  Q 245.75 129.10 245.47 128.77
  L 216.08 93.67
  A 1.45 1.44 -64.9 0 1 215.75 92.75
  L 215.75 67.79
  Q 215.75 66.79 216.35 67.59
  L 264.68 131.76
  Q 265.00 132.19 265.00 132.72
  L 265.00 151.20
  Q 265.00 152.11 264.41 151.41
  L 248.65 132.57
  Q 248.33 132.19 248.39 131.69
  L 249.65 121.64
  A 0.49 0.49 0.0 0 0 249.52 121.24
  L 247.42 118.98
  Q 247.16 118.70 247.26 119.07
  Z"
/>
<path fill="#ffc639" d="
  M 290.74 125.54
  Q 291.17 125.19 291.66 125.33
  A 0.56 0.56 0.0 0 1 291.47 126.43
  L 279.78 125.45
  Q 279.02 125.39 279.48 124.78
  L 321.59 68.85
  A 0.22 0.22 0.0 0 1 321.99 68.98
  L 322.00 94.27
  Q 322.00 94.80 321.67 95.20
  L 298.09 123.35
  A 0.44 0.43 -16.7 0 1 297.34 122.95
  C 298.43 119.44 291.95 117.74 289.94 120.15
  Q 288.55 121.81 289.22 125.01
  A 0.94 0.94 0.0 0 0 290.74 125.54
  Z"
/>
<path fill="#ff7309" d="
  M 433.41 76.03
  L 433.10 113.72
  Q 430.96 113.38 428.60 110.70
  Q 428.30 110.35 428.62 110.01
  Q 428.73 109.90 428.73 109.75
  Q 428.69 109.00 428.36 109.76
  Q 427.52 111.65 429.43 111.97
  A 0.39 0.39 0.0 0 1 429.34 112.75
  L 428.30 112.68
  Q 427.82 112.65 427.79 112.16
  Q 427.62 109.17 424.60 109.95
  Q 424.44 109.14 423.74 109.06
  L 422.82 107.20
  Q 422.51 106.59 422.19 107.19
  Q 422.08 107.39 422.07 107.71
  Q 421.85 107.92 421.38 107.94
  L 418.88 105.33
  A 0.38 0.38 0.0 0 0 418.23 105.50
  Q 418.20 105.64 418.15 105.77
  Q 418.03 106.13 417.81 105.83
  Q 416.27 103.68 413.24 105.76
  Q 411.25 106.77 410.22 108.82
  Q 409.69 109.85 410.55 109.07
  L 413.38 106.50
  Q 411.63 108.90 409.14 110.36
  Q 408.75 110.59 408.67 111.04
  Q 408.50 112.00 407.96 112.41
  L 406.29 112.56
  Q 406.31 110.73 404.77 109.81
  L 398.14 110.50
  Q 396.13 109.82 394.39 111.83
  L 393.08 113.51
  Q 392.77 113.92 393.27 114.02
  Q 393.50 114.07 393.76 113.92
  Q 393.99 113.80 394.15 113.43
  Q 394.75 112.09 394.72 113.05
  L 394.72 114.25
  Q 394.72 114.69 394.29 114.64
  L 392.92 114.50
  Q 392.50 114.46 392.50 114.03
  L 392.50 76.52
  Q 392.50 76.02 392.99 76.02
  L 433.41 76.03
  Z
  M 424.92 106.72
  Q 424.69 107.06 424.34 107.32
  Q 423.48 107.98 424.45 107.51
  Q 425.15 107.16 425.45 106.41
  Q 425.71 105.75 425.04 105.52
  L 424.41 105.31
  A 0.21 0.21 0.0 0 0 424.25 105.70
  L 424.72 105.94
  Q 425.27 106.21 424.92 106.72
  Z"
/>
<path fill="#c61a0f" d="
  M 433.41 76.03
  L 445.76 76.03
  Q 446.24 76.03 446.24 76.51
  L 446.24 143.02
  Q 446.24 143.53 445.73 143.53
  L 429.07 143.43
  Q 428.26 143.43 428.92 142.97
  C 431.45 141.20 433.97 140.79 435.48 137.84
  A 0.44 0.38 -28.4 0 1 436.28 138.01
  Q 436.24 138.16 436.21 138.32
  Q 436.14 138.66 436.48 138.74
  Q 437.13 138.87 437.41 138.19
  Q 438.80 134.67 438.58 130.91
  Q 438.57 130.79 438.68 130.74
  L 439.02 130.60
  Q 439.17 130.53 439.12 130.68
  Q 439.01 131.00 439.13 131.21
  A 0.28 0.28 0.0 0 0 439.64 131.00
  L 439.05 128.99
  A 1.21 1.19 -85.4 0 0 438.45 128.27
  Q 436.86 127.47 435.95 125.93
  A 0.81 0.81 0.0 0 1 436.17 124.85
  Q 438.09 123.48 436.59 121.62
  Q 436.21 121.16 436.30 120.57
  Q 436.41 119.76 437.14 119.94
  Q 437.75 120.09 437.73 119.46
  Q 437.71 118.69 437.01 118.31
  Q 436.57 118.07 436.56 117.58
  Q 436.47 113.35 433.10 113.72
  L 433.41 76.03
  Z"
/>
<path fill="#ff7309" d="
  M 63.53 77.03
  L 63.19 87.15
  C 55.56 85.68 54.97 89.47 54.30 95.73
  C 53.86 99.77 51.85 101.92 50.29 105.23
  C 48.27 109.51 42.56 113.98 39.30 116.48
  Q 34.62 120.06 39.77 117.20
  Q 42.79 115.53 44.78 113.81
  L 45.08 114.51
  Q 51.11 115.62 57.98 111.06
  L 58.23 138.00
  C 30.48 130.44 13.67 105.78 12.58 77.49
  Q 12.56 77.02 13.03 77.02
  L 63.53 77.03
  Z
  M 41.84 102.56
  Q 41.94 103.20 42.56 103.35
  L 44.25 104.02
  Q 44.79 104.76 45.50 105.18
  Q 46.05 105.85 46.74 105.97
  Q 46.81 106.33 47.35 106.51
  Q 48.07 107.05 48.82 106.68
  Q 49.29 106.44 49.60 105.66
  C 50.16 104.25 50.50 103.41 51.53 102.08
  Q 52.81 100.44 53.26 98.24
  Q 53.37 97.71 52.87 97.49
  L 43.82 93.37
  Q 42.94 92.73 42.31 92.67
  L 29.92 88.49
  Q 29.13 88.23 29.31 89.04
  Q 29.59 90.33 30.62 91.11
  Q 30.94 91.36 31.05 91.75
  Q 31.18 92.23 31.70 92.80
  Q 37.30 98.93 41.84 102.56
  Z"
/>
<path fill="#c61a0f" d="
  M 63.53 77.03
  L 75.01 77.04
  Q 75.48 77.04 75.48 77.51
  L 75.48 140.49
  Q 75.48 141.00 74.97 140.98
  Q 66.58 140.57 58.23 138.00
  L 57.98 111.06
  Q 60.47 108.86 61.48 105.19
  C 63.10 99.34 59.74 93.21 64.05 88.23
  A 0.57 0.57 0.0 0 0 63.98 87.42
  Q 63.64 87.14 63.19 87.15
  L 63.53 77.03
  Z
  M 67.8653 85.7837
  A 1.60 0.22 -25.4 0 0 66.3256 86.2713
  A 1.60 0.22 -25.4 0 0 64.9747 87.1563
  A 1.60 0.22 -25.4 0 0 66.5144 86.6687
  A 1.60 0.22 -25.4 0 0 67.8653 85.7837
  Z"
/>
<path fill="#e86643" d="
  M 109.98 109.58
  Q 107.79 110.92 105.54 112.16
  C 102.90 113.61 99.76 113.67 97.05 115.90
  Q 96.66 116.22 96.17 116.33
  Q 91.64 117.33 88.71 120.71
  A 1.12 1.11 -24.7 0 1 86.75 119.99
  L 86.75 80.24
  Q 86.75 79.67 87.32 79.68
  C 118.26 80.30 144.38 96.03 148.42 128.79
  Q 148.50 129.45 147.93 129.10
  L 145.42 127.55
  A 0.83 0.82 -44.5 0 0 144.55 127.55
  C 141.86 129.24 137.86 126.71 135.37 125.19
  Q 134.57 124.71 129.72 121.98
  Q 125.92 119.84 122.97 116.56
  C 121.76 115.22 119.67 114.48 118.79 112.83
  A 1.93 1.93 0.0 0 0 116.31 111.97
  L 114.48 112.77
  Q 113.91 113.02 113.49 112.56
  L 110.90 109.71
  Q 110.50 109.26 109.98 109.58
  Z"
/>
<path fill="#e86643" d="
  M 499.21 82.25
  L 538.68 82.25
  A 1.48 1.48 0.0 0 1 540.10 84.16
  L 536.15 97.20
  A 1.48 1.48 0.0 0 1 534.73 98.25
  L 490.62 98.25
  A 1.48 1.48 0.0 0 1 489.38 95.96
  L 497.97 82.92
  A 1.48 1.48 0.0 0 1 499.21 82.25
  Z"
/>
<path fill="#c61a0f" d="
  M 42.31 92.67
  Q 42.94 92.73 43.82 93.37
  L 42.40 93.54
  Q 41.94 93.60 41.48 93.49
  L 32.26 91.33
  Q 32.07 91.28 32.26 91.24
  C 35.42 90.60 40.45 93.91 42.31 92.67
  Z"
/>
<path fill="#c61a0f" d="
  M 34.64 94.35
  C 36.76 94.05 37.38 94.91 39.12 95.12
  Q 39.15 95.12 39.13 95.11
  Q 39.02 95.04 39.00 95.14
  Q 38.97 95.24 38.93 95.23
  Q 36.77 94.73 34.64 94.57
  A 0.11 0.11 0.0 0 1 34.64 94.35
  Z"
/>
<path fill="#c61a0f" d="
  M 40.24 95.71
  Q 40.10 95.63 39.99 95.49
  Q 39.90 95.39 40.04 95.41
  Q 42.43 95.65 44.74 95.60
  Q 45.53 95.59 46.15 96.49
  Q 46.37 96.81 45.98 96.73
  Q 43.42 96.18 40.81 95.91
  Q 40.49 95.88 40.24 95.71
  Z"
/>
<path fill="#ffa506" d="
  M 487.29 96.88
  Q 487.49 96.80 487.49 97.01
  L 487.49 138.02
  A 1.98 1.98 0.0 0 1 485.98 139.94
  Q 469.08 144.09 451.78 145.99
  Q 451.25 146.05 451.25 145.52
  L 451.26 104.24
  Q 451.26 103.66 451.83 103.77
  C 464.11 106.12 476.17 101.60 487.29 96.88
  Z
  M 480.94 124.17
  A 11.51 11.51 0.0 0 0 469.43 112.66
  A 11.51 11.51 0.0 0 0 457.92 124.17
  A 11.51 11.51 0.0 0 0 469.43 135.68
  A 11.51 11.51 0.0 0 0 480.94 124.17
  Z"
/>
<path fill="#c61a0f" d="
  M 43.92 99.05
  L 40.45 97.87
  Q 40.35 97.84 40.35 97.73
  Q 40.36 97.59 40.36 97.46
  Q 40.36 97.28 40.52 97.36
  Q 43.59 98.78 46.96 98.05
  A 0.34 0.34 0.0 0 1 47.38 98.36
  L 47.40 98.72
  Q 47.42 99.07 47.08 99.03
  Q 45.45 98.83 44.08 99.78
  A 0.23 0.23 0.0 0 1 43.74 99.51
  Q 43.85 99.24 43.94 99.18
  Q 44.05 99.10 43.92 99.05
  Z"
/>
<path fill="#ffc639" d="
  M 235.27 136.69
  L 235.94 136.79
  A 1.12 1.10 -7.9 0 1 236.78 137.41
  Q 237.70 139.35 239.90 139.33
  A 0.76 0.76 0.0 0 1 240.39 140.68
  L 232.66 147.05
  Q 232.23 147.40 231.87 146.98
  L 216.65 129.06
  Q 216.25 128.60 216.25 127.99
  L 216.25 99.75
  Q 216.25 98.91 216.80 99.55
  Q 230.79 116.11 244.56 132.70
  Q 244.68 132.84 244.67 132.97
  Q 244.66 133.10 244.55 133.19
  Q 244.41 133.29 244.31 133.15
  Q 241.77 129.85 238.19 132.53
  Q 237.77 132.85 237.30 132.60
  Q 234.42 131.04 234.12 135.24
  A 1.37 1.36 -83.6 0 0 235.27 136.69
  Z"
/>
<ellipse fill="#c61a0f" cx="0.00" cy="0.00" transform="translate(41.51,100.20) rotate(5.2)" rx="1.70" ry="0.32"/>
<path fill="#ffc639" d="
  M 308.60 129.84
  A 0.39 0.39 0.0 0 0 308.70 129.07
  L 299.47 127.28
  A 0.33 0.33 0.0 0 1 299.28 126.74
  L 321.63 100.07
  Q 322.25 99.33 322.25 100.29
  L 322.25 128.47
  A 1.66 1.64 -25.6 0 1 321.87 129.52
  L 273.56 186.40
  Q 273.01 187.05 273.01 186.19
  L 273.00 158.68
  Q 273.00 158.13 273.36 157.71
  L 289.13 138.90
  Q 289.48 138.48 289.61 139.01
  L 291.54 147.22
  A 1.07 1.04 -77.2 0 0 291.90 147.81
  Q 293.40 149.03 293.84 150.91
  A 0.89 0.88 -29.7 0 1 293.61 151.73
  L 291.76 153.61
  A 0.47 0.47 0.0 0 0 292.17 154.41
  L 295.35 153.94
  A 0.71 0.70 -87.5 0 0 295.93 153.40
  Q 296.28 151.85 295.35 150.69
  Q 295.08 150.36 295.24 149.96
  Q 295.99 148.16 295.97 146.32
  Q 295.95 144.00 296.25 142.68
  Q 297.62 136.68 296.56 130.80
  A 1.45 1.44 86.9 0 1 298.08 129.10
  L 308.60 129.84
  Z"
/>
<path fill="#c61a0f" d="
  M 42.56 103.35
  Q 41.94 103.20 41.84 102.56
  Q 44.57 101.12 45.86 100.12
  Q 46.17 99.88 46.55 100.07
  A 0.27 0.26 -40.9 0 1 46.51 100.56
  Q 43.97 101.47 42.56 103.35
  Z"
/>
<path fill="#c61a0f" d="
  M 351.99 100.20
  L 352.64 100.62
  Q 352.99 100.84 352.74 101.16
  Q 352.61 101.32 352.41 101.37
  Q 352.11 101.45 351.86 101.23
  Q 351.62 101.02 351.52 100.69
  Q 351.82 100.08 351.99 100.20
  Z"
/>
<path fill="#c61a0f" d="
  M 45.50 105.18
  Q 44.79 104.76 44.25 104.02
  Q 46.48 103.16 48.18 101.03
  A 0.13 0.12 46.4 0 1 48.38 101.04
  Q 48.46 101.15 48.55 101.26
  A 0.17 0.17 0.0 0 1 48.51 101.51
  Q 46.15 102.97 45.50 105.18
  Z"
/>
<path fill="#e86643" d="
  M 523.95 115.89
  L 490.36 116.03
  A 0.86 0.86 0.0 0 1 489.50 115.17
  L 489.50 102.11
  A 0.86 0.86 0.0 0 1 490.36 101.25
  L 532.96 101.25
  A 0.86 0.86 0.0 0 1 533.67 102.60
  L 524.66 115.52
  A 0.86 0.86 0.0 0 1 523.95 115.89
  Z"
/>
<path fill="#c61a0f" d="
  M 47.35 106.51
  Q 46.81 106.33 46.74 105.97
  L 49.20 102.11
  Q 49.42 101.76 49.62 102.13
  Q 49.72 102.32 49.66 102.62
  C 49.49 103.46 47.75 105.16 47.35 106.51
  Z"
/>
<path fill="#c61a0f" d="
  M 413.24 105.76
  Q 414.46 106.76 413.38 106.50
  L 410.55 109.07
  Q 409.69 109.85 410.22 108.82
  Q 411.25 106.77 413.24 105.76
  Z"
/>
<path fill="#c61a0f" d="
  M 422.07 107.71
  Q 422.27 108.98 423.74 109.06
  Q 424.44 109.14 424.60 109.95
  Q 421.22 109.83 421.38 107.94
  Q 421.85 107.92 422.07 107.71
  Z"
/>
<path fill="#c61a0f" d="
  M 51.13 109.70
  A 0.26 0.26 0.0 0 1 51.59 109.94
  Q 50.30 112.55 47.82 113.97
  A 0.19 0.19 0.0 0 1 47.54 113.78
  Q 47.56 113.64 47.58 113.50
  Q 47.58 113.49 47.67 113.43
  Q 49.89 112.02 51.13 109.70
  Z"
/>
<path fill="#c61a0f" d="
  M 404.77 109.81
  Q 402.97 110.49 401.26 111.13
  C 399.30 111.85 398.04 111.40 396.02 111.43
  Q 395.65 110.86 398.14 110.50
  L 404.77 109.81
  Z"
/>
<path fill="#c61a0f" d="
  M 45.08 114.51
  L 44.78 113.81
  Q 45.86 112.14 47.18 111.52
  Q 48.11 111.08 47.43 111.85
  L 45.08 114.51
  Z"
/>
<path fill="#c61a0f" d="
  M 396.02 111.43
  L 394.72 113.05
  Q 394.75 112.09 394.15 113.43
  Q 393.99 113.80 393.76 113.92
  Q 393.50 114.07 393.27 114.02
  Q 392.77 113.92 393.08 113.51
  L 394.39 111.83
  L 396.02 111.43
  Z"
/>
<path fill="#c61a0f" d="
  M 406.29 112.56
  L 407.96 112.41
  Q 407.72 113.56 407.25 114.00
  Q 406.71 114.49 406.56 113.78
  L 406.29 112.56
  Z"
/>
<circle fill="#ffa506" cx="469.42" cy="124.15" r="6.68"/>
<path fill="#e86643" d="
  M 520.26 119.69
  C 511.93 127.76 501.41 134.67 490.15 138.98
  Q 489.50 139.23 489.50 138.53
  L 489.50 119.49
  Q 489.50 118.99 490.01 118.99
  L 519.99 119.03
  Q 520.94 119.03 520.26 119.69
  Z"
/>
<path fill="#ffa506" d="
  M 181.73 142.62
  A 0.44 0.44 0.0 0 1 181.29 142.18
  L 181.29 135.62
  A 15.96 1.26 90.0 0 1 182.55 119.66
  L 182.75 119.66
  A 15.96 1.26 90.0 0 1 184.01 135.62
  L 184.01 142.18
  A 0.44 0.44 0.0 0 1 183.57 142.62
  L 181.73 142.62
  Z"
/>
<path fill="#ffc639" d="
  M 285.72 127.70
  Q 287.49 128.03 289.40 128.37
  A 0.56 0.56 0.0 0 1 289.84 129.08
  C 289.10 131.65 288.86 134.24 287.14 136.37
  Q 280.34 144.76 273.26 152.93
  Q 272.75 153.51 272.75 152.74
  L 272.75 134.23
  Q 272.75 133.70 273.07 133.28
  L 277.86 126.88
  A 0.93 0.92 17.2 0 1 278.55 126.52
  C 281.15 126.39 283.84 127.36 285.72 127.70
  Z"
/>
<path fill="#e86643" d="
  M 365.93 133.59
  A 0.51 0.51 0.0 0 1 365.25 133.14
  Q 365.04 129.39 368.27 127.83
  A 1.52 1.51 -87.5 0 1 370.23 129.97
  Q 368.67 132.61 365.93 133.59
  Z"
/>
<path fill="#c61a0f" d="
  M 393.29 130.99
  Q 393.63 132.65 392.94 134.20
  A 0.23 0.22 58.0 0 1 392.51 134.10
  L 392.65 128.75
  Q 392.67 128.12 393.26 128.36
  Q 393.54 128.47 393.72 128.73
  Q 393.89 128.98 393.84 129.29
  Q 393.77 129.71 393.50 130.06
  A 1.15 1.13 -32.7 0 0 393.29 130.99
  Z"
/>
<path fill="#ffc639" d="
  M 225.71 154.26
  Q 226.37 153.51 227.43 153.86
  A 0.84 0.84 0.0 0 0 228.30 153.65
  L 230.83 151.06
  Q 231.27 150.61 231.67 151.09
  L 235.86 156.08
  Q 236.16 156.43 236.06 156.88
  L 234.54 163.69
  Q 234.44 164.17 234.52 164.66
  Q 234.75 166.03 233.65 166.96
  Q 233.19 167.35 232.97 167.91
  L 231.03 172.74
  Q 230.80 173.32 230.43 172.81
  L 216.49 153.79
  A 1.18 1.16 -63.7 0 1 216.26 153.09
  L 216.25 133.82
  Q 216.25 132.97 216.80 133.62
  L 229.92 149.07
  A 0.61 0.61 0.0 0 1 229.81 149.96
  C 228.32 151.03 225.73 151.83 225.29 154.05
  Q 225.11 154.94 225.71 154.26
  Z"
/>
<path fill="#ffc639" d="
  M 287.42 187.93
  L 289.69 187.39
  A 0.57 0.57 0.0 0 0 290.12 186.96
  Q 290.53 185.13 291.59 183.60
  A 0.41 0.41 0.0 0 1 292.30 184.00
  Q 291.73 185.31 292.74 186.04
  Q 293.15 186.33 292.86 186.74
  L 289.03 192.04
  A 0.99 0.99 0.0 0 0 289.00 193.16
  Q 289.81 194.40 291.27 194.22
  A 0.46 0.45 -75.0 0 1 291.69 194.95
  Q 288.17 199.52 277.13 213.37
  Q 275.16 215.84 273.60 217.16
  A 0.52 0.51 -20.2 0 1 272.75 216.77
  L 272.75 191.97
  Q 272.75 191.44 273.09 191.04
  L 321.45 134.11
  Q 321.99 133.47 321.99 134.31
  L 322.00 153.51
  A 1.59 1.58 -26.9 0 1 321.69 154.45
  L 299.30 184.81
  Q 298.86 185.40 298.76 184.68
  C 298.23 180.90 299.59 176.43 296.57 173.78
  A 0.77 0.77 0.0 0 1 297.23 172.45
  Q 298.18 172.64 298.68 171.69
  A 0.72 0.71 44.6 0 0 298.67 171.01
  L 296.74 167.49
  Q 296.41 166.91 295.76 167.06
  Q 291.02 168.13 292.27 173.08
  Q 292.42 173.69 293.04 173.71
  L 294.02 173.75
  Q 294.77 173.78 294.30 174.37
  Q 290.56 179.06 289.11 184.90
  A 1.09 1.06 84.2 0 1 288.55 185.61
  Q 287.41 186.18 286.91 187.33
  A 0.44 0.44 0.0 0 0 287.42 187.93
  Z"
/>
<path fill="#ffc639" d="
  M 247.25 163.29
  Q 246.94 153.44 248.65 143.75
  Q 248.74 143.19 248.44 142.72
  Q 246.84 140.25 247.36 137.27
  Q 247.54 136.23 248.22 137.04
  L 265.17 157.28
  A 1.45 1.44 -64.9 0 1 265.50 158.20
  L 265.49 185.78
  Q 265.49 186.56 264.99 185.96
  L 247.13 164.94
  Q 246.84 164.61 247.00 164.19
  C 247.12 163.87 247.26 163.64 247.25 163.29
  Z"
/>
<path fill="#ffa506" d="
  M 416.39 138.77
  Q 416.41 139.64 417.24 140.25
  Q 417.64 140.55 418.74 140.75
  Q 420.79 141.13 422.03 142.86
  Q 422.46 143.45 421.73 143.46
  L 412.28 143.49
  Q 411.67 143.50 411.87 142.91
  L 413.47 138.30
  A 1.50 1.50 0.0 0 1 416.39 138.77
  Z"
/>
<path fill="#e86643" d="
  M 394.74 143.47
  L 392.99 143.47
  Q 392.51 143.47 392.51 142.99
  L 392.51 138.50
  A 0.33 0.32 -75.0 0 1 393.00 138.21
  Q 393.11 138.28 393.23 138.34
  A 0.44 0.43 -74.5 0 1 393.45 138.74
  L 393.38 141.42
  A 0.96 0.96 0.0 0 0 393.80 142.25
  L 395.46 143.36
  Q 395.80 143.59 395.39 143.65
  Q 395.15 143.68 394.98 143.55
  Q 394.88 143.47 394.74 143.47
  Z"
/>
<path fill="#ffc639" d="
  M 239.92 148.51
  L 237.14 152.59
  A 0.32 0.32 0.0 0 1 236.63 152.62
  L 233.91 149.39
  A 0.32 0.32 0.0 0 1 234.00 148.91
  L 238.74 146.10
  A 0.32 0.32 0.0 0 1 239.20 146.26
  L 239.96 148.21
  A 0.32 0.32 0.0 0 1 239.92 148.51
  Z"
/>
<path fill="#2e57bf" d="
  M 419.30 178.79
  Q 422.27 189.01 432.42 192.00
  Q 433.12 192.20 432.59 192.70
  Q 415.15 209.21 391.38 213.53
  Q 391.00 213.60 391.00 213.21
  L 391.00 150.00
  Q 391.00 149.50 391.50 149.50
  L 445.27 149.50
  Q 445.83 149.50 445.89 150.05
  Q 448.56 171.88 435.53 189.15
  Q 435.11 189.70 434.84 189.06
  Q 430.60 179.12 419.53 178.50
  Q 419.21 178.49 419.30 178.79
  Z
  M 420.56 155.81
  A 0.34 0.34 0.0 0 0 420.31 155.25
  L 412.97 155.25
  A 0.34 0.34 0.0 0 0 412.72 155.81
  L 416.38 160.05
  A 0.34 0.34 0.0 0 0 416.90 160.05
  L 420.56 155.81
  Z
  M 419.72 170.96
  C 426.50 169.51 434.10 165.44 434.83 157.83
  Q 434.89 157.24 434.30 157.23
  C 426.24 156.96 420.94 163.24 419.27 170.50
  Q 419.13 171.09 419.72 170.96
  Z
  M 413.10 171.40
  C 411.86 163.48 405.25 159.22 397.64 158.54
  Q 397.00 158.49 397.21 159.09
  C 399.53 165.75 404.78 172.02 412.54 172.06
  A 0.57 0.57 0.0 0 0 413.10 171.40
  Z
  M 436.08 178.35
  A 0.34 0.34 0.0 0 0 436.62 178.07
  L 436.44 171.06
  A 0.34 0.34 0.0 0 0 435.88 170.81
  L 431.60 174.43
  A 0.34 0.34 0.0 0 0 431.61 174.96
  L 436.08 178.35
  Z
  M 396.81 172.01
  A 0.35 0.35 0.0 0 0 396.23 172.28
  L 396.26 179.39
  A 0.35 0.35 0.0 0 0 396.82 179.67
  L 401.15 176.26
  A 0.35 0.35 0.0 0 0 401.16 175.72
  L 396.81 172.01
  Z
  M 397.52 191.23
  Q 397.33 192.07 398.18 191.94
  C 404.77 190.97 411.12 186.58 412.90 179.74
  A 1.30 1.30 0.0 0 0 411.44 178.13
  Q 400.05 179.93 397.52 191.23
  Z
  M 412.66 194.07
  A 0.34 0.34 0.0 0 0 412.94 194.63
  L 420.44 194.32
  A 0.34 0.34 0.0 0 0 420.67 193.74
  L 416.74 189.77
  A 0.34 0.34 0.0 0 0 416.24 189.80
  L 412.66 194.07
  Z"
/>
<path fill="#589abf" d="
  M 148.61 150.16
  C 149.08 188.26 121.81 212.16 85.32 214.55
  Q 84.75 214.58 84.75 214.02
  L 84.75 150.25
  Q 84.75 149.75 85.25 149.75
  L 148.20 149.75
  Q 148.61 149.75 148.61 150.16
  Z
  M 125.09 178.32
  A 11.51 11.51 0.0 0 0 113.58 166.81
  A 11.51 11.51 0.0 0 0 102.07 178.32
  A 11.51 11.51 0.0 0 0 113.58 189.83
  A 11.51 11.51 0.0 0 0 125.09 178.32
  Z"
/>
<path fill="#2e57bf" d="
  M 165.10 149.75
  L 179.89 149.75
  A 0.33 0.33 0.0 0 1 180.15 150.28
  L 176.79 154.62
  A 0.33 0.33 0.0 0 1 176.53 154.75
  L 168.58 154.74
  A 0.33 0.33 0.0 0 1 168.32 154.62
  L 164.84 150.29
  A 0.33 0.33 0.0 0 1 165.10 149.75
  Z"
/>
<path fill="#2e57bf" d="
  M 189.77 149.75
  L 204.37 149.75
  A 0.30 0.30 0.0 0 1 204.60 150.24
  L 201.11 154.64
  A 0.30 0.30 0.0 0 1 200.87 154.75
  L 193.34 154.73
  A 0.30 0.30 0.0 0 1 193.11 154.62
  L 189.54 150.24
  A 0.30 0.30 0.0 0 1 189.77 149.75
  Z"
/>
<path fill="#2e57bf" d="
  M 162.23 159.72
  Q 165.76 160.98 167.25 164.45
  Q 167.42 164.86 167.25 165.28
  Q 164.81 171.20 158.20 169.53
  Q 157.75 169.42 157.75 168.97
  L 157.75 151.03
  Q 157.75 150.57 158.20 150.45
  Q 164.84 148.75 167.38 154.77
  Q 167.57 155.21 167.30 155.59
  Q 165.31 158.41 164.55 159.08
  Q 163.70 159.83 162.25 159.65
  A 0.04 0.04 0.0 0 0 162.23 159.72
  Z"
/>
<path fill="#2e57bf" d="
  M 187.03 159.62
  Q 190.52 161.15 192.10 164.46
  Q 192.33 164.95 192.08 165.43
  Q 188.87 171.62 181.52 169.42
  Q 179.52 168.82 177.82 164.95
  Q 177.59 164.44 177.96 164.02
  L 181.31 160.15
  Q 181.44 160.00 181.31 159.85
  L 177.73 155.59
  A 0.87 0.86 -46.5 0 1 177.71 154.50
  L 180.70 150.65
  A 1.04 1.03 18.7 0 1 181.52 150.25
  L 188.16 150.25
  Q 188.71 150.25 189.06 150.67
  L 192.23 154.43
  A 0.81 0.81 0.0 0 1 192.24 155.46
  L 189.17 159.23
  A 1.14 1.13 -67.6 0 1 188.20 159.64
  L 187.05 159.53
  A 0.05 0.05 0.0 0 0 187.03 159.62
  Z"
/>
<path fill="#2e57bf" d="
  M 205.39 159.47
  L 201.87 155.39
  A 0.61 0.61 0.0 0 1 201.86 154.60
  L 205.41 150.38
  A 0.61 0.61 0.0 0 1 206.49 150.77
  L 206.49 168.96
  A 0.61 0.61 0.0 0 1 205.42 169.37
  L 201.85 165.33
  A 0.61 0.61 0.0 0 1 201.84 164.54
  L 205.40 160.26
  A 0.61 0.61 0.0 0 0 205.39 159.47
  Z"
/>
<path fill="#589abf" d="
  M 354.56 194.40
  Q 354.10 194.87 354.01 195.49
  Q 353.95 195.89 353.60 196.06
  L 347.89 198.80
  A 1.47 1.46 76.5 0 1 345.79 197.51
  Q 345.74 195.39 345.77 192.92
  Q 345.78 192.20 346.46 189.15
  C 347.07 186.44 345.48 184.06 345.17 181.98
  Q 344.49 177.28 344.73 172.54
  Q 344.85 170.06 344.09 168.06
  Q 342.26 163.29 340.17 158.67
  Q 339.89 158.05 339.61 158.66
  Q 337.25 163.69 335.51 168.90
  Q 334.89 170.74 335.16 173.15
  Q 335.94 180.23 333.34 186.89
  Q 333.15 187.36 333.26 187.86
  C 333.72 189.95 334.27 191.62 334.24 193.77
  Q 334.14 200.36 334.29 206.94
  Q 334.30 207.42 333.93 207.74
  Q 332.85 208.65 333.94 209.62
  A 0.90 0.86 -70.3 0 1 334.24 210.29
  L 334.25 213.50
  Q 334.25 214.00 333.75 214.00
  L 329.75 213.99
  Q 329.25 213.99 329.25 213.50
  L 329.26 150.75
  Q 329.26 150.25 329.75 150.25
  L 379.25 150.25
  Q 379.75 150.25 379.75 150.75
  L 379.75 213.50
  Q 379.75 214.00 379.25 214.00
  L 375.25 214.00
  Q 374.75 214.00 374.75 213.50
  L 374.75 210.53
  Q 374.75 210.00 375.11 209.61
  Q 376.10 208.54 375.08 207.71
  A 0.94 0.93 20.3 0 1 374.75 207.00
  L 374.85 191.22
  Q 374.86 190.70 375.13 190.25
  C 376.91 187.36 375.07 185.55 374.65 183.26
  Q 373.68 177.91 373.98 172.47
  C 374.22 168.19 371.08 162.41 369.35 158.51
  Q 369.07 157.89 368.81 158.51
  Q 366.72 163.36 364.89 168.26
  Q 364.21 170.09 364.43 172.34
  Q 365.16 179.86 362.62 187.00
  Q 362.45 187.47 362.58 187.95
  Q 364.02 193.52 363.20 199.24
  Q 363.15 199.64 362.79 199.46
  L 355.49 196.00
  Q 355.01 195.77 355.02 195.23
  L 355.03 194.59
  Q 355.05 193.90 354.56 194.40
  Z
  M 354.41 192.16
  Q 354.89 191.88 355.33 191.51
  A 0.81 0.51 -6.2 0 0 354.11 190.92
  Q 353.57 191.32 354.16 192.11
  Q 354.27 192.25 354.41 192.16
  Z"
/>
<path fill="#2e57bf" d="
  M 19.55 189.64
  L 24.86 184.86
  Q 25.26 184.50 24.84 184.16
  L 22.17 182.09
  Q 21.56 181.61 22.00 180.97
  L 25.98 175.22
  Q 26.34 174.70 26.84 175.07
  Q 32.64 179.28 39.82 179.93
  Q 40.35 179.97 40.18 179.47
  Q 37.98 173.02 33.44 167.95
  Q 33.06 167.53 33.50 167.17
  L 39.37 162.51
  Q 39.86 162.11 40.29 162.58
  L 43.07 165.59
  Q 43.43 165.98 43.75 165.56
  L 48.21 159.80
  Q 48.76 159.10 47.88 159.18
  L 45.61 159.39
  Q 45.24 159.42 45.38 159.08
  Q 45.45 158.92 45.61 158.84
  Q 59.64 151.49 75.51 151.05
  Q 76.00 151.03 76.00 151.52
  L 76.00 213.00
  Q 76.00 213.50 75.50 213.50
  L 11.48 213.50
  Q 10.93 213.50 11.00 212.95
  Q 12.84 199.99 18.18 188.06
  Q 18.48 187.40 18.63 188.11
  L 18.91 189.43
  Q 19.06 190.09 19.55 189.64
  Z
  M 66.46 162.34
  C 58.21 164.34 48.02 169.57 47.75 179.44
  Q 47.74 179.90 48.20 179.92
  C 58.55 180.36 65.06 171.86 66.84 162.70
  A 0.31 0.31 0.0 0 0 66.46 162.34
  Z
  M 67.37 187.99
  A 0.34 0.34 0.0 0 0 67.94 187.74
  L 68.24 178.23
  A 0.34 0.34 0.0 0 0 67.69 177.95
  L 61.90 182.53
  A 0.34 0.34 0.0 0 0 61.88 183.05
  L 67.37 187.99
  Z
  M 66.80 204.57
  C 64.73 196.87 57.07 186.64 47.94 188.11
  Q 47.41 188.19 47.47 188.73
  C 48.63 198.64 57.07 204.26 66.42 205.03
  Q 66.93 205.07 66.80 204.57
  Z
  M 39.98 189.49
  Q 40.05 189.16 39.72 189.22
  C 31.64 190.60 20.89 196.72 21.02 206.24
  Q 21.02 206.70 21.48 206.71
  C 31.92 206.98 38.00 198.72 39.98 189.49
  Z
  M 38.02 208.75
  A 0.31 0.31 0.0 0 0 38.26 209.26
  L 47.99 209.24
  A 0.31 0.31 0.0 0 0 48.22 208.73
  L 43.35 202.97
  A 0.31 0.31 0.0 0 0 42.88 202.97
  L 38.02 208.75
  Z"
/>
<path fill="#2e57bf" d="
  M 166.09 158.87
  Q 167.24 157.02 168.94 155.57
  Q 169.32 155.25 169.80 155.25
  L 176.21 155.27
  A 1.28 1.26 -19.3 0 1 177.20 155.74
  L 180.13 159.40
  A 0.79 0.78 42.1 0 1 180.18 160.31
  Q 179.23 161.82 178.09 163.13
  C 176.09 165.41 172.28 164.98 169.59 164.61
  Q 169.09 164.54 168.74 164.17
  C 167.59 162.98 165.00 160.63 166.09 158.87
  Z"
/>
<path fill="#2e57bf" d="
  M 192.05 163.18
  Q 191.06 161.85 189.93 160.38
  A 0.68 0.67 44.7 0 1 189.92 159.56
  L 192.85 155.67
  A 1.00 1.00 0.0 0 1 193.65 155.27
  L 200.71 155.25
  A 0.98 0.96 -19.0 0 1 201.47 155.61
  L 204.56 159.49
  Q 204.93 159.95 204.55 160.40
  L 201.12 164.48
  A 0.78 0.73 -68.4 0 1 200.52 164.76
  C 197.96 164.72 193.77 165.51 192.05 163.18
  Z"
/>
<path fill="#2e57bf" d="
  M 168.60 165.24
  L 176.61 165.27
  A 0.35 0.35 0.0 0 1 176.88 165.40
  L 180.62 169.99
  A 0.35 0.35 0.0 0 1 180.61 170.44
  L 176.80 174.92
  A 0.35 0.35 0.0 0 1 176.54 175.04
  L 168.48 175.18
  A 0.35 0.35 0.0 0 1 168.21 175.06
  L 164.37 170.65
  A 0.35 0.35 0.0 0 1 164.37 170.20
  L 168.32 165.37
  A 0.35 0.35 0.0 0 1 168.60 165.24
  Z"
/>
<path fill="#ffc639" d="
  M 240.19 179.05
  L 243.82 180.77
  A 0.57 0.57 0.0 0 0 244.47 179.86
  L 242.15 177.49
  A 0.90 0.89 28.1 0 1 241.91 176.71
  L 243.73 165.98
  Q 243.82 165.43 244.18 165.85
  L 265.16 190.56
  Q 265.50 190.96 265.50 191.48
  L 265.49 215.01
  Q 265.49 218.28 263.42 215.75
  Q 247.45 196.17 232.65 175.68
  A 1.44 1.43 43.3 0 1 232.60 174.07
  L 238.32 165.09
  A 1.13 1.13 0.0 0 1 240.40 165.76
  L 239.74 178.30
  Q 239.71 178.83 240.19 179.05
  Z"
/>
<path fill="#2e57bf" d="
  M 189.34 169.93
  L 193.07 165.44
  A 0.51 0.51 0.0 0 1 193.46 165.26
  L 200.67 165.25
  A 0.51 0.51 0.0 0 1 201.05 165.43
  L 204.87 169.80
  A 0.51 0.51 0.0 0 1 204.87 170.46
  L 201.20 174.90
  A 0.51 0.51 0.0 0 1 200.81 175.08
  L 193.35 175.11
  A 0.51 0.51 0.0 0 1 192.96 174.93
  L 189.34 170.59
  A 0.51 0.51 0.0 0 1 189.34 169.93
  Z"
/>
<path fill="#2e57bf" d="
  M 159.01 180.60
  Q 165.01 179.77 167.17 184.96
  Q 167.37 185.44 167.18 185.92
  Q 164.86 191.82 158.26 189.98
  Q 157.76 189.84 157.76 189.32
  L 157.75 171.28
  Q 157.75 170.84 158.19 170.74
  Q 164.91 169.26 167.35 175.54
  Q 167.55 176.05 167.21 176.49
  L 164.67 179.75
  A 1.16 1.16 0.0 0 1 163.78 180.19
  Q 161.34 180.22 159.01 180.60
  Q 158.80 180.63 159.01 180.60
  Z"
/>
<path fill="#2e57bf" d="
  M 187.93 180.25
  L 182.00 180.29
  A 1.73 1.73 0.0 0 1 180.63 179.63
  L 178.16 176.47
  A 1.73 1.73 0.0 0 1 178.17 174.32
  L 180.46 171.46
  A 1.73 1.73 0.0 0 1 181.80 170.80
  L 187.97 170.76
  A 1.73 1.73 0.0 0 1 189.33 171.41
  L 191.74 174.41
  A 1.73 1.73 0.0 0 1 191.73 176.58
  L 189.25 179.61
  A 1.73 1.73 0.0 0 1 187.93 180.25
  Z"
/>
<path fill="#2e57bf" d="
  M 205.28 179.98
  L 201.94 175.88
  A 0.66 0.66 0.0 0 1 201.93 175.05
  L 205.32 170.85
  A 0.66 0.66 0.0 0 1 206.49 171.26
  L 206.49 189.56
  A 0.66 0.66 0.0 0 1 205.32 189.98
  L 201.92 185.78
  A 0.66 0.66 0.0 0 1 201.92 184.94
  L 205.28 180.82
  A 0.66 0.66 0.0 0 0 205.28 179.98
  Z"
/>
<circle fill="#589abf" cx="113.59" cy="178.32" r="6.68"/>
<ellipse fill="#589abf" cx="0.00" cy="0.00" transform="translate(369.29,175.99) rotate(89.8)" rx="2.33" ry="1.98"/>
<ellipse fill="#589abf" cx="0.00" cy="0.00" transform="translate(339.89,176.85) rotate(100.0)" rx="2.54" ry="2.37"/>
<path fill="#2e57bf" d="
  M 177.66 176.68
  C 178.33 177.36 179.72 179.23 180.06 180.37
  A 1.11 1.10 -33.4 0 1 179.84 181.40
  L 177.08 184.65
  A 1.17 1.15 -70.1 0 1 176.22 185.06
  L 169.60 185.12
  Q 168.99 185.13 168.62 184.66
  L 165.80 181.11
  A 0.89 0.89 0.0 0 1 165.70 180.15
  C 166.82 177.89 168.18 175.93 170.98 175.79
  C 172.74 175.71 176.22 175.22 177.66 176.68
  Z"
/>
<path fill="#2e57bf" d="
  M 204.06 181.43
  L 201.51 184.51
  A 1.56 1.56 0.0 0 1 200.32 185.07
  L 194.05 185.11
  A 1.56 1.56 0.0 0 1 192.82 184.52
  L 190.31 181.36
  A 1.56 1.56 0.0 0 1 190.31 179.42
  L 192.75 176.33
  A 1.56 1.56 0.0 0 1 193.98 175.74
  L 200.53 175.79
  A 1.56 1.56 0.0 0 1 201.76 176.41
  L 204.10 179.49
  A 1.56 1.56 0.0 0 1 204.06 181.43
  Z"
/>
<path fill="#2e57bf" d="
  M 181.26 180.89
  C 186.92 180.38 189.57 179.82 192.20 185.26
  Q 192.45 185.79 192.07 186.23
  L 189.13 189.61
  Q 188.75 190.05 188.17 190.05
  L 181.83 190.14
  Q 181.20 190.15 180.79 189.65
  L 177.78 185.93
  A 0.91 0.91 0.0 0 1 177.78 184.79
  L 180.63 181.22
  Q 180.87 180.92 181.26 180.89
  Z"
/>
<path fill="#2e57bf" d="
  M 168.83 185.75
  L 176.47 185.76
  A 0.68 0.68 0.0 0 1 177.00 186.02
  L 180.21 190.03
  A 0.68 0.68 0.0 0 1 180.20 190.89
  L 177.02 194.80
  A 0.68 0.68 0.0 0 1 176.51 195.05
  L 168.38 195.21
  A 0.68 0.68 0.0 0 1 167.84 194.97
  L 164.77 191.24
  A 0.68 0.68 0.0 0 1 164.77 190.38
  L 168.30 186.00
  A 0.68 0.68 0.0 0 1 168.83 185.75
  Z"
/>
<path fill="#2e57bf" d="
  M 204.30 190.56
  C 202.22 195.36 198.22 195.66 193.53 195.16
  Q 193.03 195.11 192.72 194.73
  L 189.64 190.86
  Q 189.35 190.50 189.65 190.14
  L 192.83 186.21
  A 1.25 1.23 19.4 0 1 193.79 185.76
  L 200.47 185.75
  A 1.34 1.33 -19.0 0 1 201.52 186.26
  L 204.19 189.65
  Q 204.51 190.07 204.30 190.56
  Z"
/>
<path fill="#2e57bf" d="
  M 186.66 190.85
  C 189.10 190.09 191.09 193.43 192.08 194.92
  Q 192.45 195.48 192.04 196.00
  L 189.18 199.64
  Q 188.84 200.08 188.29 200.09
  L 181.47 200.16
  A 0.84 0.83 69.0 0 1 180.81 199.86
  L 178.03 196.53
  Q 177.65 196.07 177.84 195.51
  Q 179.84 189.58 186.14 190.88
  A 1.11 1.04 -46.7 0 0 186.66 190.85
  Z"
/>
<path fill="#2e57bf" d="
  M 205.29 199.76
  L 201.97 195.62
  A 0.66 0.66 0.0 0 1 201.97 194.80
  L 205.32 190.62
  A 0.66 0.66 0.0 0 1 206.49 191.03
  L 206.50 209.16
  A 0.66 0.66 0.0 0 1 205.34 209.59
  L 201.93 205.58
  A 0.66 0.66 0.0 0 1 201.92 204.73
  L 205.29 200.58
  A 0.66 0.66 0.0 0 0 205.29 199.76
  Z"
/>
<path fill="#2e57bf" d="
  M 162.20 200.83
  Q 165.68 201.77 167.23 205.33
  A 1.15 1.14 -46.5 0 1 167.25 206.18
  Q 166.09 209.37 162.99 210.61
  Q 162.50 210.80 163.03 210.80
  L 164.42 210.79
  A 0.80 0.80 0.0 0 0 165.06 210.47
  L 168.40 206.12
  Q 168.70 205.74 169.19 205.74
  L 176.23 205.78
  A 1.23 1.23 0.0 0 1 177.19 206.24
  L 180.50 210.36
  A 1.07 1.06 70.6 0 0 181.33 210.76
  L 188.63 210.74
  A 1.00 0.98 -69.7 0 0 189.39 210.38
  L 193.04 206.02
  Q 193.32 205.68 193.77 205.68
  L 200.26 205.70
  A 2.40 2.38 74.7 0 1 202.29 206.87
  Q 203.67 209.22 205.99 210.65
  Q 206.50 210.96 206.50 211.56
  L 206.50 214.00
  Q 206.49 214.50 206.00 214.50
  L 158.25 214.50
  Q 157.76 214.50 157.76 214.00
  L 157.75 192.18
  Q 157.75 191.58 158.33 191.44
  Q 164.85 189.79 167.37 195.73
  A 1.07 1.05 -37.5 0 1 167.22 196.81
  L 164.50 200.17
  A 1.07 1.01 17.3 0 1 163.73 200.55
  L 162.22 200.60
  A 0.12 0.11 51.0 0 0 162.20 200.83
  Z"
/>
<path fill="#2e57bf" d="
  M 204.40 200.43
  C 203.48 202.18 201.95 204.39 199.98 204.91
  Q 192.90 206.79 190.07 200.46
  Q 189.82 199.91 190.21 199.45
  L 192.87 196.23
  A 1.23 1.23 0.0 0 1 193.80 195.78
  L 200.89 195.64
  A 0.97 0.97 0.0 0 1 201.68 196.02
  L 204.34 199.55
  Q 204.65 199.97 204.40 200.43
  Z"
/>
<path fill="#2e57bf" d="
  M 179.53 201.89
  C 178.03 203.76 177.46 205.21 174.68 205.11
  Q 172.12 205.03 169.55 205.16
  A 1.06 1.06 0.0 0 1 168.67 204.77
  L 165.82 201.25
  A 0.97 0.96 39.4 0 1 165.71 200.21
  Q 166.51 198.60 167.65 197.29
  C 169.59 195.07 173.80 195.54 176.41 195.90
  Q 176.91 195.97 177.23 196.36
  C 178.41 197.77 181.06 199.96 179.53 201.89
  Z"
/>
<path fill="#2e57bf" d="
  M 180.14 201.89
  Q 181.05 200.76 182.50 200.76
  L 188.41 200.77
  A 1.17 1.16 70.7 0 1 189.32 201.21
  L 192.09 204.72
  A 0.89 0.89 0.0 0 1 192.19 205.64
  C 189.70 210.98 186.62 210.23 181.65 210.11
  A 1.20 1.18 70.8 0 1 180.75 209.67
  L 177.83 206.03
  A 0.99 0.98 -45.3 0 1 177.83 204.80
  L 180.14 201.89
  Z"
/>
</svg>
