<?xml version="1.0" encoding="UTF-8" standalone="no"?>
<!DOCTYPE svg PUBLIC "-//W3C//DTD SVG 1.1//EN" "http://www.w3.org/Graphics/SVG/1.1/DTD/svg11.dtd">
<svg xmlns="http://www.w3.org/2000/svg" version="1.1" viewBox="0.00 0.00 524.00 485.00">
<path fill="#0b662b" d="
  M 507.0896 243.8587
  A 245.61 233.56 0.1 0 1 261.0724 476.9896
  A 245.61 233.56 0.1 0 1 15.8704 243.0013
  A 245.61 233.56 0.1 0 1 261.8876 9.8704
  A 245.61 233.56 0.1 0 1 507.0896 243.8587
  Z
  M 331.82 134.92
  A 0.36 0.36 0.0 0 1 332.37 135.39
  C 317.99 155.74 299.54 172.63 276.67 182.89
  C 246.21 196.54 214.95 205.64 181.21 203.28
  Q 172.03 202.64 169.29 203.18
  C 151.02 206.82 143.75 231.73 142.75 247.26
  C 141.68 263.87 144.76 280.78 148.27 297.62
  A 0.58 0.58 0.0 0 0 149.37 297.75
  C 149.82 296.79 150.48 295.74 150.82 294.74
  C 158.69 271.57 175.10 246.73 197.71 236.56
  C 202.98 234.19 208.09 234.08 213.77 233.92
  C 229.80 233.50 244.85 231.73 261.99 228.98
  C 291.76 224.21 316.48 210.12 335.08 186.99
  C 355.50 161.60 364.66 129.97 372.10 98.77
  Q 374.40 89.13 374.99 79.48
  A 0.55 0.55 0.0 0 0 374.10 79.01
  Q 354.85 94.08 331.17 98.44
  Q 325.65 99.46 311.27 100.18
  Q 281.91 101.65 257.51 106.53
  C 215.10 115.01 178.12 135.11 170.45 181.98
  A 1.87 1.86 -81.2 0 0 172.02 184.13
  C 189.88 186.66 208.22 188.03 226.40 185.48
  C 242.61 183.20 258.38 179.26 273.22 172.25
  C 293.64 162.59 315.39 150.58 331.82 134.92
  Z
  M 220.56 242.94
  C 217.11 240.53 213.14 241.24 209.29 243.13
  C 180.80 257.14 161.70 286.28 161.71 318.31
  Q 161.73 347.69 161.78 377.07
  Q 161.80 387.22 163.20 392.43
  C 169.51 415.85 196.30 426.93 217.93 428.92
  Q 219.24 429.04 219.24 427.73
  L 219.25 323.99
  A 1.47 1.47 0.0 0 1 220.72 322.52
  Q 242.57 322.46 264.77 322.53
  C 266.69 322.54 271.79 323.12 273.45 322.46
  C 299.35 312.13 316.66 289.96 314.33 261.08
  A 0.61 0.61 0.0 0 0 313.72 260.52
  L 223.73 260.17
  A 1.24 1.23 0.5 0 1 222.50 258.93
  C 222.52 255.52 223.51 244.99 220.56 242.94
  Z"
/>
</svg>
