<?xml version="1.0" standalone="no"?>
<!DOCTYPE svg PUBLIC "-//W3C//DTD SVG 20010904//EN"
 "http://www.w3.org/TR/2001/REC-SVG-20010904/DTD/svg10.dtd">
<svg version="1.0" xmlns="http://www.w3.org/2000/svg"
 width="480.765817pt" height="381.923900pt" viewBox="0 0 480.765817 381.923900"
 preserveAspectRatio="xMidYMid meet">
<metadata>
Created by potrace 1.12, written by Peter Selinger 2001-2015
</metadata>
<g transform="translate(-35.558617,395.978447) scale(0.100000,-0.100000)"
fill="#000000" stroke="none">
<path d="M2648 3924 c-59 -20 -105 -40 -102 -45 3 -5 -2 -6 -10 -3 -17 7 -203
-88 -281 -143 -27 -20 -88 -75 -135 -122 -67 -67 -95 -106 -132 -177 -66 -131
-81 -209 -76 -400 4 -149 3 -155 -17 -159 -11 -2 -94 -6 -185 -9 -601 -18
-1162 -316 -1304 -694 -45 -120 -50 -153 -50 -297 -1 -121 3 -155 28 -250 66
-259 187 -483 365 -676 l61 -67 -30 -41 c-17 -22 -30 -43 -30 -45 0 -3 -15
-31 -34 -63 -74 -124 -105 -278 -76 -370 50 -156 343 -233 834 -220 280 7 494
39 646 94 102 37 308 198 295 230 -2 8 0 11 5 8 15 -9 68 82 91 155 21 68 42
222 37 268 -2 20 -8 9 -21 -40 -27 -105 -120 -290 -157 -313 -6 -4 -8 -16 -5
-28 4 -14 3 -17 -2 -9 -7 9 -17 4 -39 -19 -122 -130 -317 -221 -532 -248 -151
-19 -468 -34 -606 -28 -272 12 -402 60 -448 165 -44 98 -1 262 101 390 40 50
43 52 59 35 34 -34 239 -181 322 -230 123 -74 267 -144 406 -196 150 -57 204
-65 274 -42 94 31 138 91 193 265 43 132 129 310 205 422 54 80 61 94 40 82
-8 -4 -10 -3 -5 2 5 5 12 9 16 9 4 0 64 53 132 118 l124 117 -79 -35 c-251
-114 -383 -276 -501 -618 -53 -154 -85 -211 -141 -253 -33 -25 -46 -29 -103
-28 -58 0 -77 6 -160 48 -52 26 -130 70 -174 97 -43 27 -80 49 -82 49 -2 0
-57 37 -122 81 -274 190 -488 386 -595 549 -91 139 -185 387 -208 554 -30 217
27 384 189 547 307 309 970 509 1352 409 303 -79 477 -291 528 -645 8 -54 9
-47 10 65 0 69 -4 154 -9 190 -13 93 -48 202 -62 194 -7 -4 -8 -3 -4 4 11 19
-44 110 -99 164 -75 74 -178 119 -327 143 -36 6 -37 7 -44 62 -11 94 2 230 30
310 60 167 159 297 356 468 25 22 44 43 42 48 -1 5 2 6 8 2 5 -3 29 7 52 23
59 40 160 93 240 126 l67 28 117 -56 c163 -78 271 -153 393 -271 150 -145 232
-272 271 -421 20 -78 26 -181 14 -267 l-6 -45 -62 -7 c-238 -26 -398 -162
-464 -390 -33 -115 -48 -263 -36 -359 l8 -61 8 59 c23 173 92 336 186 441 47
53 149 127 210 153 112 49 198 64 352 65 257 2 502 -59 777 -194 221 -108 353
-211 441 -343 74 -110 94 -176 99 -326 4 -109 1 -137 -20 -220 -30 -117 -106
-312 -153 -398 -123 -219 -434 -490 -854 -742 -269 -162 -346 -175 -445 -77
-30 31 -58 70 -68 97 -9 25 -32 92 -53 150 -43 124 -84 215 -132 290 -41 65
-139 169 -202 215 -40 29 -219 125 -234 125 -3 0 47 -49 110 -110 194 -182
304 -362 403 -655 45 -135 77 -187 141 -229 39 -26 54 -30 115 -31 59 0 89 7
190 45 113 42 368 164 431 207 16 11 61 40 99 66 39 25 106 75 150 111 l80 65
31 -36 c67 -77 134 -230 134 -308 0 -96 -73 -190 -172 -220 -119 -36 -244 -47
-448 -41 -253 8 -456 23 -550 42 -206 43 -392 160 -506 320 -54 75 -119 211
-139 290 l-15 59 4 -106 c9 -218 94 -372 276 -501 78 -55 130 -79 230 -107
286 -79 808 -94 1100 -31 170 37 247 81 286 164 53 114 11 286 -117 479 -38
58 -46 77 -31 77 13 0 149 164 207 250 102 153 174 319 217 504 28 125 28 319
0 427 -98 369 -470 639 -1037 754 -94 19 -319 41 -422 40 l-73 0 8 55 c11 82
7 258 -6 319 -56 250 -244 460 -530 593 -90 42 -294 118 -315 118 -7 0 -60
-17 -119 -36z"/>
<path d="M1980 2673 c0 -3 16 -45 36 -94 61 -152 200 -400 301 -539 81 -112
96 -129 106 -123 6 3 7 1 3 -5 -4 -7 18 -43 50 -84 32 -40 59 -75 60 -77 2 -2
11 2 20 10 22 18 44 20 37 3 -5 -13 -17 -18 -35 -15 -16 2 -7 -13 44 -73 59
-68 69 -77 80 -70 4 3 5 -1 3 -8 -3 -7 15 -34 41 -58 l46 -45 44 48 c24 27 42
53 38 58 -3 5 1 7 8 5 7 -3 38 25 69 62 286 341 479 642 594 925 34 82 33 88
-8 75 -30 -9 -40 -22 -83 -111 -80 -165 -260 -455 -379 -611 -14 -18 -22 -36
-17 -40 4 -4 2 -6 -5 -4 -15 4 -64 -62 -56 -75 3 -6 2 -7 -3 -4 -6 3 -30 -19
-54 -50 -69 -85 -143 -168 -152 -168 -4 0 -44 43 -89 95 -45 52 -86 94 -91 92
-5 -1 -7 2 -4 7 3 5 -19 41 -50 81 -31 39 -90 120 -131 178 -41 59 -80 106
-85 104 -5 -1 -7 2 -3 7 3 6 -25 59 -62 118 -38 60 -97 168 -133 240 -62 126
-67 132 -102 141 -21 6 -38 8 -38 5z"/>
</g>
</svg>
