<?xml version="1.0" encoding="UTF-8" standalone="no"?>
<!DOCTYPE svg PUBLIC "-//W3C//DTD SVG 1.1//EN" "http://www.w3.org/Graphics/SVG/1.1/DTD/svg11.dtd">
<svg xmlns="http://www.w3.org/2000/svg" version="1.1" viewBox="0.00 0.00 99.00 75.00">
<path stroke="#86326f" stroke-width="2.00" fill="none" stroke-linecap="butt" vector-effect="non-scaling-stroke" d="
  M 65.73 22.58
  L 64.53 22.58"
/>
<path fill="#8c3777" fill-opacity="0.996" d="
  M 65.73 22.58
  L 64.53 22.58
  C 65.92 13.99 58.81 7.19 51.54 4.22
  Q 50.47 3.78 49.32 4.20
  C 41.84 6.96 34.75 13.65 36.14 22.20
  Q 36.21 22.68 36.69 22.73
  C 44.22 23.66 46.58 30.48 45.80 37.09
  A 0.22 0.22 0.0 0 1 45.36 37.09
  C 43.89 23.32 30.75 22.46 20.50 26.92
  C -6.54 38.71 15.89 60.31 30.94 67.07
  C 35.09 68.93 36.59 62.88 37.53 60.26
  Q 40.04 53.30 46.70 50.55
  A 0.23 0.23 0.0 0 1 46.94 50.94
  Q 40.26 56.88 37.66 65.24
  C 34.85 74.30 20.69 64.06 16.68 60.60
  A 0.60 0.60 0.0 0 0 15.87 60.62
  C 12.61 63.76 11.59 69.82 17.71 70.56
  C 28.82 71.89 42.07 71.92 46.04 58.76
  A 0.22 0.22 0.0 0 1 46.47 58.83
  C 45.79 74.03 26.96 73.81 16.41 71.60
  C 8.70 69.99 11.47 63.67 14.40 59.21
  Q 14.71 58.75 14.31 58.36
  C 7.73 51.77 2.98 39.85 9.37 31.89
  C 14.75 25.18 25.56 22.35 33.87 22.78
  A 0.82 0.82 0.0 0 0 34.72 21.84
  C 33.40 12.61 38.99 6.81 47.03 3.81
  Q 49.71 2.81 52.11 3.45
  C 61.40 5.95 67.16 12.73 65.73 22.58
  Z"
/>
<path fill="#802e67" d="
  M 64.53 22.58
  L 65.73 22.58
  C 78.27 22.19 95.57 28.05 93.68 43.48
  Q 92.68 51.56 85.94 58.30
  Q 85.56 58.69 85.83 59.15
  C 88.48 63.62 91.81 69.90 83.94 71.62
  C 73.66 73.87 54.02 74.03 53.85 58.79
  A 0.23 0.23 0.0 0 1 54.31 58.73
  C 57.36 71.27 69.60 71.35 80.00 70.92
  C 87.17 70.61 89.11 66.38 84.75 60.87
  Q 84.19 60.16 83.49 60.74
  C 80.19 63.47 65.78 73.81 62.91 66.26
  C 60.68 60.39 58.50 55.15 53.34 51.21
  A 0.33 0.33 0.0 0 1 53.66 50.64
  C 59.58 53.02 61.68 57.32 63.82 63.01
  C 65.12 66.47 66.59 68.75 70.52 66.54
  C 80.08 61.17 89.86 54.83 91.91 43.66
  C 93.59 34.53 87.14 29.93 79.42 26.82
  C 69.55 22.86 56.09 23.20 54.77 37.03
  Q 54.73 37.46 54.37 37.22
  Q 53.95 36.93 54.03 36.22
  C 54.84 28.89 55.98 23.47 64.53 22.58
  Z"
/>
<path fill="#8c3777" fill-opacity="0.996" d="
  M 49.86 45.26
  A 0.56 0.56 0.0 0 0 50.70 45.27
  Q 57.77 37.42 62.55 27.79
  Q 63.08 26.72 63.88 26.36
  A 0.43 0.42 88.9 0 1 64.45 26.91
  Q 59.57 38.50 50.70 47.44
  Q 50.28 47.86 49.87 47.44
  Q 41.02 38.49 36.06 26.94
  A 0.53 0.52 87.1 0 1 36.70 26.23
  Q 37.18 26.38 37.49 26.98
  Q 42.66 36.89 49.86 45.26
  Z"
/>
</svg>
