<?xml version="1.0" encoding="UTF-8" standalone="no"?>
<!DOCTYPE svg PUBLIC "-//W3C//DTD SVG 1.1//EN" "http://www.w3.org/Graphics/SVG/1.1/DTD/svg11.dtd">
<svg xmlns="http://www.w3.org/2000/svg" version="1.1" viewBox="0.00 0.00 451.00 413.00">
<g stroke-width="2.00" fill="none" stroke-linecap="butt">
<path stroke="#637f76" vector-effect="non-scaling-stroke" d="
  M 256.06 31.89
  Q 230.57 28.10 205.30 29.52"
/>
<path stroke="#637f76" vector-effect="non-scaling-stroke" d="
  M 258.73 32.62
  C 342.13 48.09 410.59 113.80 415.70 200.97"
/>
<path stroke="#637f76" vector-effect="non-scaling-stroke" d="
  M 414.91 227.99
  C 404.31 317.90 326.79 381.03 240.00 388.99
  Q 194.31 393.18 153.07 379.15
  C 77.06 353.29 19.18 283.31 24.33 200.27
  C 29.61 115.03 95.98 49.99 177.53 33.36"
/>
<path stroke="#a49aad" vector-effect="non-scaling-stroke" d="
  M 167.65 138.26
  Q 163.74 115.56 178.32 97.54
  Q 192.27 80.31 211.68 71.08
  C 217.28 68.41 221.51 67.40 226.93 70.07
  C 252.31 82.63 278.50 105.20 273.39 136.79
  Q 273.31 137.28 272.95 137.62
  C 270.80 139.63 262.53 140.42 261.48 140.74
  C 239.71 147.33 234.16 170.09 235.24 190.96
  C 235.30 192.02 234.98 193.93 235.61 195.26
  A 0.46 0.46 0.0 0 0 236.49 195.11
  C 239.49 167.27 255.95 145.60 286.00 145.99
  Q 322.89 146.47 354.06 167.18
  Q 384.45 187.36 373.63 223.92
  C 366.20 249.03 352.96 263.30 332.93 278.48
  Q 315.78 291.47 294.76 302.97
  C 279.32 311.43 273.18 297.32 269.42 285.60
  C 262.99 265.59 251.19 249.82 231.15 242.48
  A 0.48 0.48 0.0 0 0 230.65 243.27
  C 236.23 248.70 242.43 253.92 246.90 259.77
  C 256.06 271.76 260.58 284.43 265.87 297.63
  C 272.46 314.07 281.57 314.68 297.06 308.57
  C 315.62 301.25 331.16 291.53 346.39 279.54
  Q 347.22 278.89 347.86 279.73
  C 356.81 291.39 365.08 311.37 343.91 316.88
  C 329.20 320.72 313.38 319.40 298.40 318.22
  Q 283.58 317.05 278.53 316.00
  C 256.39 311.39 239.11 294.15 235.43 271.85
  A 0.54 0.54 0.0 0 0 234.37 271.88
  Q 232.18 292.16 245.80 306.45
  C 256.41 317.59 269.21 321.00 284.49 323.00
  Q 313.74 326.82 341.19 322.29
  C 374.68 316.75 365.45 294.03 352.96 274.98
  A 2.12 2.11 -39.3 0 1 353.23 272.33
  Q 372.34 253.05 379.93 226.49
  C 398.34 162.16 327.33 137.04 279.00 138.29
  A 0.72 0.71 2.1 0 1 278.27 137.51
  C 280.06 119.51 278.28 103.92 265.74 90.00
  C 254.63 77.66 239.87 70.04 223.71 65.51
  C 221.74 64.95 218.79 65.12 216.82 65.69
  C 188.40 73.87 161.48 91.84 161.92 124.72
  Q 162.00 130.26 162.28 137.34
  A 1.26 1.26 0.0 0 1 160.96 138.65
  C 122.55 136.75 61.30 153.95 56.69 201.20
  C 54.23 226.49 69.20 254.66 86.25 272.56
  A 2.39 2.39 0.0 0 1 86.45 275.61
  C 79.09 285.77 68.05 306.03 81.85 316.23
  C 86.28 319.50 95.10 322.24 100.75 323.01
  Q 116.76 325.19 137.56 324.63
  C 168.33 323.81 203.58 315.04 205.59 278.05
  C 205.69 276.21 206.21 273.86 206.28 271.70
  A 0.41 0.41 0.0 0 0 205.52 271.47
  Q 204.05 273.97 202.71 278.73
  C 196.29 301.53 173.39 315.77 150.55 317.46
  C 129.74 319.00 115.20 320.35 96.77 317.17
  C 90.13 316.02 83.67 311.58 82.54 304.61
  C 81.19 296.31 86.09 286.78 91.46 280.45
  A 2.31 2.30 -49.3 0 1 94.73 280.20
  Q 115.88 298.57 142.51 308.49
  C 155.38 313.28 166.79 315.16 172.50 300.32
  C 178.74 284.10 184.32 269.14 196.02 255.91
  C 199.47 252.00 204.36 247.89 208.51 243.91
  A 0.86 0.86 0.0 0 0 207.55 242.51
  C 183.07 253.80 176.62 267.61 167.75 291.71
  C 162.79 305.20 155.70 308.78 142.46 301.69
  Q 116.92 288.00 95.07 269.03
  C 82.07 257.75 73.48 246.04 67.93 230.20
  C 61.52 211.91 59.32 194.06 72.97 178.15
  C 85.76 163.23 108.62 153.64 127.26 149.08
  C 139.68 146.05 149.45 144.64 161.51 146.53
  C 187.34 150.57 200.44 169.09 202.10 194.73
  Q 202.17 195.90 202.47 194.77
  Q 205.07 184.82 203.67 174.85
  C 200.69 153.57 190.26 141.63 168.34 138.92
  A 0.82 0.81 88.5 0 1 167.65 138.26"
/>
<path stroke="#a49aad" vector-effect="non-scaling-stroke" d="
  M 220.45 224.13
  Q 192.39 193.65 174.24 156.46
  C 173.22 154.37 171.75 152.99 170.11 151.54
  A 1.59 1.59 0.0 0 0 167.58 152.14
  Q 167.22 153.04 167.67 154.18
  C 179.46 183.84 197.97 210.06 220.42 232.66
  Q 220.80 233.05 221.17 232.65
  C 237.87 214.35 252.84 195.06 264.59 173.18
  C 267.89 167.05 270.66 159.47 273.89 152.67
  Q 274.10 152.22 273.61 152.16
  C 269.14 151.62 267.77 154.88 265.82 158.75
  Q 251.40 187.44 230.89 212.15
  Q 225.96 218.10 221.09 224.11
  Q 220.78 224.49 220.45 224.13"
/>
</g>
<path fill="#000000" fill-opacity="0.996" d="
  M 256.06 31.89
  Q 230.57 28.10 205.30 29.52
  C 212.28 27.61 221.61 27.82 228.74 28.35
  Q 242.48 29.35 256.06 31.89
  Z"
/>
<path fill="#c5feeb" d="
  M 256.06 31.89
  Q 256.95 32.43 258.73 32.62
  C 342.13 48.09 410.59 113.80 415.70 200.97
  Q 416.15 214.59 414.91 227.99
  C 404.31 317.90 326.79 381.03 240.00 388.99
  Q 194.31 393.18 153.07 379.15
  C 77.06 353.29 19.18 283.31 24.33 200.27
  C 29.61 115.03 95.98 49.99 177.53 33.36
  Q 191.24 30.64 205.30 29.52
  Q 230.57 28.10 256.06 31.89
  Z
  M 167.65 138.26
  Q 163.74 115.56 178.32 97.54
  Q 192.27 80.31 211.68 71.08
  C 217.28 68.41 221.51 67.40 226.93 70.07
  C 252.31 82.63 278.50 105.20 273.39 136.79
  Q 273.31 137.28 272.95 137.62
  C 270.80 139.63 262.53 140.42 261.48 140.74
  C 239.71 147.33 234.16 170.09 235.24 190.96
  C 235.30 192.02 234.98 193.93 235.61 195.26
  A 0.46 0.46 0.0 0 0 236.49 195.11
  C 239.49 167.27 255.95 145.60 286.00 145.99
  Q 322.89 146.47 354.06 167.18
  Q 384.45 187.36 373.63 223.92
  C 366.20 249.03 352.96 263.30 332.93 278.48
  Q 315.78 291.47 294.76 302.97
  C 279.32 311.43 273.18 297.32 269.42 285.60
  C 262.99 265.59 251.19 249.82 231.15 242.48
  A 0.48 0.48 0.0 0 0 230.65 243.27
  C 236.23 248.70 242.43 253.92 246.90 259.77
  C 256.06 271.76 260.58 284.43 265.87 297.63
  C 272.46 314.07 281.57 314.68 297.06 308.57
  C 315.62 301.25 331.16 291.53 346.39 279.54
  Q 347.22 278.89 347.86 279.73
  C 356.81 291.39 365.08 311.37 343.91 316.88
  C 329.20 320.72 313.38 319.40 298.40 318.22
  Q 283.58 317.05 278.53 316.00
  C 256.39 311.39 239.11 294.15 235.43 271.85
  A 0.54 0.54 0.0 0 0 234.37 271.88
  Q 232.18 292.16 245.80 306.45
  C 256.41 317.59 269.21 321.00 284.49 323.00
  Q 313.74 326.82 341.19 322.29
  C 374.68 316.75 365.45 294.03 352.96 274.98
  A 2.12 2.11 -39.3 0 1 353.23 272.33
  Q 372.34 253.05 379.93 226.49
  C 398.34 162.16 327.33 137.04 279.00 138.29
  A 0.72 0.71 2.1 0 1 278.27 137.51
  C 280.06 119.51 278.28 103.92 265.74 90.00
  C 254.63 77.66 239.87 70.04 223.71 65.51
  C 221.74 64.95 218.79 65.12 216.82 65.69
  C 188.40 73.87 161.48 91.84 161.92 124.72
  Q 162.00 130.26 162.28 137.34
  A 1.26 1.26 0.0 0 1 160.96 138.65
  C 122.55 136.75 61.30 153.95 56.69 201.20
  C 54.23 226.49 69.20 254.66 86.25 272.56
  A 2.39 2.39 0.0 0 1 86.45 275.61
  C 79.09 285.77 68.05 306.03 81.85 316.23
  C 86.28 319.50 95.10 322.24 100.75 323.01
  Q 116.76 325.19 137.56 324.63
  C 168.33 323.81 203.58 315.04 205.59 278.05
  C 205.69 276.21 206.21 273.86 206.28 271.70
  A 0.41 0.41 0.0 0 0 205.52 271.47
  Q 204.05 273.97 202.71 278.73
  C 196.29 301.53 173.39 315.77 150.55 317.46
  C 129.74 319.00 115.20 320.35 96.77 317.17
  C 90.13 316.02 83.67 311.58 82.54 304.61
  C 81.19 296.31 86.09 286.78 91.46 280.45
  A 2.31 2.30 -49.3 0 1 94.73 280.20
  Q 115.88 298.57 142.51 308.49
  C 155.38 313.28 166.79 315.16 172.50 300.32
  C 178.74 284.10 184.32 269.14 196.02 255.91
  C 199.47 252.00 204.36 247.89 208.51 243.91
  A 0.86 0.86 0.0 0 0 207.55 242.51
  C 183.07 253.80 176.62 267.61 167.75 291.71
  C 162.79 305.20 155.70 308.78 142.46 301.69
  Q 116.92 288.00 95.07 269.03
  C 82.07 257.75 73.48 246.04 67.93 230.20
  C 61.52 211.91 59.32 194.06 72.97 178.15
  C 85.76 163.23 108.62 153.64 127.26 149.08
  C 139.68 146.05 149.45 144.64 161.51 146.53
  C 187.34 150.57 200.44 169.09 202.10 194.73
  Q 202.17 195.90 202.47 194.77
  Q 205.07 184.82 203.67 174.85
  C 200.69 153.57 190.26 141.63 168.34 138.92
  A 0.82 0.81 88.5 0 1 167.65 138.26
  Z
  M 220.45 224.13
  Q 192.39 193.65 174.24 156.46
  C 173.22 154.37 171.75 152.99 170.11 151.54
  A 1.59 1.59 0.0 0 0 167.58 152.14
  Q 167.22 153.04 167.67 154.18
  C 179.46 183.84 197.97 210.06 220.42 232.66
  Q 220.80 233.05 221.17 232.65
  C 237.87 214.35 252.84 195.06 264.59 173.18
  C 267.89 167.05 270.66 159.47 273.89 152.67
  Q 274.10 152.22 273.61 152.16
  C 269.14 151.62 267.77 154.88 265.82 158.75
  Q 251.40 187.44 230.89 212.15
  Q 225.96 218.10 221.09 224.11
  Q 220.78 224.49 220.45 224.13
  Z"
/>
<path fill="#000000" fill-opacity="0.996" d="
  M 258.73 32.62
  Q 260.69 32.41 262.77 32.92
  C 270.26 34.77 277.65 35.77 285.23 38.30
  C 322.67 50.79 356.21 71.33 380.04 102.95
  C 398.22 127.07 411.11 154.24 415.14 184.67
  Q 416.22 192.85 415.70 200.97
  C 410.59 113.80 342.13 48.09 258.73 32.62
  Z"
/>
<path fill="#000000" fill-opacity="0.996" d="
  M 177.53 33.36
  C 95.98 49.99 29.61 115.03 24.33 200.27
  C 19.18 283.31 77.06 353.29 153.07 379.15
  Q 194.31 393.18 240.00 388.99
  C 326.79 381.03 404.31 317.90 414.91 227.99
  C 414.63 239.60 412.06 252.14 408.41 263.17
  C 389.20 321.22 341.80 363.68 283.95 381.36
  C 248.80 392.10 213.25 394.12 177.13 387.11
  C 103.28 372.78 40.71 317.16 25.72 241.76
  Q 24.52 235.73 23.50 223.58
  C 21.93 204.82 23.39 186.22 27.69 167.91
  C 35.99 132.55 58.82 97.87 86.82 74.95
  Q 119.59 48.13 160.79 36.35
  Q 168.98 34.01 177.53 33.36
  Z"
/>
<path fill="#83366e" d="
  M 168.34 138.92
  C 190.26 141.63 200.69 153.57 203.67 174.85
  Q 205.07 184.82 202.47 194.77
  Q 202.17 195.90 202.10 194.73
  C 200.44 169.09 187.34 150.57 161.51 146.53
  C 149.45 144.64 139.68 146.05 127.26 149.08
  C 108.62 153.64 85.76 163.23 72.97 178.15
  C 59.32 194.06 61.52 211.91 67.93 230.20
  C 73.48 246.04 82.07 257.75 95.07 269.03
  Q 116.92 288.00 142.46 301.69
  C 155.70 308.78 162.79 305.20 167.75 291.71
  C 176.62 267.61 183.07 253.80 207.55 242.51
  A 0.86 0.86 0.0 0 1 208.51 243.91
  C 204.36 247.89 199.47 252.00 196.02 255.91
  C 184.32 269.14 178.74 284.10 172.50 300.32
  C 166.79 315.16 155.38 313.28 142.51 308.49
  Q 115.88 298.57 94.73 280.20
  A 2.31 2.30 -49.3 0 0 91.46 280.45
  C 86.09 286.78 81.19 296.31 82.54 304.61
  C 83.67 311.58 90.13 316.02 96.77 317.17
  C 115.20 320.35 129.74 319.00 150.55 317.46
  C 173.39 315.77 196.29 301.53 202.71 278.73
  Q 204.05 273.97 205.52 271.47
  A 0.41 0.41 0.0 0 1 206.28 271.70
  C 206.21 273.86 205.69 276.21 205.59 278.05
  C 203.58 315.04 168.33 323.81 137.56 324.63
  Q 116.76 325.19 100.75 323.01
  C 95.10 322.24 86.28 319.50 81.85 316.23
  C 68.05 306.03 79.09 285.77 86.45 275.61
  A 2.39 2.39 0.0 0 0 86.25 272.56
  C 69.20 254.66 54.23 226.49 56.69 201.20
  C 61.30 153.95 122.55 136.75 160.96 138.65
  A 1.26 1.26 0.0 0 0 162.28 137.34
  Q 162.00 130.26 161.92 124.72
  C 161.48 91.84 188.40 73.87 216.82 65.69
  C 218.79 65.12 221.74 64.95 223.71 65.51
  C 239.87 70.04 254.63 77.66 265.74 90.00
  C 278.28 103.92 280.06 119.51 278.27 137.51
  A 0.72 0.71 2.1 0 0 279.00 138.29
  C 327.33 137.04 398.34 162.16 379.93 226.49
  Q 372.34 253.05 353.23 272.33
  A 2.12 2.11 -39.3 0 0 352.96 274.98
  C 365.45 294.03 374.68 316.75 341.19 322.29
  Q 313.74 326.82 284.49 323.00
  C 269.21 321.00 256.41 317.59 245.80 306.45
  Q 232.18 292.16 234.37 271.88
  A 0.54 0.54 0.0 0 1 235.43 271.85
  C 239.11 294.15 256.39 311.39 278.53 316.00
  Q 283.58 317.05 298.40 318.22
  C 313.38 319.40 329.20 320.72 343.91 316.88
  C 365.08 311.37 356.81 291.39 347.86 279.73
  Q 347.22 278.89 346.39 279.54
  C 331.16 291.53 315.62 301.25 297.06 308.57
  C 281.57 314.68 272.46 314.07 265.87 297.63
  C 260.58 284.43 256.06 271.76 246.90 259.77
  C 242.43 253.92 236.23 248.70 230.65 243.27
  A 0.48 0.48 0.0 0 1 231.15 242.48
  C 251.19 249.82 262.99 265.59 269.42 285.60
  C 273.18 297.32 279.32 311.43 294.76 302.97
  Q 315.78 291.47 332.93 278.48
  C 352.96 263.30 366.20 249.03 373.63 223.92
  Q 384.45 187.36 354.06 167.18
  Q 322.89 146.47 286.00 145.99
  C 255.95 145.60 239.49 167.27 236.49 195.11
  A 0.46 0.46 0.0 0 1 235.61 195.26
  C 234.98 193.93 235.30 192.02 235.24 190.96
  C 234.16 170.09 239.71 147.33 261.48 140.74
  C 262.53 140.42 270.80 139.63 272.95 137.62
  Q 273.31 137.28 273.39 136.79
  C 278.50 105.20 252.31 82.63 226.93 70.07
  C 221.51 67.40 217.28 68.41 211.68 71.08
  Q 192.27 80.31 178.32 97.54
  Q 163.74 115.56 167.65 138.26
  A 0.82 0.81 88.5 0 0 168.34 138.92
  Z"
/>
<path fill="#83366e" d="
  M 221.09 224.11
  Q 225.96 218.10 230.89 212.15
  Q 251.40 187.44 265.82 158.75
  C 267.77 154.88 269.14 151.62 273.61 152.16
  Q 274.10 152.22 273.89 152.67
  C 270.66 159.47 267.89 167.05 264.59 173.18
  C 252.84 195.06 237.87 214.35 221.17 232.65
  Q 220.80 233.05 220.42 232.66
  C 197.97 210.06 179.46 183.84 167.67 154.18
  Q 167.22 153.04 167.58 152.14
  A 1.59 1.59 0.0 0 1 170.11 151.54
  C 171.75 152.99 173.22 154.37 174.24 156.46
  Q 192.39 193.65 220.45 224.13
  Q 220.78 224.49 221.09 224.11
  Z"
/>
</svg>
