<?xml version="1.0" encoding="UTF-8" standalone="no"?>
<!DOCTYPE svg PUBLIC "-//W3C//DTD SVG 1.1//EN" "http://www.w3.org/Graphics/SVG/1.1/DTD/svg11.dtd">
<svg xmlns="http://www.w3.org/2000/svg" version="1.1" viewBox="0.00 0.00 545.00 412.00">
<g stroke-width="2.00" fill="none" stroke-linecap="butt">
<path stroke="#bf96b1" vector-effect="non-scaling-stroke" d="
  M 164.35 124.99
  C 99.83 130.37 18.76 166.32 37.58 247.68
  C 44.46 277.43 59.30 301.54 80.39 323.33
  Q 80.74 323.69 80.43 324.08
  C 69.85 338.05 52.97 368.14 68.93 383.83
  C 77.98 392.73 98.38 395.76 110.50 397.03
  Q 138.36 399.94 166.24 397.29"
/>
<path stroke="#c89dbe" vector-effect="non-scaling-stroke" d="
  M 166.24 397.29
  C 190.36 395.53 215.33 391.57 234.19 374.92
  C 250.55 360.46 256.09 341.56 254.88 320.17
  Q 254.52 313.87 253.54 320.10
  Q 250.12 341.80 234.15 360.16
  C 216.89 380.00 193.01 387.25 167.47 388.63"
/>
<path stroke="#bf96b1" vector-effect="non-scaling-stroke" d="
  M 167.47 388.63
  C 146.25 390.23 125.57 391.39 103.94 389.34
  C 61.97 385.36 67.36 355.02 87.68 330.83
  Q 88.01 330.43 88.40 330.77
  Q 106.75 346.69 127.96 358.52"
/>
<path stroke="#c89dbe" vector-effect="non-scaling-stroke" d="
  M 127.96 358.52
  Q 145.56 368.46 164.48 375.47
  Q 176.96 380.11 183.50 379.99
  C 197.37 379.75 203.47 370.28 207.66 358.01
  C 215.64 334.66 226.06 309.87 244.54 292.75
  Q 253.01 284.90 261.29 276.92
  A 0.17 0.16 -75.4 0 0 261.13 276.64
  Q 234.00 285.55 218.04 308.04
  C 208.63 321.31 203.62 337.37 198.08 354.03
  Q 195.70 361.19 189.36 366.36
  C 182.22 372.18 174.64 371.56 166.76 367.47
  Q 145.54 356.44 133.34 348.39"
/>
<path stroke="#bf96b1" vector-effect="non-scaling-stroke" d="
  M 133.34 348.39
  Q 106.98 331.69 84.35 310.40
  C 72.98 299.70 63.68 288.34 57.22 273.80
  C 46.72 250.18 37.36 222.56 48.83 197.41
  C 55.15 183.58 67.35 172.04 80.44 163.95
  Q 120.44 139.21 166.70 134.69"
/>
<path stroke="#c89dbe" vector-effect="non-scaling-stroke" d="
  M 166.70 134.69
  C 173.94 134.72 181.63 134.53 188.32 135.39
  C 229.00 140.61 248.54 170.86 251.20 209.65
  A 0.25 0.24 -43.4 0 0 251.69 209.66
  Q 254.48 189.20 250.10 168.79
  C 244.28 141.69 226.42 127.17 199.41 124.93
  Q 198.94 124.89 198.83 124.43
  C 187.44 75.59 235.67 34.30 276.31 19.80
  A 1.66 1.63 45.5 0 1 277.45 19.82
  C 317.78 35.53 365.69 74.38 355.27 123.93
  Q 355.15 124.46 354.61 124.53
  C 347.44 125.48 339.46 126.50 333.12 129.06
  C 299.98 142.45 297.14 179.24 299.86 210.06
  A 0.23 0.23 0.0 0 0 300.31 210.06
  C 302.41 189.79 307.29 169.85 321.94 154.79
  C 335.36 140.99 354.96 134.76 374.30 134.74"
/>
<path stroke="#bf96b1" vector-effect="non-scaling-stroke" d="
  M 374.30 134.74
  C 401.60 135.02 427.01 141.38 451.47 153.15
  C 469.64 161.90 486.82 172.33 498.40 189.33
  C 516.74 216.24 505.50 251.10 492.80 277.34
  C 483.44 296.68 466.59 312.56 450.00 325.75
  Q 420.96 348.83 388.26 365.94"
/>
<path stroke="#c89dbe" vector-effect="non-scaling-stroke" d="
  M 388.26 365.94
  C 381.62 369.22 375.12 372.12 368.47 369.91
  C 360.41 367.23 355.21 358.86 352.74 351.16
  C 341.61 316.45 327.90 289.11 291.08 276.88
  Q 290.09 276.56 290.82 277.29
  C 301.40 287.91 313.06 296.99 320.70 308.56
  Q 336.19 332.02 343.91 358.07
  C 345.68 364.05 348.65 370.37 353.40 374.36
  C 365.20 384.27 377.95 379.16 390.77 374.10"
/>
<path stroke="#bf96b1" vector-effect="non-scaling-stroke" d="
  M 390.77 374.10
  Q 430.79 358.64 463.26 330.79
  Q 463.59 330.51 463.87 330.84
  C 475.29 343.94 488.52 368.51 471.47 381.64
  C 462.65 388.44 446.68 390.07 435.50 390.29
  Q 404.13 390.89 372.94 387.53
  C 334.29 383.36 303.38 356.99 297.64 317.76
  A 0.29 0.29 0.0 0 0 297.06 317.78
  C 295.20 338.08 299.77 357.51 314.41 372.10
  C 329.40 387.03 347.40 392.28 367.75 395.26
  C 396.68 399.51 426.75 400.13 455.76 394.79
  C 465.41 393.01 478.02 389.65 484.19 382.25
  C 497.72 366.04 481.38 337.77 471.21 323.95
  Q 470.90 323.53 471.27 323.15
  C 492.17 301.96 506.91 277.92 513.81 248.93
  C 534.42 162.30 444.42 127.21 377.01 124.26"
/>
<path stroke="#c89dbe" vector-effect="non-scaling-stroke" d="
  M 377.01 124.26
  L 361.81 124.26
  A 0.60 0.60 0.0 0 1 361.22 123.54
  C 372.97 62.58 328.64 29.20 276.69 15.68
  A 1.78 1.76 -45.3 0 0 275.73 15.69
  C 235.92 27.12 195.77 49.02 190.51 94.76
  Q 189.13 106.80 191.88 123.73
  A 0.53 0.52 86.3 0 1 191.35 124.34
  Q 177.51 123.85 164.35 124.99"
/>
<path stroke="#873470" vector-effect="non-scaling-stroke" d="
  M 377.01 124.26
  Q 376.40 124.53 375.53 124.51
  Q 374.00 124.49 375.51 124.73
  C 376.21 124.84 377.17 124.59 377.81 124.81
  Q 378.38 125.00 377.78 125.00
  L 375.28 125.00
  A 0.12 0.12 0.0 0 0 375.27 125.24
  Q 376.53 125.36 377.51 126.16
  Q 378.24 126.75 377.31 126.75
  L 375.74 126.75
  Q 374.92 126.75 375.13 127.54
  L 376.20 131.70
  Q 376.34 132.26 375.79 132.42
  L 374.53 132.79
  Q 373.86 132.99 374.45 133.34
  L 374.78 133.54
  Q 375.34 133.87 374.70 133.96
  L 372.23 134.30
  Q 371.98 134.33 372.18 134.49
  Q 372.30 134.59 372.50 134.55
  Q 373.57 134.31 374.30 134.74"
/>
<path stroke="#873470" vector-effect="non-scaling-stroke" d="
  M 166.70 134.69
  Q 167.80 133.63 170.16 134.05
  Q 170.21 134.06 170.20 134.00
  Q 170.19 133.97 170.19 133.94
  Q 170.16 133.79 170.00 133.77
  L 167.18 133.45
  Q 166.65 133.38 166.50 132.88
  Q 165.35 129.24 163.19 126.26
  Q 163.16 126.22 163.19 126.18
  L 163.41 125.97
  Q 163.59 125.78 163.33 125.80
  Q 163.01 125.83 162.72 125.73
  Q 162.07 125.52 162.75 125.53
  Q 163.67 125.53 164.35 124.99"
/>
<path stroke="#873470" vector-effect="non-scaling-stroke" d="
  M 133.34 348.39
  Q 131.58 348.25 130.76 348.72
  Q 130.36 348.95 130.17 350.63
  Q 130.02 351.91 128.49 352.28
  A 0.66 0.66 0.0 0 0 127.99 352.91
  L 127.96 358.52"
/>
<path stroke="#873470" vector-effect="non-scaling-stroke" d="
  M 167.47 388.63
  Q 166.35 389.08 167.64 389.86
  Q 168.04 390.11 167.84 390.54
  L 167.59 391.06
  Q 167.41 391.45 167.52 391.86
  C 168.03 393.69 166.68 394.20 166.21 395.55
  Q 165.83 396.66 166.24 397.29"
/>
<path stroke="#873470" vector-effect="non-scaling-stroke" d="
  M 390.77 374.10
  Q 390.58 373.81 390.13 373.78
  Q 389.71 373.75 390.01 373.45
  L 390.46 373.00
  A 0.40 0.40 0.0 0 0 390.52 372.51
  Q 388.56 369.46 388.26 365.94"
/>
<path stroke="#c89dbe" vector-effect="non-scaling-stroke" d="
  M 276.58 251.20
  C 249.18 220.49 223.09 184.43 206.27 146.48
  A 1.08 1.06 -3.5 0 0 205.59 145.89
  L 198.00 143.76
  A 0.54 0.54 0.0 0 0 197.35 144.47
  C 214.00 189.02 243.71 229.03 276.67 262.84
  A 0.40 0.40 0.0 0 0 277.25 262.84
  C 310.13 229.04 339.45 188.84 356.05 144.42
  A 0.45 0.45 0.0 0 0 355.50 143.83
  L 348.44 145.82
  Q 347.90 145.98 347.67 146.49
  C 330.68 184.29 304.59 220.53 277.41 251.20
  Q 277.00 251.67 276.58 251.20"
/>
</g>
<path fill="#ffffff" d="
  M 0.00 0.00
  L 545.00 0.00
  L 545.00 412.00
  L 0.00 412.00
  L 0.00 0.00
  Z
  M 164.35 124.99
  C 99.83 130.37 18.76 166.32 37.58 247.68
  C 44.46 277.43 59.30 301.54 80.39 323.33
  Q 80.74 323.69 80.43 324.08
  C 69.85 338.05 52.97 368.14 68.93 383.83
  C 77.98 392.73 98.38 395.76 110.50 397.03
  Q 138.36 399.94 166.24 397.29
  C 190.36 395.53 215.33 391.57 234.19 374.92
  C 250.55 360.46 256.09 341.56 254.88 320.17
  Q 254.52 313.87 253.54 320.10
  Q 250.12 341.80 234.15 360.16
  C 216.89 380.00 193.01 387.25 167.47 388.63
  C 146.25 390.23 125.57 391.39 103.94 389.34
  C 61.97 385.36 67.36 355.02 87.68 330.83
  Q 88.01 330.43 88.40 330.77
  Q 106.75 346.69 127.96 358.52
  Q 145.56 368.46 164.48 375.47
  Q 176.96 380.11 183.50 379.99
  C 197.37 379.75 203.47 370.28 207.66 358.01
  C 215.64 334.66 226.06 309.87 244.54 292.75
  Q 253.01 284.90 261.29 276.92
  A 0.17 0.16 -75.4 0 0 261.13 276.64
  Q 234.00 285.55 218.04 308.04
  C 208.63 321.31 203.62 337.37 198.08 354.03
  Q 195.70 361.19 189.36 366.36
  C 182.22 372.18 174.64 371.56 166.76 367.47
  Q 145.54 356.44 133.34 348.39
  Q 106.98 331.69 84.35 310.40
  C 72.98 299.70 63.68 288.34 57.22 273.80
  C 46.72 250.18 37.36 222.56 48.83 197.41
  C 55.15 183.58 67.35 172.04 80.44 163.95
  Q 120.44 139.21 166.70 134.69
  C 173.94 134.72 181.63 134.53 188.32 135.39
  C 229.00 140.61 248.54 170.86 251.20 209.65
  A 0.25 0.24 -43.4 0 0 251.69 209.66
  Q 254.48 189.20 250.10 168.79
  C 244.28 141.69 226.42 127.17 199.41 124.93
  Q 198.94 124.89 198.83 124.43
  C 187.44 75.59 235.67 34.30 276.31 19.80
  A 1.66 1.63 45.5 0 1 277.45 19.82
  C 317.78 35.53 365.69 74.38 355.27 123.93
  Q 355.15 124.46 354.61 124.53
  C 347.44 125.48 339.46 126.50 333.12 129.06
  C 299.98 142.45 297.14 179.24 299.86 210.06
  A 0.23 0.23 0.0 0 0 300.31 210.06
  C 302.41 189.79 307.29 169.85 321.94 154.79
  C 335.36 140.99 354.96 134.76 374.30 134.74
  C 401.60 135.02 427.01 141.38 451.47 153.15
  C 469.64 161.90 486.82 172.33 498.40 189.33
  C 516.74 216.24 505.50 251.10 492.80 277.34
  C 483.44 296.68 466.59 312.56 450.00 325.75
  Q 420.96 348.83 388.26 365.94
  C 381.62 369.22 375.12 372.12 368.47 369.91
  C 360.41 367.23 355.21 358.86 352.74 351.16
  C 341.61 316.45 327.90 289.11 291.08 276.88
  Q 290.09 276.56 290.82 277.29
  C 301.40 287.91 313.06 296.99 320.70 308.56
  Q 336.19 332.02 343.91 358.07
  C 345.68 364.05 348.65 370.37 353.40 374.36
  C 365.20 384.27 377.95 379.16 390.77 374.10
  Q 430.79 358.64 463.26 330.79
  Q 463.59 330.51 463.87 330.84
  C 475.29 343.94 488.52 368.51 471.47 381.64
  C 462.65 388.44 446.68 390.07 435.50 390.29
  Q 404.13 390.89 372.94 387.53
  C 334.29 383.36 303.38 356.99 297.64 317.76
  A 0.29 0.29 0.0 0 0 297.06 317.78
  C 295.20 338.08 299.77 357.51 314.41 372.10
  C 329.40 387.03 347.40 392.28 367.75 395.26
  C 396.68 399.51 426.75 400.13 455.76 394.79
  C 465.41 393.01 478.02 389.65 484.19 382.25
  C 497.72 366.04 481.38 337.77 471.21 323.95
  Q 470.90 323.53 471.27 323.15
  C 492.17 301.96 506.91 277.92 513.81 248.93
  C 534.42 162.30 444.42 127.21 377.01 124.26
  L 361.81 124.26
  A 0.60 0.60 0.0 0 1 361.22 123.54
  C 372.97 62.58 328.64 29.20 276.69 15.68
  A 1.78 1.76 -45.3 0 0 275.73 15.69
  C 235.92 27.12 195.77 49.02 190.51 94.76
  Q 189.13 106.80 191.88 123.73
  A 0.53 0.52 86.3 0 1 191.35 124.34
  Q 177.51 123.85 164.35 124.99
  Z
  M 276.58 251.20
  C 249.18 220.49 223.09 184.43 206.27 146.48
  A 1.08 1.06 -3.5 0 0 205.59 145.89
  L 198.00 143.76
  A 0.54 0.54 0.0 0 0 197.35 144.47
  C 214.00 189.02 243.71 229.03 276.67 262.84
  A 0.40 0.40 0.0 0 0 277.25 262.84
  C 310.13 229.04 339.45 188.84 356.05 144.42
  A 0.45 0.45 0.0 0 0 355.50 143.83
  L 348.44 145.82
  Q 347.90 145.98 347.67 146.49
  C 330.68 184.29 304.59 220.53 277.41 251.20
  Q 277.00 251.67 276.58 251.20
  Z"
/>
<path fill="#903b7d" d="
  M 377.01 124.26
  Q 376.40 124.53 375.53 124.51
  Q 374.00 124.49 375.51 124.73
  C 376.21 124.84 377.17 124.59 377.81 124.81
  Q 378.38 125.00 377.78 125.00
  L 375.28 125.00
  A 0.12 0.12 0.0 0 0 375.27 125.24
  Q 376.53 125.36 377.51 126.16
  Q 378.24 126.75 377.31 126.75
  L 375.74 126.75
  Q 374.92 126.75 375.13 127.54
  L 376.20 131.70
  Q 376.34 132.26 375.79 132.42
  L 374.53 132.79
  Q 373.86 132.99 374.45 133.34
  L 374.78 133.54
  Q 375.34 133.87 374.70 133.96
  L 372.23 134.30
  Q 371.98 134.33 372.18 134.49
  Q 372.30 134.59 372.50 134.55
  Q 373.57 134.31 374.30 134.74
  C 354.96 134.76 335.36 140.99 321.94 154.79
  C 307.29 169.85 302.41 189.79 300.31 210.06
  A 0.23 0.23 0.0 0 1 299.86 210.06
  C 297.14 179.24 299.98 142.45 333.12 129.06
  C 339.46 126.50 347.44 125.48 354.61 124.53
  Q 355.15 124.46 355.27 123.93
  C 365.69 74.38 317.78 35.53 277.45 19.82
  A 1.66 1.63 45.5 0 0 276.31 19.80
  C 235.67 34.30 187.44 75.59 198.83 124.43
  Q 198.94 124.89 199.41 124.93
  C 226.42 127.17 244.28 141.69 250.10 168.79
  Q 254.48 189.20 251.69 209.66
  A 0.25 0.24 -43.4 0 1 251.20 209.65
  C 248.54 170.86 229.00 140.61 188.32 135.39
  C 181.63 134.53 173.94 134.72 166.70 134.69
  Q 167.80 133.63 170.16 134.05
  Q 170.21 134.06 170.20 134.00
  Q 170.19 133.97 170.19 133.94
  Q 170.16 133.79 170.00 133.77
  L 167.18 133.45
  Q 166.65 133.38 166.50 132.88
  Q 165.35 129.24 163.19 126.26
  Q 163.16 126.22 163.19 126.18
  L 163.41 125.97
  Q 163.59 125.78 163.33 125.80
  Q 163.01 125.83 162.72 125.73
  Q 162.07 125.52 162.75 125.53
  Q 163.67 125.53 164.35 124.99
  Q 177.51 123.85 191.35 124.34
  A 0.53 0.52 86.3 0 0 191.88 123.73
  Q 189.13 106.80 190.51 94.76
  C 195.77 49.02 235.92 27.12 275.73 15.69
  A 1.78 1.76 -45.3 0 1 276.69 15.68
  C 328.64 29.20 372.97 62.58 361.22 123.54
  A 0.60 0.60 0.0 0 0 361.81 124.26
  L 377.01 124.26
  Z"
/>
<path fill="#7e2c63" d="
  M 377.01 124.26
  C 444.42 127.21 534.42 162.30 513.81 248.93
  C 506.91 277.92 492.17 301.96 471.27 323.15
  Q 470.90 323.53 471.21 323.95
  C 481.38 337.77 497.72 366.04 484.19 382.25
  C 478.02 389.65 465.41 393.01 455.76 394.79
  C 426.75 400.13 396.68 399.51 367.75 395.26
  C 347.40 392.28 329.40 387.03 314.41 372.10
  C 299.77 357.51 295.20 338.08 297.06 317.78
  A 0.29 0.29 0.0 0 1 297.64 317.76
  C 303.38 356.99 334.29 383.36 372.94 387.53
  Q 404.13 390.89 435.50 390.29
  C 446.68 390.07 462.65 388.44 471.47 381.64
  C 488.52 368.51 475.29 343.94 463.87 330.84
  Q 463.59 330.51 463.26 330.79
  Q 430.79 358.64 390.77 374.10
  Q 390.58 373.81 390.13 373.78
  Q 389.71 373.75 390.01 373.45
  L 390.46 373.00
  A 0.40 0.40 0.0 0 0 390.52 372.51
  Q 388.56 369.46 388.26 365.94
  Q 420.96 348.83 450.00 325.75
  C 466.59 312.56 483.44 296.68 492.80 277.34
  C 505.50 251.10 516.74 216.24 498.40 189.33
  C 486.82 172.33 469.64 161.90 451.47 153.15
  C 427.01 141.38 401.60 135.02 374.30 134.74
  Q 373.57 134.31 372.50 134.55
  Q 372.30 134.59 372.18 134.49
  Q 371.98 134.33 372.23 134.30
  L 374.70 133.96
  Q 375.34 133.87 374.78 133.54
  L 374.45 133.34
  Q 373.86 132.99 374.53 132.79
  L 375.79 132.42
  Q 376.34 132.26 376.20 131.70
  L 375.13 127.54
  Q 374.92 126.75 375.74 126.75
  L 377.31 126.75
  Q 378.24 126.75 377.51 126.16
  Q 376.53 125.36 375.27 125.24
  A 0.12 0.12 0.0 0 1 375.28 125.00
  L 377.78 125.00
  Q 378.38 125.00 377.81 124.81
  C 377.17 124.59 376.21 124.84 375.51 124.73
  Q 374.00 124.49 375.53 124.51
  Q 376.40 124.53 377.01 124.26
  Z"
/>
<path fill="#7e2c63" d="
  M 164.35 124.99
  Q 163.67 125.53 162.75 125.53
  Q 162.07 125.52 162.72 125.73
  Q 163.01 125.83 163.33 125.80
  Q 163.59 125.78 163.41 125.97
  L 163.19 126.18
  Q 163.16 126.22 163.19 126.26
  Q 165.35 129.24 166.50 132.88
  Q 166.65 133.38 167.18 133.45
  L 170.00 133.77
  Q 170.16 133.79 170.19 133.94
  Q 170.19 133.97 170.20 134.00
  Q 170.21 134.06 170.16 134.05
  Q 167.80 133.63 166.70 134.69
  Q 120.44 139.21 80.44 163.95
  C 67.35 172.04 55.15 183.58 48.83 197.41
  C 37.36 222.56 46.72 250.18 57.22 273.80
  C 63.68 288.34 72.98 299.70 84.35 310.40
  Q 106.98 331.69 133.34 348.39
  Q 131.58 348.25 130.76 348.72
  Q 130.36 348.95 130.17 350.63
  Q 130.02 351.91 128.49 352.28
  A 0.66 0.66 0.0 0 0 127.99 352.91
  L 127.96 358.52
  Q 106.75 346.69 88.40 330.77
  Q 88.01 330.43 87.68 330.83
  C 67.36 355.02 61.97 385.36 103.94 389.34
  C 125.57 391.39 146.25 390.23 167.47 388.63
  Q 166.35 389.08 167.64 389.86
  Q 168.04 390.11 167.84 390.54
  L 167.59 391.06
  Q 167.41 391.45 167.52 391.86
  C 168.03 393.69 166.68 394.20 166.21 395.55
  Q 165.83 396.66 166.24 397.29
  Q 138.36 399.94 110.50 397.03
  C 98.38 395.76 77.98 392.73 68.93 383.83
  C 52.97 368.14 69.85 338.05 80.43 324.08
  Q 80.74 323.69 80.39 323.33
  C 59.30 301.54 44.46 277.43 37.58 247.68
  C 18.76 166.32 99.83 130.37 164.35 124.99
  Z"
/>
<path fill="#903b7d" d="
  M 277.41 251.20
  C 304.59 220.53 330.68 184.29 347.67 146.49
  Q 347.90 145.98 348.44 145.82
  L 355.50 143.83
  A 0.45 0.45 0.0 0 1 356.05 144.42
  C 339.45 188.84 310.13 229.04 277.25 262.84
  A 0.40 0.40 0.0 0 1 276.67 262.84
  C 243.71 229.03 214.00 189.02 197.35 144.47
  A 0.54 0.54 0.0 0 1 198.00 143.76
  L 205.59 145.89
  A 1.08 1.06 -3.5 0 1 206.27 146.48
  C 223.09 184.43 249.18 220.49 276.58 251.20
  Q 277.00 251.67 277.41 251.20
  Z"
/>
<path fill="#903b7d" d="
  M 127.96 358.52
  L 127.99 352.91
  A 0.66 0.66 0.0 0 1 128.49 352.28
  Q 130.02 351.91 130.17 350.63
  Q 130.36 348.95 130.76 348.72
  Q 131.58 348.25 133.34 348.39
  Q 145.54 356.44 166.76 367.47
  C 174.64 371.56 182.22 372.18 189.36 366.36
  Q 195.70 361.19 198.08 354.03
  C 203.62 337.37 208.63 321.31 218.04 308.04
  Q 234.00 285.55 261.13 276.64
  A 0.17 0.16 -75.4 0 1 261.29 276.92
  Q 253.01 284.90 244.54 292.75
  C 226.06 309.87 215.64 334.66 207.66 358.01
  C 203.47 370.28 197.37 379.75 183.50 379.99
  Q 176.96 380.11 164.48 375.47
  Q 145.56 368.46 127.96 358.52
  Z"
/>
<path fill="#903b7d" d="
  M 388.26 365.94
  Q 388.56 369.46 390.52 372.51
  A 0.40 0.40 0.0 0 1 390.46 373.00
  L 390.01 373.45
  Q 389.71 373.75 390.13 373.78
  Q 390.58 373.81 390.77 374.10
  C 377.95 379.16 365.20 384.27 353.40 374.36
  C 348.65 370.37 345.68 364.05 343.91 358.07
  Q 336.19 332.02 320.70 308.56
  C 313.06 296.99 301.40 287.91 290.82 277.29
  Q 290.09 276.56 291.08 276.88
  C 327.90 289.11 341.61 316.45 352.74 351.16
  C 355.21 358.86 360.41 367.23 368.47 369.91
  C 375.12 372.12 381.62 369.22 388.26 365.94
  Z"
/>
<path fill="#903b7d" d="
  M 166.24 397.29
  Q 165.83 396.66 166.21 395.55
  C 166.68 394.20 168.03 393.69 167.52 391.86
  Q 167.41 391.45 167.59 391.06
  L 167.84 390.54
  Q 168.04 390.11 167.64 389.86
  Q 166.35 389.08 167.47 388.63
  C 193.01 387.25 216.89 380.00 234.15 360.16
  Q 250.12 341.80 253.54 320.10
  Q 254.52 313.87 254.88 320.17
  C 256.09 341.56 250.55 360.46 234.19 374.92
  C 215.33 391.57 190.36 395.53 166.24 397.29
  Z"
/>
</svg>
