<?xml version="1.0" encoding="UTF-8" standalone="no"?>
<!DOCTYPE svg PUBLIC "-//W3C//DTD SVG 1.1//EN" "http://www.w3.org/Graphics/SVG/1.1/DTD/svg11.dtd">
<svg xmlns="http://www.w3.org/2000/svg" version="1.1" viewBox="0.00 0.00 150.00 67.00">
<path fill="#000000" d="
  M 0.00 35.44
  L 0.00 28.67
  Q 6.68 27.89 12.77 31.76
  C 16.48 34.11 27.13 43.25 31.41 36.58
  C 34.54 31.69 29.71 27.70 25.16 26.48
  Q 18.71 24.73 14.57 22.19
  C 6.68 17.33 8.23 5.25 17.18 1.94
  Q 23.94 -0.56 30.58 4.13
  Q 31.01 4.43 31.01 4.95
  L 30.99 9.93
  A 0.45 0.45 0.0 0 1 30.12 10.07
  C 29.43 7.98 28.42 5.93 26.58 4.66
  C 23.29 2.38 17.62 2.03 16.06 6.64
  C 11.82 19.14 42.25 11.80 40.09 30.83
  C 39.23 38.42 32.72 41.82 25.50 40.66
  C 17.87 39.44 10.88 35.00 0.00 35.44
  Z"
/>
<path fill="#000000" d="
  M 128.02 23.53
  Q 127.96 29.13 128.00 34.75
  C 128.03 37.67 129.43 39.08 132.13 39.60
  Q 132.58 39.68 132.46 40.12
  Q 132.41 40.28 132.32 40.38
  Q 132.23 40.46 132.04 40.47
  Q 123.48 40.58 115.12 40.46
  A 0.38 0.38 0.0 0 1 114.99 39.72
  C 118.20 38.53 119.23 37.74 119.24 34.04
  Q 119.27 19.91 119.24 6.01
  A 1.28 1.28 0.0 0 0 117.54 4.80
  C 107.41 8.33 101.98 24.07 108.26 32.94
  A 0.64 0.64 0.0 0 1 107.61 33.94
  C 96.90 31.79 94.13 22.27 99.06 13.64
  C 105.58 2.24 125.88 0.05 136.99 2.01
  C 151.56 4.59 146.95 29.48 128.57 23.14
  Q 128.03 22.95 128.02 23.53
  Z
  M 133.81 3.94
  C 125.88 0.00 127.67 16.30 128.06 19.72
  A 2.14 2.13 8.4 0 0 129.34 21.44
  C 137.97 25.17 137.79 5.91 133.81 3.94
  Z"
/>
<path fill="#000000" d="
  M 79.67 9.54
  L 68.67 39.87
  A 0.54 0.54 0.0 0 1 67.64 39.81
  L 60.77 10.27
  A 0.39 0.39 0.0 0 0 60.00 10.35
  C 59.72 22.57 57.39 58.16 41.81 61.68
  C 35.48 63.11 30.89 59.17 31.34 52.64
  Q 31.39 51.98 31.92 52.37
  C 37.83 56.70 44.66 49.30 47.49 44.40
  C 53.44 34.11 58.37 20.26 58.50 8.05
  C 58.53 5.28 56.92 3.65 54.38 3.15
  A 0.58 0.58 0.0 0 1 54.49 2.00
  L 65.90 2.00
  A 1.80 1.80 0.0 0 1 67.64 3.39
  L 72.26 23.27
  A 0.33 0.32 48.5 0 0 72.88 23.31
  L 80.29 2.93
  A 1.42 1.40 -79.8 0 1 81.63 1.99
  L 93.24 2.03
  A 0.39 0.39 0.0 0 1 93.39 2.77
  C 90.65 3.94 89.02 4.49 89.02 7.89
  Q 88.99 21.82 89.26 35.75
  Q 89.31 38.25 91.76 39.15
  Q 95.41 40.50 91.50 40.50
  L 76.31 40.50
  A 0.43 0.43 0.0 0 1 76.18 39.66
  Q 80.31 38.43 80.27 34.75
  Q 80.16 22.06 80.33 9.66
  A 0.34 0.34 0.0 0 0 79.67 9.54
  Z"
/>
<path fill="#000000" d="
  M 69.48 49.97
  Q 68.63 53.17 70.04 56.02
  Q 70.28 56.50 69.74 56.50
  L 66.08 56.50
  A 0.39 0.38 -70.0 0 1 65.79 55.87
  L 66.13 55.46
  Q 66.47 55.03 66.48 54.49
  L 66.55 44.99
  A 0.80 0.79 69.3 0 0 65.23 44.39
  Q 61.09 48.13 62.93 53.49
  Q 63.09 53.93 62.61 53.92
  Q 60.59 53.86 60.21 52.24
  Q 58.59 45.35 65.27 43.58
  Q 70.14 42.30 72.51 42.76
  Q 74.24 43.09 73.29 44.84
  Q 72.98 45.41 72.65 44.85
  Q 71.59 43.06 69.77 44.07
  A 1.02 1.01 -14.5 0 0 69.24 44.96
  L 69.26 48.76
  A 0.65 0.65 0.0 0 0 70.36 49.23
  L 71.52 48.12
  Q 72.07 47.61 72.03 48.36
  L 71.93 50.30
  A 0.39 0.39 0.0 0 1 71.30 50.59
  L 70.19 49.73
  Q 69.65 49.31 69.48 49.97
  Z"
/>
<path fill="#000000" d="
  M 142.49 42.61
  A 0.43 0.43 0.0 0 1 143.27 42.87
  Q 143.16 44.97 141.21 45.98
  A 0.42 0.42 0.0 0 1 140.66 45.37
  L 142.49 42.61
  Z"
/>
<path fill="#000000" d="
  M 131.99 54.84
  L 136.43 56.34
  A 0.78 0.76 -85.1 0 1 136.94 56.96
  C 137.65 61.74 131.69 61.54 129.20 60.05
  A 0.97 0.97 0.0 0 1 128.72 59.25
  Q 128.69 57.87 129.81 57.10
  A 0.66 0.64 59.2 0 0 130.01 56.27
  Q 129.20 54.75 130.55 53.85
  A 0.48 0.47 -37.3 0 0 130.65 53.15
  C 128.09 50.06 130.23 46.22 134.13 47.48
  A 0.56 0.55 15.2 0 0 134.85 47.08
  L 135.24 45.39
  A 0.42 0.42 0.0 0 1 136.04 45.31
  Q 136.66 46.69 135.68 47.69
  A 0.76 0.76 0.0 0 0 135.52 48.51
  C 136.63 51.23 135.64 53.64 132.65 53.77
  Q 132.07 53.79 131.89 53.98
  Q 131.72 54.17 131.72 54.46
  A 0.40 0.39 -81.0 0 0 131.99 54.84
  Z
  M 132.7700 52.9900
  A 2.56 1.10 90.0 0 0 133.8700 50.4300
  A 2.56 1.10 90.0 0 0 132.7700 47.8700
  A 2.56 1.10 90.0 0 0 131.6700 50.4300
  A 2.56 1.10 90.0 0 0 132.7700 52.9900
  Z
  M 134.87 58.16
  L 131.08 57.08
  A 0.49 0.49 0.0 0 0 130.48 57.42
  L 130.42 57.64
  A 2.25 1.92 15.8 0 0 132.06 60.10
  L 132.46 60.22
  A 2.25 1.92 15.8 0 0 135.15 58.98
  L 135.21 58.76
  A 0.49 0.49 0.0 0 0 134.87 58.16
  Z"
/>
<path fill="#000000" d="
  M 100.38 55.17
  Q 102.66 55.18 104.41 56.54
  Q 104.78 56.83 104.86 57.30
  C 105.55 61.48 100.40 61.08 97.94 60.70
  A 1.68 1.67 -63.2 0 1 97.01 57.86
  L 97.90 56.97
  A 0.59 0.59 0.0 0 0 98.00 56.25
  Q 97.24 54.91 98.40 53.97
  A 0.68 0.68 0.0 0 0 98.51 53.02
  C 96.44 50.28 98.13 46.18 101.59 47.37
  A 1.00 0.99 -72.5 0 0 102.87 46.70
  L 103.24 45.44
  A 0.47 0.47 0.0 0 1 104.14 45.43
  Q 104.56 46.70 103.72 47.66
  Q 103.36 48.06 103.55 48.57
  C 104.49 51.16 103.85 53.63 100.65 53.76
  Q 100.07 53.79 99.89 53.98
  Q 99.68 54.21 99.73 54.59
  Q 99.80 55.17 100.38 55.17
  Z
  M 100.7173 53.0499
  A 2.60 1.08 90.5 0 0 101.8200 50.4594
  A 2.60 1.08 90.5 0 0 100.7627 47.8501
  A 2.60 1.08 90.5 0 0 99.6600 50.4406
  A 2.60 1.08 90.5 0 0 100.7173 53.0499
  Z
  M 102.72 58.16
  L 99.54 57.12
  A 1.52 1.22 58.4 0 0 99.20 59.85
  Q 100.91 60.52 102.73 59.90
  A 0.92 0.92 0.0 0 0 102.72 58.16
  Z"
/>
<path fill="#000000" d="
  M 140.13 48.12
  L 139.44 49.67
  A 0.75 0.75 0.0 0 1 138.01 49.51
  C 137.38 46.24 141.87 46.79 143.22 48.36
  Q 143.54 48.74 143.57 49.23
  L 144.05 56.20
  Q 144.09 56.74 143.55 56.65
  L 141.50 56.31
  Q 141.07 56.24 140.70 56.46
  C 137.88 58.18 134.70 52.08 140.57 51.00
  A 1.28 1.28 0.0 0 0 141.47 49.14
  L 140.92 48.10
  Q 140.50 47.29 140.13 48.12
  Z
  M 141.15 56.03
  L 141.84 51.66
  A 0.03 0.03 0.0 0 0 141.82 51.63
  L 141.79 51.62
  A 2.08 1.78 -81.0 0 0 139.71 53.40
  L 139.66 53.71
  A 2.08 1.78 -81.0 0 0 141.09 56.05
  L 141.12 56.05
  A 0.03 0.03 0.0 0 0 141.15 56.03
  Z"
/>
<path fill="#000000" d="
  M 76.03 54.80
  A 1.10 1.10 0.0 0 0 78.20 55.03
  Q 78.95 51.55 78.15 48.10
  Q 78.01 47.50 78.63 47.50
  L 80.07 47.50
  Q 80.63 47.50 80.67 48.06
  C 80.89 51.11 80.23 53.87 81.24 56.09
  Q 81.48 56.62 80.90 56.54
  C 79.12 56.29 78.59 56.27 76.53 56.64
  C 72.79 57.31 73.54 50.19 73.33 48.02
  Q 73.27 47.48 73.81 47.49
  L 75.23 47.52
  A 0.77 0.76 -89.6 0 1 75.98 48.29
  L 76.03 54.80
  Z"
/>
<path fill="#000000" d="
  M 86.08 54.35
  Q 85.26 53.18 83.97 52.61
  Q 83.53 52.41 83.27 52.01
  C 80.23 47.24 87.24 45.40 88.01 49.15
  A 0.47 0.47 0.0 0 1 87.12 49.42
  Q 86.46 47.80 84.96 48.12
  A 1.18 1.18 0.0 0 0 85.05 50.45
  C 90.64 51.13 87.89 59.82 82.93 55.82
  Q 82.23 55.26 82.27 54.51
  A 0.38 0.38 0.0 0 1 82.91 54.26
  L 84.40 55.76
  A 1.10 1.10 0.0 0 0 86.08 54.35
  Z"
/>
<path fill="#000000" d="
  M 93.15 48.40
  A 0.71 0.71 0.0 0 0 91.74 48.54
  Q 91.74 49.48 90.91 50.05
  Q 90.40 50.39 90.02 49.91
  Q 89.44 49.19 89.84 48.34
  C 91.03 45.81 94.70 47.47 95.70 49.51
  A 1.41 1.37 38.4 0 1 95.81 50.38
  Q 95.22 53.24 95.93 56.01
  A 0.64 0.64 0.0 0 1 95.13 56.79
  L 93.76 56.38
  Q 93.27 56.24 92.78 56.43
  Q 89.90 57.59 88.97 54.22
  A 2.17 2.16 -9.3 0 1 90.94 51.48
  Q 93.76 51.32 93.15 48.40
  Z
  M 93.26 55.62
  L 93.63 52.12
  A 0.25 0.25 0.0 0 0 93.41 51.85
  L 93.28 51.83
  A 1.81 1.56 -84.0 0 0 91.54 53.47
  L 91.49 53.87
  A 1.81 1.56 -84.0 0 0 92.86 55.83
  L 92.99 55.84
  A 0.25 0.25 0.0 0 0 93.26 55.62
  Z"
/>
<path fill="#000000" d="
  M 108.94 50.78
  Q 110.08 49.52 109.13 48.17
  A 0.68 0.68 0.0 0 0 107.89 48.58
  Q 107.91 49.85 106.86 49.97
  A 1.13 1.13 0.0 0 1 106.18 47.87
  Q 109.30 46.06 111.48 48.74
  A 0.96 0.96 0.0 0 1 111.69 49.31
  L 111.88 56.17
  Q 111.90 57.05 111.07 56.74
  L 109.70 56.23
  Q 109.34 56.10 109.02 56.29
  C 105.42 58.39 103.05 52.02 108.04 51.26
  Q 108.58 51.18 108.94 50.78
  Z
  M 109.12 56.01
  L 109.93 51.70
  A 0.05 0.05 0.0 0 0 109.89 51.64
  L 109.86 51.64
  A 2.10 1.82 -79.4 0 0 107.68 53.37
  L 107.63 53.64
  A 2.10 1.82 -79.4 0 0 109.03 56.04
  L 109.06 56.05
  A 0.05 0.05 0.0 0 0 109.12 56.01
  Z"
/>
<path fill="#000000" d="
  M 115.26 55.80
  A 0.95 0.95 0.0 0 0 116.83 54.86
  Q 116.41 53.24 114.80 52.75
  A 1.37 1.37 0.0 0 1 114.10 52.26
  C 111.10 48.31 116.43 45.32 118.42 48.27
  Q 118.85 48.92 118.41 49.38
  A 0.48 0.48 0.0 0 1 117.68 49.33
  Q 117.04 48.48 115.97 47.96
  A 1.13 0.94 67.1 0 0 115.37 49.95
  Q 116.55 50.61 117.50 51.27
  C 121.61 54.13 116.82 58.91 113.37 55.73
  Q 112.97 55.36 113.14 54.83
  L 113.27 54.44
  Q 113.39 54.06 113.69 54.34
  L 115.26 55.80
  Z"
/>
<path fill="#000000" d="
  M 122.78 54.79
  A 1.09 1.09 0.0 0 0 124.93 55.03
  Q 125.79 51.43 124.77 47.87
  Q 124.63 47.39 125.13 47.42
  L 127.00 47.53
  A 0.49 0.49 0.0 0 1 127.46 48.01
  L 127.60 56.08
  A 0.44 0.43 4.4 0 1 127.09 56.51
  C 124.62 56.09 121.80 57.92 120.51 54.81
  A 1.55 1.51 39.4 0 1 120.42 53.99
  Q 120.92 50.88 119.94 47.95
  Q 119.71 47.26 120.44 47.34
  L 122.17 47.55
  Q 122.73 47.61 122.73 48.18
  L 122.78 54.79
  Z"
/>
</svg>
