<?xml version="1.0" encoding="UTF-8" standalone="no"?>
<!DOCTYPE svg PUBLIC "-//W3C//DTD SVG 1.1//EN" "http://www.w3.org/Graphics/SVG/1.1/DTD/svg11.dtd">
<svg xmlns="http://www.w3.org/2000/svg" version="1.1" viewBox="0.00 0.00 1179.00 323.00">
<path fill="#000000" d="
  M 262.7883 159.2860
  A 124.91 121.92 -0.3 0 1 138.5184 281.8583
  A 124.91 121.92 -0.3 0 1 12.9717 160.5940
  A 124.91 121.92 -0.3 0 1 137.2416 38.0217
  A 124.91 121.92 -0.3 0 1 262.7883 159.2860
  Z
  M 253.2298 159.7087
  A 115.35 112.53 -0.1 0 0 137.6836 47.3802
  A 115.35 112.53 -0.1 0 0 22.5302 160.1113
  A 115.35 112.53 -0.1 0 0 138.0764 272.4398
  A 115.35 112.53 -0.1 0 0 253.2298 159.7087
  Z"
/>
<path fill="#000000" d="
  M 173.16 208.90
  C 174.01 212.65 169.66 216.63 167.26 212.85
  A 1.02 1.02 0.0 0 0 165.37 213.36
  Q 164.80 228.82 164.53 244.25
  C 164.49 246.51 162.80 248.38 160.77 249.56
  C 145.08 258.64 128.09 256.51 111.95 249.03
  C 93.12 240.31 88.93 224.11 99.38 206.45
  A 0.60 0.60 0.0 0 0 98.55 205.64
  Q 91.79 209.80 85.30 214.79
  C 78.69 219.87 70.81 212.34 67.04 207.45
  Q 48.75 183.78 33.27 166.48
  C 31.43 164.42 28.90 160.22 29.09 157.15
  C 29.91 144.04 52.13 143.80 60.99 144.41
  Q 95.58 146.77 128.12 158.67
  Q 128.82 158.93 128.93 158.19
  L 129.27 155.83
  Q 129.36 155.23 128.84 154.91
  Q 116.95 147.76 106.74 138.34
  A 1.05 1.04 -40.5 0 1 106.87 136.70
  L 107.51 136.28
  Q 107.99 135.96 108.42 136.35
  C 110.51 138.25 111.53 140.78 113.46 142.51
  Q 119.04 147.54 125.46 151.46
  C 128.47 153.31 130.19 155.23 133.81 152.57
  Q 134.21 152.27 134.23 151.78
  Q 134.54 142.88 133.06 134.14
  C 132.73 132.17 131.39 129.88 131.27 127.75
  A 1.45 1.44 36.8 0 1 134.12 127.34
  C 134.69 129.78 134.12 132.24 134.41 134.52
  Q 135.38 142.21 135.39 149.94
  Q 135.39 151.71 135.92 153.01
  A 0.75 0.75 0.0 0 0 137.37 152.76
  C 138.30 134.30 141.70 115.25 147.19 97.86
  C 150.06 88.78 154.42 76.80 161.10 69.79
  C 165.74 64.92 172.51 61.67 178.42 66.41
  Q 181.00 68.47 184.53 75.39
  Q 194.63 95.22 205.95 114.35
  C 209.57 120.46 216.97 132.87 207.19 138.03
  Q 200.45 141.59 193.62 145.68
  A 0.66 0.66 0.0 0 0 194.07 146.90
  C 200.20 145.89 207.16 146.89 212.90 148.95
  C 223.35 152.70 228.32 160.77 229.50 171.92
  C 231.43 190.20 225.99 208.07 210.22 218.61
  C 207.81 220.22 204.65 219.95 202.30 218.98
  Q 188.41 213.23 174.35 207.86
  A 0.90 0.90 0.0 0 0 173.16 208.90
  Z
  M 180.21 81.52
  C 178.75 77.25 173.98 70.74 168.63 73.06
  A 1.32 1.31 -89.2 0 0 167.96 73.72
  C 163.76 82.74 170.89 94.10 174.79 102.18
  A 0.49 0.49 0.0 0 0 175.45 102.41
  Q 175.61 102.33 175.78 102.12
  Q 175.90 101.95 175.94 101.70
  Q 176.38 99.07 176.84 96.43
  C 177.63 91.85 181.72 85.98 180.21 81.52
  Z
  M 163.36 81.34
  A 1.22 1.22 0.0 0 0 161.21 81.50
  C 158.58 87.58 155.36 95.33 157.57 101.79
  A 1.73 1.73 0.0 0 0 160.57 102.30
  Q 163.33 98.80 167.15 96.79
  A 2.31 2.30 -19.1 0 0 168.35 94.33
  Q 167.09 87.36 163.36 81.34
  Z
  M 183.96 91.04
  A 0.66 0.64 -46.7 0 0 183.21 91.07
  C 177.54 95.28 177.06 110.48 177.12 117.06
  A 0.45 0.45 0.0 0 0 177.65 117.49
  Q 177.81 117.46 177.99 117.39
  Q 178.39 117.24 178.59 116.85
  C 181.19 111.69 190.84 95.45 183.96 91.04
  Z
  M 171.62 101.88
  C 165.60 96.91 159.65 105.50 159.06 110.75
  C 157.90 121.02 157.43 131.56 154.86 141.51
  C 152.79 149.51 149.23 158.67 149.33 166.93
  C 149.37 169.81 151.10 172.06 152.78 174.20
  A 0.69 0.69 0.0 0 0 153.95 174.07
  Q 167.00 146.68 174.28 117.51
  C 175.55 112.42 176.33 105.76 171.62 101.88
  Z
  M 156.98 104.63
  C 150.62 101.23 149.95 111.96 149.54 115.75
  Q 147.56 134.17 147.01 152.69
  A 0.49 0.49 0.0 0 0 147.76 153.11
  Q 147.96 152.99 148.12 152.41
  C 152.13 137.36 154.07 122.00 158.01 106.99
  A 2.08 2.07 21.6 0 0 156.98 104.63
  Z
  M 191.45 104.87
  A 0.98 0.98 0.0 0 0 189.94 104.88
  C 188.50 106.62 184.28 112.14 187.84 113.17
  Q 193.72 114.87 195.26 120.07
  A 1.10 1.07 -89.2 0 0 195.94 120.79
  C 198.52 121.73 200.63 118.87 199.30 116.45
  Q 195.85 110.16 191.45 104.87
  Z
  M 191.06 117.20
  Q 184.63 112.37 180.02 119.17
  C 175.05 126.50 172.16 137.30 170.38 146.17
  A 1.75 1.75 0.0 0 0 172.01 148.26
  C 182.48 148.77 201.76 125.24 191.06 117.20
  Z
  M 200.99 122.40
  A 1.76 1.76 0.0 0 0 199.13 122.40
  Q 197.06 123.68 196.74 126.53
  Q 195.97 133.23 191.60 138.03
  A 0.35 0.35 0.0 0 0 192.00 138.58
  C 195.50 137.00 200.80 134.55 202.53 131.47
  C 203.87 129.10 203.86 124.20 200.99 122.40
  Z
  M 71.96 157.74
  C 69.88 150.60 56.25 150.90 50.59 151.02
  A 1.15 1.15 0.0 0 0 49.68 152.83
  Q 54.12 159.11 60.75 162.96
  A 0.99 0.97 -44.5 0 0 61.74 162.96
  L 67.16 159.89
  A 1.25 1.18 24.9 0 1 67.64 159.73
  Q 69.72 159.47 71.56 158.61
  A 0.74 0.73 70.0 0 0 71.96 157.74
  Z
  M 124.00 166.98
  Q 123.83 166.64 123.31 166.45
  Q 102.97 158.97 88.06 154.21
  C 83.06 152.61 77.14 150.54 74.66 154.13
  C 72.47 157.28 76.12 158.65 78.70 159.01
  C 90.51 160.64 101.88 163.78 113.48 166.41
  C 117.09 167.23 121.07 167.40 124.87 168.07
  A 0.32 0.31 -10.2 0 0 125.20 167.60
  Q 124.96 167.18 124.49 167.25
  Q 124.15 167.29 124.00 166.98
  Z
  M 64.98 171.60
  C 62.23 168.31 43.62 146.15 38.55 155.75
  C 36.12 160.34 42.58 170.30 47.83 169.99
  Q 56.08 169.50 64.45 172.37
  A 0.49 0.48 79.7 0 0 64.98 171.60
  Z
  M 200.33 160.85
  C 202.33 156.29 197.43 154.25 193.99 153.95
  C 189.15 153.54 181.99 158.39 178.81 161.82
  Q 170.28 171.03 160.76 178.90
  A 0.55 0.55 0.0 0 0 161.24 179.85
  Q 171.03 177.40 180.06 172.72
  C 185.38 169.97 197.81 166.62 200.33 160.85
  Z
  M 142.20 181.02
  C 139.41 175.31 135.96 173.75 128.81 172.45
  Q 120.38 170.93 111.90 169.70
  C 100.11 168.00 90.27 163.77 79.47 160.73
  C 75.60 159.64 71.75 159.83 68.50 161.75
  C 62.37 165.38 66.81 172.73 71.82 174.68
  Q 79.10 177.50 90.23 178.88
  Q 115.89 182.06 141.76 181.72
  A 0.49 0.49 0.0 0 0 142.20 181.02
  Z
  M 163.18 183.17
  C 163.78 190.98 203.41 194.46 209.98 195.12
  C 217.83 195.90 222.67 188.47 213.71 184.53
  C 206.75 181.48 194.49 182.93 187.07 184.10
  Q 175.63 185.90 163.96 183.36
  A 0.24 0.24 0.0 0 1 163.92 182.90
  Q 164.46 182.67 165.24 182.72
  C 176.44 183.42 186.57 181.44 197.51 179.97
  C 206.43 178.76 218.30 175.90 213.60 163.52
  C 212.64 160.99 209.81 161.04 207.70 162.47
  C 195.14 170.95 180.33 176.05 166.35 180.34
  C 164.99 180.75 163.45 180.54 162.76 182.24
  Q 162.62 182.59 162.86 182.71
  Q 163.15 182.85 163.18 183.17
  Z
  M 214.63 177.26
  C 213.02 182.46 214.74 183.48 219.20 185.28
  A 1.19 1.16 -45.9 0 0 220.16 185.25
  C 225.35 182.79 224.64 171.64 220.42 168.59
  A 1.71 1.70 -58.8 0 0 217.88 169.22
  Q 215.82 173.40 214.63 177.26
  Z
  M 76.60 178.76
  C 68.75 175.63 59.25 172.03 52.58 173.32
  C 50.26 173.77 49.99 176.03 51.67 177.57
  C 57.35 182.72 70.68 180.49 77.98 180.28
  A 0.49 0.49 0.0 0 0 78.41 179.59
  Q 78.17 179.04 77.55 178.95
  Q 76.81 178.84 76.60 178.76
  Z
  M 108.99 185.25
  C 103.04 183.80 72.88 177.94 72.24 188.02
  C 71.13 205.57 105.56 197.96 109.93 187.06
  A 1.35 1.35 0.0 0 0 108.99 185.25
  Z
  M 68.75 185.10
  Q 65.29 184.63 62.01 185.55
  A 1.65 1.64 64.1 0 0 61.13 188.10
  Q 64.36 192.57 67.65 197.79
  C 69.04 200.01 73.06 201.40 74.00 198.17
  A 0.73 0.71 36.2 0 0 73.90 197.57
  L 69.89 191.73
  A 0.65 0.59 -63.4 0 1 69.78 191.34
  L 70.05 186.69
  A 1.52 1.51 -84.5 0 0 68.75 185.10
  Z
  M 167.06 189.94
  Q 167.05 189.53 166.01 189.46
  A 0.42 0.42 0.0 0 0 165.58 190.01
  C 168.36 198.26 178.06 202.89 186.00 204.53
  Q 194.52 206.29 202.63 209.42
  C 206.25 210.82 214.33 209.21 209.57 203.88
  C 203.41 196.99 193.45 195.13 184.80 194.27
  C 178.26 193.62 171.83 193.17 167.06 189.94
  Z
  M 107.19 216.61
  C 114.76 220.47 126.74 206.35 132.20 202.10
  C 137.00 198.37 140.21 195.11 143.69 190.79
  A 0.66 0.66 0.0 0 0 142.89 189.79
  Q 133.03 194.63 122.34 198.00
  C 114.68 200.42 102.91 205.90 106.65 216.01
  A 1.08 1.07 -87.2 0 0 107.19 216.61
  Z
  M 144.78 192.56
  C 134.58 204.93 122.33 216.54 108.60 224.86
  C 106.67 226.02 105.74 227.52 107.28 229.61
  C 112.86 237.22 122.18 233.83 126.58 227.07
  C 133.90 215.80 141.44 206.00 145.71 193.07
  A 0.54 0.54 0.0 0 0 144.78 192.56
  Z
  M 129.94 244.81
  C 138.31 248.56 140.90 234.88 142.71 228.24
  Q 146.24 215.33 148.58 202.17
  Q 149.37 197.75 147.23 194.26
  A 0.73 0.73 0.0 0 0 145.89 194.54
  Q 144.53 204.54 139.15 212.83
  C 134.73 219.65 131.97 225.18 128.67 231.71
  C 127.49 234.05 126.06 243.08 129.94 244.81
  Z
  M 152.84 199.16
  Q 152.30 198.59 151.64 198.52
  A 0.57 0.57 0.0 0 0 151.01 199.20
  C 153.06 209.42 145.82 221.32 145.23 231.23
  C 145.00 235.09 146.20 245.53 150.93 245.45
  C 152.94 245.42 155.26 242.61 155.31 241.00
  Q 155.63 231.30 157.37 221.79
  C 158.79 214.00 158.62 205.21 152.84 199.16
  Z
  M 83.29 200.87
  Q 78.48 199.79 75.74 200.25
  C 73.58 200.61 73.18 203.20 74.55 204.75
  C 80.18 211.13 87.42 205.80 92.32 201.23
  A 0.37 0.37 0.0 0 0 91.97 200.60
  C 88.58 201.43 86.83 201.67 83.29 200.87
  Z
  M 123.70 237.27
  C 121.32 236.74 109.76 234.05 109.75 238.37
  C 109.74 241.58 117.04 245.21 119.51 246.00
  Q 122.95 247.09 125.60 244.58
  A 0.87 0.85 -25.1 0 0 125.86 243.88
  L 125.41 239.20
  A 2.21 2.21 0.0 0 0 123.70 237.27
  Z"
/>
<path fill="#000000" d="
  M 375.71 129.10
  C 384.61 124.43 380.53 114.32 373.71 110.34
  Q 368.23 107.14 362.99 103.52
  C 354.34 97.54 352.52 85.01 361.01 78.40
  C 368.44 72.62 380.33 72.97 388.86 76.40
  A 0.93 0.91 8.5 0 1 389.44 77.17
  L 390.44 87.36
  A 1.68 1.68 0.0 0 1 387.34 88.41
  Q 386.27 86.67 385.17 84.51
  C 376.55 67.58 355.00 85.77 373.78 95.44
  C 381.64 99.49 390.63 103.78 392.27 113.27
  C 395.07 129.44 377.75 135.83 365.02 133.50
  C 353.53 131.40 353.33 128.35 352.79 117.46
  A 1.63 1.62 74.1 0 1 353.62 115.96
  C 354.90 115.26 356.09 116.30 356.54 117.49
  C 359.18 124.47 367.93 133.18 375.71 129.10
  Z"
/>
<path fill="#000000" d="
  M 828.55 90.38
  L 828.24 90.37
  Q 827.67 90.37 827.67 90.94
  L 827.43 126.60
  A 2.14 2.14 0.0 0 0 829.10 128.70
  L 834.48 129.89
  A 1.45 1.45 0.0 0 1 834.17 132.75
  L 814.96 132.75
  A 1.44 1.44 0.0 0 1 814.53 129.94
  L 819.00 128.55
  Q 819.54 128.38 819.86 127.92
  Q 821.21 125.97 821.26 124.75
  Q 821.96 109.20 823.04 93.67
  Q 823.48 87.27 823.15 83.57
  C 822.73 78.87 819.21 79.16 815.90 77.58
  A 1.28 1.28 0.0 0 1 816.44 75.14
  L 834.31 74.98
  A 1.72 1.71 86.7 0 1 836.03 76.52
  Q 836.41 80.18 838.07 83.87
  Q 845.04 99.41 852.92 114.24
  A 0.89 0.89 0.0 0 0 854.51 114.21
  C 860.42 101.86 867.82 88.60 871.28 75.49
  Q 871.41 74.99 871.93 75.00
  L 889.87 75.19
  A 0.88 0.87 81.4 0 1 890.70 75.81
  C 891.16 77.27 889.99 78.10 888.64 78.22
  Q 882.48 78.78 882.49 85.99
  Q 882.53 110.13 883.60 126.18
  C 883.83 129.57 887.77 129.12 889.87 130.00
  A 1.47 1.47 0.0 0 1 889.30 132.82
  L 865.15 132.77
  A 0.77 0.77 0.0 0 1 864.52 132.44
  Q 863.31 130.72 865.07 129.84
  C 867.43 128.65 871.20 130.18 871.14 125.50
  Q 870.91 108.54 871.03 91.83
  A 0.44 0.44 0.0 0 0 870.19 91.64
  Q 860.67 111.73 852.04 132.00
  C 850.99 134.46 848.27 135.04 847.18 132.29
  Q 839.11 112.06 829.43 92.56
  Q 829.14 91.96 828.96 90.73
  A 0.42 0.41 -4.0 0 0 828.55 90.38
  Z"
/>
<path fill="#000000" d="
  M 443.0535 107.5281
  A 22.92 22.25 -11.2 0 1 424.8917 133.8063
  A 22.92 22.25 -11.2 0 1 398.0865 116.4319
  A 22.92 22.25 -11.2 0 1 416.2483 90.1537
  A 22.92 22.25 -11.2 0 1 443.0535 107.5281
  Z
  M 414.64 94.49
  C 404.27 99.41 406.15 126.78 417.93 130.41
  C 439.55 137.07 437.54 83.62 414.64 94.49
  Z"
/>
<path fill="#000000" d="
  M 485.24 101.76
  C 483.58 97.43 481.11 94.03 475.92 93.28
  C 456.92 90.54 453.54 118.14 465.11 127.79
  C 469.96 131.83 476.64 131.92 481.58 128.13
  C 483.74 126.46 485.19 123.71 486.53 121.26
  A 1.18 1.18 0.0 0 1 488.74 121.73
  Q 489.16 126.78 486.67 131.06
  Q 486.40 131.52 485.91 131.70
  C 475.15 135.70 461.91 134.86 453.71 126.63
  C 446.32 119.20 446.44 105.09 454.09 97.28
  C 462.13 89.08 475.70 88.12 486.18 91.74
  A 0.73 0.72 -83.7 0 1 486.66 92.35
  L 487.62 101.18
  A 1.24 1.23 -58.7 0 1 485.24 101.76
  Z"
/>
<path fill="#000000" d="
  M 1003.0028 107.8653
  A 22.96 22.28 -10.4 0 1 984.4420 133.9240
  A 22.96 22.28 -10.4 0 1 957.8372 116.1547
  A 22.96 22.28 -10.4 0 1 976.3980 90.0960
  A 22.96 22.28 -10.4 0 1 1003.0028 107.8653
  Z
  M 985.57 94.63
  C 978.38 90.06 970.92 94.77 968.92 102.69
  C 966.70 111.46 967.89 130.46 980.54 130.89
  C 996.58 131.44 995.75 101.10 985.57 94.63
  Z"
/>
<path fill="#000000" d="
  M 1092.48 121.77
  C 1095.20 128.04 1101.06 133.84 1108.22 129.14
  A 1.56 1.54 84.3 0 0 1108.81 128.41
  C 1115.07 112.96 1085.82 114.98 1092.54 97.91
  C 1095.87 89.47 1106.77 88.27 1114.32 91.18
  C 1117.19 92.28 1117.13 97.63 1117.02 99.90
  A 1.37 1.37 0.0 0 1 1114.37 100.30
  C 1112.45 95.04 1107.85 90.61 1102.00 93.97
  Q 1099.30 95.52 1099.75 99.26
  C 1100.93 108.95 1119.79 107.32 1118.65 121.92
  C 1117.74 133.55 1103.82 135.47 1094.76 132.74
  C 1089.39 131.12 1089.82 126.69 1089.49 121.99
  A 1.36 1.35 88.2 0 1 1090.85 120.54
  Q 1091.29 120.54 1091.86 120.95
  Q 1092.24 121.22 1092.48 121.77
  Z"
/>
<path fill="#000000" d="
  M 690.74 112.22
  C 690.45 123.20 682.33 130.49 672.11 132.42
  Q 669.83 132.85 659.46 132.92
  Q 643.07 133.03 626.66 132.67
  Q 625.76 132.65 625.44 132.29
  Q 625.10 131.91 625.27 131.25
  A 0.51 0.50 -5.3 0 1 625.55 130.92
  L 628.69 129.57
  A 0.95 0.95 0.0 0 0 629.22 128.40
  L 626.22 119.35
  A 1.62 1.60 80.6 0 0 624.70 118.25
  L 615.43 118.25
  A 2.14 2.13 8.7 0 0 613.39 119.74
  L 610.57 128.52
  A 1.13 1.12 -76.7 0 0 611.46 129.98
  L 614.72 130.51
  A 1.18 1.18 0.0 0 1 614.52 132.85
  L 601.37 132.70
  Q 600.76 132.70 600.62 132.10
  L 600.47 131.42
  Q 600.32 130.76 600.99 130.70
  C 603.49 130.47 605.41 129.71 606.47 127.20
  Q 613.30 111.11 619.01 94.61
  A 1.61 1.61 0.0 0 1 619.55 93.87
  L 624.09 90.40
  A 1.08 1.08 0.0 0 1 625.76 90.90
  L 638.89 128.44
  A 1.60 1.58 -86.3 0 0 639.67 129.34
  Q 643.89 131.46 648.48 129.99
  Q 649.01 129.81 649.19 129.28
  Q 649.69 127.83 649.70 126.69
  Q 649.83 112.12 649.75 97.56
  C 649.73 93.28 647.48 94.89 645.53 93.40
  Q 645.05 93.03 645.02 92.58
  A 1.18 1.17 -3.1 0 1 646.15 91.33
  C 657.28 90.89 670.81 89.35 680.56 94.53
  Q 691.05 100.12 690.74 112.22
  Z
  M 658.76 98.19
  L 659.24 125.91
  A 4.27 4.27 0.0 0 0 663.59 130.10
  L 664.99 130.08
  A 16.31 15.81 89.0 0 0 680.51 113.49
  L 680.45 109.85
  A 16.31 15.81 89.0 0 0 664.35 93.82
  L 662.95 93.85
  A 4.27 4.27 0.0 0 0 658.76 98.19
  Z
  M 615.31 113.78
  A 0.77 0.77 0.0 0 0 616.04 114.80
  L 623.74 114.80
  A 0.77 0.77 0.0 0 0 624.47 113.78
  L 620.62 102.38
  A 0.77 0.77 0.0 0 0 619.16 102.38
  L 615.31 113.78
  Z"
/>
<path fill="#000000" d="
  M 1056.71 129.92
  Q 1058.05 130.26 1059.44 130.44
  Q 1060.46 130.57 1060.80 130.95
  Q 1061.25 131.46 1060.95 132.24
  Q 1060.76 132.70 1060.26 132.71
  Q 1052.00 132.81 1043.75 133.04
  C 1035.68 133.26 1031.01 124.99 1027.73 117.75
  C 1026.59 115.23 1024.73 113.79 1022.10 114.84
  A 0.90 0.90 0.0 0 0 1021.53 115.66
  Q 1021.40 121.09 1021.63 126.32
  C 1021.83 130.84 1023.60 129.39 1026.34 130.68
  Q 1027.98 131.46 1026.41 132.66
  A 1.28 1.24 26.2 0 1 1025.61 132.92
  L 1008.40 132.68
  A 0.90 0.90 0.0 0 1 1007.55 132.04
  Q 1007.28 131.15 1008.17 130.69
  C 1010.34 129.53 1012.65 130.85 1012.71 126.95
  Q 1012.82 120.72 1012.74 97.53
  C 1012.73 95.07 1011.74 93.85 1009.31 93.76
  A 1.13 1.11 -19.9 0 1 1008.54 93.41
  Q 1007.76 92.58 1008.18 91.97
  Q 1008.43 91.61 1009.09 91.56
  C 1016.16 91.00 1040.24 87.59 1042.47 100.71
  C 1043.40 106.16 1040.27 109.60 1035.86 112.29
  A 0.92 0.92 0.0 0 0 1035.52 113.47
  C 1036.91 116.36 1047.45 138.14 1051.85 127.83
  Q 1058.48 112.28 1064.07 96.34
  C 1065.11 93.37 1067.01 92.26 1069.42 90.61
  Q 1071.00 89.53 1071.61 91.35
  Q 1077.43 108.84 1083.90 126.45
  C 1084.86 129.07 1085.95 130.50 1088.79 130.48
  A 1.19 1.19 0.0 0 1 1089.30 132.74
  Q 1088.40 133.16 1087.24 133.00
  C 1082.33 132.31 1076.70 132.74 1071.73 132.76
  A 0.98 0.98 0.0 0 1 1070.75 131.78
  L 1070.75 131.35
  Q 1070.75 130.68 1071.41 130.55
  L 1073.53 130.13
  A 1.59 1.58 -14.5 0 0 1074.73 128.10
  L 1072.15 119.95
  A 2.44 2.43 81.2 0 0 1069.83 118.25
  Q 1065.54 118.25 1060.99 118.24
  Q 1059.45 118.23 1058.99 119.77
  C 1058.08 122.87 1056.79 125.95 1056.19 129.13
  Q 1056.08 129.77 1056.71 129.92
  Z
  M 1021.32 96.07
  L 1021.69 110.09
  A 2.12 2.12 0.0 0 0 1023.86 112.15
  L 1025.27 112.11
  A 8.69 7.97 88.5 0 0 1033.01 103.22
  L 1032.99 102.34
  A 8.69 7.97 88.5 0 0 1024.79 93.86
  L 1023.38 93.90
  A 2.12 2.12 0.0 0 0 1021.32 96.07
  Z
  M 1060.90 113.93
  A 0.65 0.65 0.0 0 0 1061.52 114.78
  L 1069.52 114.71
  A 0.65 0.65 0.0 0 0 1070.13 113.85
  L 1066.03 102.00
  A 0.65 0.65 0.0 0 0 1064.80 102.01
  L 1060.90 113.93
  Z"
/>
<path fill="#000000" d="
  M 909.91 109.41
  C 913.48 109.29 919.84 110.98 919.96 104.69
  A 0.63 0.63 0.0 0 1 920.55 104.08
  L 921.82 103.98
  Q 922.46 103.93 922.46 104.57
  L 922.58 117.35
  A 1.22 1.22 0.0 0 1 920.15 117.57
  Q 919.80 115.55 918.81 113.90
  Q 918.55 113.47 918.06 113.33
  Q 914.01 112.14 909.81 113.08
  Q 909.28 113.20 909.27 113.74
  Q 909.21 119.39 909.23 125.01
  C 909.24 129.33 912.20 129.64 915.83 130.08
  Q 924.29 131.12 927.57 122.94
  A 1.25 1.24 13.2 0 1 928.82 122.17
  Q 930.84 122.34 930.30 124.76
  Q 929.41 128.75 928.16 131.90
  Q 927.70 133.06 926.46 133.06
  L 894.04 132.91
  A 1.06 1.06 0.0 0 1 893.09 131.39
  C 894.30 128.93 899.89 132.69 899.90 125.74
  Q 899.95 104.45 899.67 96.25
  C 899.58 93.75 896.78 93.37 895.06 92.67
  A 1.09 1.08 -30.6 0 1 895.60 90.59
  C 905.34 91.71 915.92 91.01 925.61 91.04
  A 1.13 1.12 -1.1 0 1 926.73 92.11
  L 927.08 99.92
  Q 927.11 100.52 926.68 100.94
  Q 925.82 101.76 924.77 100.71
  A 0.88 0.86 17.7 0 1 924.53 100.26
  C 923.00 92.58 916.21 93.75 910.24 93.75
  A 0.99 0.99 0.0 0 0 909.25 94.74
  L 909.25 108.77
  A 0.64 0.64 0.0 0 0 909.91 109.41
  Z"
/>
<path fill="#000000" d="
  M 530.54 109.37
  C 534.15 109.14 541.13 110.91 540.77 104.90
  A 0.56 0.55 87.5 0 1 541.30 104.31
  L 543.09 104.25
  Q 543.69 104.22 543.61 104.82
  Q 542.78 111.03 543.69 117.18
  A 1.31 1.31 0.0 0 1 541.19 117.91
  C 540.24 115.80 540.43 113.10 537.08 112.81
  Q 533.90 112.53 530.71 112.84
  Q 530.25 112.88 530.17 113.33
  Q 528.69 121.80 530.78 127.59
  C 531.44 129.45 534.01 129.63 535.66 129.92
  Q 545.21 131.57 548.38 122.89
  A 1.47 1.47 0.0 0 1 551.22 123.51
  Q 550.82 128.40 548.71 132.68
  Q 548.49 133.13 547.99 133.12
  L 514.33 132.84
  A 0.64 0.63 15.7 0 1 513.79 131.88
  L 514.15 131.27
  Q 514.46 130.75 515.05 130.63
  C 517.44 130.14 520.59 130.95 520.63 127.18
  Q 520.81 112.61 520.72 98.04
  C 520.70 94.72 520.02 93.27 516.51 93.24
  A 1.25 1.24 -59.3 0 1 515.92 90.91
  C 516.89 90.37 519.11 90.98 520.12 90.98
  Q 533.06 91.01 545.98 91.00
  A 1.73 1.73 0.0 0 1 547.72 92.66
  Q 547.86 95.67 548.22 99.25
  Q 548.38 100.83 547.21 101.17
  A 1.30 1.30 0.0 0 1 545.64 100.41
  C 544.83 98.41 544.09 96.04 542.13 94.91
  C 539.20 93.23 534.00 93.55 530.42 93.89
  A 0.71 0.70 -2.7 0 0 529.78 94.59
  L 529.78 108.67
  Q 529.78 109.42 530.54 109.37
  Z"
/>
<path fill="#000000" d="
  M 776.27 113.75
  C 776.10 117.61 776.30 121.40 776.23 125.24
  C 776.16 129.26 779.16 129.63 782.50 130.07
  Q 791.27 131.23 794.40 122.91
  A 1.64 1.64 0.0 0 1 797.52 123.93
  L 795.12 132.45
  Q 794.95 133.04 794.33 133.05
  Q 778.27 133.08 762.22 132.84
  Q 761.77 132.83 761.33 132.69
  L 760.74 132.50
  A 0.90 0.90 0.0 0 1 760.89 130.75
  L 764.89 130.15
  Q 765.43 130.07 765.73 129.61
  C 768.47 125.51 767.01 104.53 766.98 98.57
  Q 766.97 96.13 766.32 95.05
  C 764.93 92.72 763.45 93.96 761.97 92.66
  Q 761.49 92.24 761.48 91.68
  A 0.74 0.74 0.0 0 1 762.22 90.92
  L 791.31 91.04
  A 2.42 2.42 0.0 0 1 793.72 93.38
  L 793.95 100.48
  A 1.02 1.01 32.8 0 1 792.00 100.90
  C 788.71 93.08 785.67 93.34 777.78 93.80
  Q 775.96 93.91 775.99 95.74
  L 776.20 108.51
  Q 776.21 109.05 776.74 109.12
  C 780.46 109.62 786.12 110.76 786.83 105.59
  Q 787.11 103.54 789.01 104.07
  Q 789.40 104.18 789.41 104.59
  L 789.53 117.59
  A 0.93 0.92 74.4 0 1 789.09 118.38
  Q 788.21 118.92 787.52 118.21
  Q 787.23 117.91 787.15 117.25
  C 786.48 111.82 780.73 112.23 776.82 113.10
  Q 776.29 113.21 776.27 113.75
  Z"
/>
<path fill="#000000" d="
  M 491.71 92.38
  A 0.85 0.85 0.0 0 1 492.46 91.13
  L 511.06 91.12
  Q 511.63 91.12 511.85 91.65
  Q 512.48 93.17 510.20 93.76
  A 0.70 0.65 -47.0 0 1 509.92 93.78
  Q 506.55 93.33 506.53 96.74
  Q 506.45 111.63 506.61 126.49
  Q 506.66 130.43 510.49 130.36
  A 1.83 1.81 -9.6 0 1 512.25 131.60
  Q 512.48 132.31 511.70 132.72
  Q 511.30 132.93 510.62 132.91
  Q 501.36 132.75 492.40 132.74
  A 0.94 0.94 0.0 0 1 491.59 131.32
  C 493.26 128.54 497.20 132.11 497.23 125.57
  Q 497.28 111.28 497.24 96.99
  C 497.23 92.34 492.83 94.49 491.71 92.38
  Z"
/>
<path fill="#000000" d="
  M 558.93 105.69
  C 559.05 102.26 559.47 96.18 557.07 94.24
  Q 556.71 93.94 556.24 93.89
  Q 555.04 93.75 554.21 92.86
  A 0.88 0.88 0.0 0 1 554.80 91.37
  C 568.97 90.56 595.12 87.48 599.32 106.97
  C 601.39 116.60 596.42 126.58 587.31 130.53
  Q 582.31 132.70 570.70 132.93
  Q 562.18 133.09 553.72 132.66
  A 0.89 0.89 0.0 0 1 553.30 131.02
  Q 554.70 130.15 556.34 130.27
  A 1.32 1.30 22.7 0 0 557.39 129.85
  Q 558.82 128.31 558.77 125.50
  Q 558.59 115.59 558.93 105.69
  Z
  M 568.03 98.00
  L 567.99 125.72
  A 4.26 4.26 0.0 0 0 572.24 129.99
  L 573.48 129.99
  A 16.18 15.96 -89.9 0 0 589.47 113.84
  L 589.47 109.96
  A 16.18 15.96 -89.9 0 0 573.54 93.75
  L 572.30 93.75
  A 4.26 4.26 0.0 0 0 568.03 98.00
  Z"
/>
<path fill="#000000" d="
  M 715.70 128.02
  Q 715.83 112.22 715.70 96.81
  C 715.69 94.97 714.21 93.94 712.49 93.76
  Q 711.42 93.65 711.13 92.71
  A 1.05 1.04 80.0 0 1 712.08 91.35
  C 726.39 90.77 752.02 87.41 756.33 107.03
  C 759.44 121.21 748.74 131.72 734.68 132.51
  Q 722.63 133.18 710.70 132.70
  A 0.83 0.83 0.0 0 1 710.27 131.18
  Q 711.60 130.29 713.33 130.33
  A 2.33 2.33 0.0 0 0 715.70 128.02
  Z
  M 725.01 97.91
  L 725.01 125.85
  A 4.16 4.16 0.0 0 0 729.17 130.01
  L 731.06 130.01
  A 16.19 15.43 90.0 0 0 746.49 113.82
  L 746.49 109.94
  A 16.19 15.43 -90.0 0 0 731.06 93.75
  L 729.17 93.75
  A 4.16 4.16 0.0 0 0 725.01 97.91
  Z"
/>
<path fill="#000000" d="
  M 937.87 140.85
  C 940.33 127.36 939.27 112.56 939.25 98.85
  C 939.25 95.32 938.22 93.18 934.44 93.30
  A 0.90 0.89 -28.9 0 1 933.91 93.15
  Q 932.51 92.29 933.35 91.24
  Q 933.63 90.89 934.08 90.91
  Q 943.17 91.42 952.24 90.97
  Q 954.01 90.88 953.64 92.60
  A 1.12 1.11 -80.9 0 1 952.43 93.48
  C 948.74 93.06 948.20 96.07 948.23 99.08
  Q 948.39 112.41 948.14 125.72
  C 947.92 136.90 944.14 145.08 931.77 146.04
  Q 929.36 146.22 927.35 144.55
  A 1.07 1.05 20.9 0 1 926.98 143.75
  Q 927.02 140.12 930.33 138.80
  A 0.95 0.94 49.3 0 1 931.18 138.87
  L 935.85 141.75
  A 1.34 1.34 0.0 0 0 937.87 140.85
  Z"
/>
<path fill="#000000" d="
  M 767.21 213.05
  L 767.34 232.93
  A 1.08 1.07 -70.1 0 0 767.72 233.75
  Q 770.39 236.04 773.99 235.66
  A 1.10 1.09 -10.0 0 1 775.17 236.48
  Q 775.83 239.11 773.51 239.05
  Q 760.81 238.72 748.12 239.18
  A 1.55 1.54 -7.7 0 1 746.55 237.99
  C 746.16 236.30 747.68 235.67 749.16 235.68
  C 753.55 235.71 754.50 232.90 754.50 228.95
  Q 754.50 208.97 754.52 189.01
  C 754.52 184.13 751.82 185.25 748.70 183.71
  Q 748.30 183.51 748.19 183.09
  Q 747.43 180.24 749.74 180.46
  C 763.10 181.75 777.05 180.75 790.53 181.08
  Q 791.14 181.09 791.16 181.70
  L 791.41 194.12
  A 0.84 0.83 -13.1 0 1 790.91 194.91
  Q 789.24 195.66 787.81 194.43
  A 1.06 1.05 18.7 0 1 787.44 193.70
  C 786.64 183.01 775.48 184.70 768.02 185.18
  A 0.82 0.82 0.0 0 0 767.25 186.00
  L 767.25 206.48
  A 0.58 0.57 -89.5 0 0 767.81 207.06
  Q 773.51 207.18 779.25 207.04
  C 782.56 206.96 782.40 201.97 783.39 200.01
  A 1.71 1.71 0.0 0 1 786.62 200.84
  Q 786.33 208.79 786.64 217.05
  Q 786.70 218.54 786.07 219.15
  Q 785.21 219.99 783.76 219.24
  Q 783.29 218.99 783.16 218.48
  L 782.19 214.54
  A 2.97 2.97 0.0 0 0 779.66 212.32
  Q 773.75 211.62 767.82 212.35
  Q 767.21 212.43 767.21 213.05
  Z"
/>
<path fill="#000000" d="
  M 335.26 212.02
  C 348.04 208.80 346.40 183.84 331.17 185.00
  A 2.34 2.34 0.0 0 0 329.01 187.33
  C 328.99 202.11 327.95 218.14 329.51 232.87
  A 2.69 2.68 1.0 0 0 331.81 235.24
  L 336.10 235.84
  Q 336.77 235.93 336.76 236.61
  L 336.73 238.56
  A 0.60 0.59 0.5 0 1 336.13 239.14
  L 310.16 238.94
  A 1.15 1.15 0.0 0 1 309.06 238.08
  C 308.54 236.12 309.80 235.75 311.46 235.70
  Q 316.42 235.55 316.45 230.69
  Q 316.58 210.47 316.44 190.25
  Q 316.42 187.06 314.51 185.45
  A 1.56 1.53 -27.6 0 0 313.35 185.10
  Q 311.31 185.32 309.67 184.14
  A 1.25 1.25 0.0 0 1 310.28 181.88
  Q 322.70 180.69 334.97 181.11
  C 346.52 181.50 360.59 187.80 356.79 202.19
  C 354.34 211.49 344.47 215.41 335.47 214.61
  A 1.32 1.32 0.0 0 1 335.26 212.02
  Z"
/>
<path fill="#000000" d="
  M 396.03 189.28
  Q 395.90 189.63 395.55 189.75
  L 382.71 194.26
  A 1.11 1.11 0.0 0 1 381.65 192.34
  Q 386.56 188.40 392.34 184.66
  C 395.40 182.68 397.01 186.89 396.03 189.28
  Z"
/>
<path fill="#000000" d="
  M 1155.87 187.15
  A 2.07 2.07 0.0 0 1 1154.50 189.68
  Q 1148.59 191.53 1142.44 193.92
  C 1141.89 194.14 1141.23 193.96 1140.79 193.65
  A 0.85 0.85 0.0 0 1 1140.78 192.28
  L 1151.88 184.11
  A 1.22 1.21 -52.5 0 1 1153.04 183.95
  Q 1155.20 184.79 1155.87 187.15
  Z"
/>
<path fill="#000000" d="
  M 550.81 236.78
  Q 555.29 236.75 557.15 232.17
  Q 565.50 211.56 569.40 200.44
  Q 569.56 199.99 569.95 199.70
  L 574.41 196.35
  A 1.02 1.02 0.0 0 1 575.99 196.83
  Q 582.17 214.63 588.58 232.94
  Q 589.73 236.22 593.78 236.76
  A 0.68 0.66 84.5 0 1 594.34 237.23
  Q 594.96 239.23 593.44 239.17
  Q 584.81 238.87 576.17 239.04
  Q 575.59 239.05 575.41 238.49
  L 575.21 237.85
  Q 575.00 237.18 575.65 236.96
  L 578.94 235.83
  A 0.81 0.81 0.0 0 0 579.45 234.82
  L 576.31 225.10
  A 0.87 0.86 -8.6 0 0 575.48 224.50
  L 565.62 224.50
  A 2.04 2.03 -80.9 0 0 563.69 225.90
  L 560.82 234.63
  A 0.83 0.83 0.0 0 0 561.26 235.64
  C 562.42 236.16 564.27 236.20 565.15 236.86
  Q 566.78 238.08 564.24 239.15
  A 0.55 0.55 0.0 0 1 563.95 239.19
  Q 558.14 238.72 552.32 239.20
  A 0.97 0.97 0.0 0 1 551.55 238.92
  L 550.30 237.68
  A 0.80 0.79 57.2 0 0 549.44 237.49
  Q 538.74 241.54 528.00 239.19
  C 512.88 235.87 506.14 219.33 514.63 206.40
  C 521.95 195.25 536.55 194.80 548.45 197.32
  A 1.56 1.55 -87.2 0 1 549.68 198.68
  L 550.52 207.02
  A 1.34 1.34 0.0 0 1 547.98 207.74
  C 546.94 205.63 546.00 203.31 544.12 201.82
  C 537.32 196.45 527.46 199.03 523.72 206.95
  Q 518.98 216.99 523.19 227.31
  C 528.39 240.07 542.97 240.51 549.01 227.78
  A 1.53 1.52 64.2 0 1 551.87 228.78
  L 550.20 236.02
  A 0.63 0.62 -84.1 0 0 550.81 236.78
  Z
  M 565.46 220.27
  A 0.65 0.65 0.0 0 0 566.09 221.12
  L 574.20 220.99
  A 0.65 0.65 0.0 0 0 574.80 220.13
  L 570.56 208.16
  A 0.65 0.65 0.0 0 0 569.33 208.18
  L 565.46 220.27
  Z"
/>
<path fill="#000000" d="
  M 599.72 216.17
  C 592.57 209.28 596.88 198.29 606.49 196.45
  C 608.66 196.03 620.07 195.26 621.08 199.17
  Q 621.96 202.58 621.67 206.09
  A 1.27 1.27 0.0 0 1 619.27 206.56
  C 617.06 202.25 613.49 196.89 607.91 199.52
  Q 604.76 201.01 604.36 204.36
  C 603.58 210.86 616.50 214.52 620.32 218.98
  C 626.88 226.65 622.24 237.26 612.92 239.39
  C 608.25 240.46 602.12 240.30 597.58 238.17
  C 594.54 236.76 594.21 231.15 593.99 228.24
  A 1.48 1.46 -24.1 0 1 594.46 227.04
  Q 595.52 226.04 596.49 226.97
  Q 596.86 227.32 597.24 228.23
  C 599.03 232.48 603.21 237.32 608.19 237.06
  C 612.55 236.83 615.38 232.80 614.16 228.56
  C 612.31 222.10 604.28 220.56 599.72 216.17
  Z"
/>
<path fill="#000000" d="
  M 843.94 210.84
  C 842.04 203.77 847.32 197.21 854.44 196.43
  Q 861.57 195.64 866.26 196.96
  C 869.35 197.82 868.87 203.92 868.70 206.37
  A 1.09 1.09 0.0 0 1 866.63 206.78
  C 865.46 204.42 863.97 201.66 861.91 200.22
  C 854.36 194.96 846.48 205.59 856.79 211.69
  C 864.50 216.25 875.03 221.51 869.25 232.90
  C 865.38 240.55 854.29 240.90 847.08 239.13
  C 841.92 237.87 841.40 231.92 841.54 227.59
  A 1.22 1.22 0.0 0 1 843.83 227.05
  C 846.44 231.87 851.53 240.05 858.42 236.28
  C 863.15 233.69 862.44 227.83 858.68 224.07
  C 854.78 220.18 846.01 218.52 843.94 210.84
  Z"
/>
<path fill="#000000" d="
  M 888.46 202.52
  C 889.65 199.15 891.60 198.18 894.38 196.35
  A 0.98 0.98 0.0 0 1 895.85 196.85
  Q 901.78 214.17 907.93 231.57
  C 909.03 234.66 910.12 236.21 913.32 236.70
  A 1.00 0.98 77.5 0 1 913.98 237.13
  Q 915.30 239.11 912.94 239.06
  Q 904.64 238.90 896.33 239.04
  Q 895.86 239.04 895.56 238.70
  Q 894.76 237.81 895.76 236.80
  A 1.17 1.16 21.7 0 1 896.56 236.46
  Q 898.21 236.44 899.07 235.08
  A 0.95 0.93 -37.9 0 0 899.17 234.32
  L 896.42 225.81
  A 1.89 1.89 0.0 0 0 894.62 224.50
  L 885.24 224.50
  A 1.83 1.82 9.0 0 0 883.50 225.76
  L 880.67 234.44
  A 1.09 1.09 0.0 0 0 881.46 235.83
  Q 882.94 236.18 884.68 236.90
  Q 885.82 237.38 885.43 238.36
  A 1.20 1.20 0.0 0 1 884.31 239.10
  L 871.64 238.96
  A 1.07 1.06 -55.6 0 1 871.26 236.91
  L 875.45 235.21
  A 0.85 0.81 -0.5 0 0 875.88 234.79
  Q 882.73 218.85 888.46 202.52
  Z
  M 885.37 220.26
  A 0.60 0.60 0.0 0 0 885.95 221.05
  L 894.03 220.95
  A 0.60 0.60 0.0 0 0 894.59 220.15
  L 890.40 208.12
  A 0.60 0.60 0.0 0 0 889.26 208.14
  L 885.37 220.26
  Z"
/>
<path fill="#000000" d="
  M 918.18 204.68
  C 926.91 194.59 939.62 195.51 951.36 196.82
  A 1.30 1.30 0.0 0 1 952.51 198.03
  L 953.07 207.21
  A 0.98 0.97 84.2 0 1 952.24 208.23
  Q 951.14 208.40 950.68 207.19
  C 946.36 195.82 930.66 196.67 925.79 206.81
  C 920.30 218.23 924.29 236.87 940.25 237.27
  C 945.35 237.40 944.07 229.31 943.96 226.09
  A 2.20 2.19 4.3 0 0 942.16 224.01
  L 937.96 223.26
  Q 937.50 223.18 937.50 222.71
  L 937.50 221.83
  A 0.67 0.67 0.0 0 1 938.17 221.16
  L 956.86 221.20
  Q 957.34 221.20 957.34 221.68
  L 957.34 222.58
  Q 957.34 223.29 956.64 223.42
  C 951.43 224.40 953.51 233.57 954.55 236.83
  Q 954.69 237.28 954.24 237.43
  C 945.37 240.32 932.83 241.57 924.46 237.12
  C 913.09 231.07 909.45 214.76 918.18 204.68
  Z"
/>
<path fill="#000000" d="
  M 983.76 235.87
  A 1.25 1.25 0.0 0 0 984.45 234.35
  L 981.84 226.12
  A 2.28 2.27 -8.7 0 0 979.67 224.53
  L 971.69 224.49
  A 3.44 3.42 9.2 0 0 968.42 226.83
  L 966.01 234.07
  A 1.51 1.50 12.5 0 0 967.27 236.04
  Q 968.99 236.24 970.35 237.27
  A 1.03 1.03 0.0 0 1 969.71 239.12
  L 956.56 238.93
  A 0.95 0.95 0.0 0 1 956.24 237.10
  L 960.63 235.43
  A 1.42 1.40 0.4 0 0 961.44 234.64
  L 974.80 200.13
  Q 974.94 199.75 975.26 199.52
  L 979.36 196.51
  A 1.17 1.17 0.0 0 1 981.16 197.07
  Q 987.57 215.53 993.95 233.56
  C 995.03 236.62 997.85 235.62 999.47 237.39
  A 0.99 0.99 0.0 0 1 998.74 239.05
  L 981.49 238.98
  A 1.18 1.18 0.0 0 1 980.42 238.30
  Q 979.89 237.18 981.21 236.78
  Q 982.71 236.33 983.76 235.87
  Z
  M 970.68 220.03
  A 0.77 0.77 0.0 0 0 971.42 221.04
  L 979.08 220.96
  A 0.77 0.77 0.0 0 0 979.80 219.94
  L 975.85 208.58
  A 0.77 0.77 0.0 0 0 974.39 208.60
  L 970.68 220.03
  Z"
/>
<path fill="#000000" d="
  M 1003.89 215.01
  C 999.21 209.01 1001.24 201.36 1007.76 197.74
  C 1012.13 195.32 1019.83 195.99 1024.47 197.05
  A 2.20 2.18 -87.0 0 1 1026.16 198.94
  L 1026.91 205.63
  A 1.48 1.48 0.0 0 1 1024.07 206.37
  C 1021.74 200.79 1016.31 195.75 1010.53 201.24
  Q 1008.86 202.83 1009.65 205.81
  C 1011.55 213.06 1022.55 214.01 1026.56 220.49
  Q 1029.41 225.11 1027.89 230.59
  C 1025.24 240.15 1013.02 241.21 1004.91 239.15
  C 999.99 237.90 998.37 231.81 999.48 227.36
  A 1.19 1.19 0.0 0 1 1001.69 227.12
  C 1004.12 231.97 1008.12 237.94 1014.25 236.98
  C 1021.00 235.93 1020.65 227.16 1016.19 223.81
  C 1013.60 221.87 1007.16 219.21 1003.89 215.01
  Z"
/>
<path fill="#000000" d="
  M 1162.28 235.68
  L 1166.10 237.11
  A 0.97 0.97 0.0 0 1 1166.57 238.56
  Q 1166.49 238.69 1166.16 238.86
  Q 1165.95 238.98 1165.68 238.98
  Q 1156.96 239.03 1148.22 238.99
  Q 1147.56 238.98 1147.56 238.32
  L 1147.56 237.47
  A 0.78 0.77 -8.7 0 1 1148.11 236.73
  L 1150.83 235.90
  A 0.81 0.80 73.3 0 0 1151.36 234.90
  L 1148.75 226.16
  A 2.33 2.32 -8.2 0 0 1146.52 224.50
  L 1137.56 224.50
  A 2.17 2.16 9.7 0 0 1135.52 225.94
  L 1132.69 234.05
  A 1.41 1.41 0.0 0 0 1133.62 235.87
  L 1136.75 236.82
  A 1.10 1.10 0.0 0 1 1136.45 238.97
  C 1132.85 239.02 1124.55 239.94 1121.85 237.72
  Q 1121.48 237.41 1121.01 237.53
  C 1109.90 240.34 1096.35 242.38 1087.00 234.12
  C 1077.69 225.89 1077.94 210.45 1087.50 202.12
  C 1095.76 194.92 1108.08 195.57 1118.12 196.94
  A 1.46 1.45 2.0 0 1 1119.38 198.28
  L 1119.99 206.80
  A 1.28 1.28 0.0 0 1 1117.52 207.36
  C 1115.17 201.42 1110.67 198.65 1104.26 199.00
  C 1083.72 200.10 1086.43 240.47 1108.52 237.01
  C 1111.82 236.50 1111.09 228.79 1110.91 226.27
  A 2.33 2.31 5.4 0 0 1109.17 224.18
  Q 1107.49 223.76 1105.32 223.15
  Q 1104.93 223.04 1104.71 222.82
  Q 1104.15 222.28 1104.32 221.73
  A 0.67 0.66 -80.9 0 1 1104.95 221.27
  L 1123.04 221.21
  A 0.93 0.92 -11.6 0 1 1123.89 221.77
  Q 1124.20 222.49 1123.71 223.08
  Q 1123.44 223.41 1122.60 223.63
  Q 1121.71 223.87 1120.90 224.32
  A 1.06 1.05 -11.1 0 0 1120.37 225.10
  Q 1119.66 229.91 1120.33 234.65
  A 2.58 2.57 -0.6 0 0 1122.57 236.84
  C 1125.19 237.17 1127.65 235.55 1128.74 232.99
  Q 1135.57 216.97 1141.26 200.53
  Q 1141.43 200.04 1141.84 199.73
  L 1146.06 196.54
  A 1.20 1.20 0.0 0 1 1147.91 197.10
  L 1160.82 234.19
  A 2.45 2.44 -89.5 0 0 1162.28 235.68
  Z
  M 1137.27 220.23
  A 0.66 0.66 0.0 0 0 1137.90 221.10
  L 1146.04 221.09
  A 0.66 0.66 0.0 0 0 1146.66 220.21
  L 1142.57 208.17
  A 0.66 0.66 0.0 0 0 1141.32 208.18
  L 1137.27 220.23
  Z"
/>
<path fill="#000000" d="
  M 400.89 205.70
  C 400.49 220.51 404.94 242.14 381.09 239.94
  C 370.20 238.94 366.57 233.32 366.57 222.99
  Q 366.57 212.24 366.26 201.47
  A 0.90 0.89 -77.4 0 0 365.78 200.71
  L 361.83 198.73
  A 1.05 1.05 0.0 0 1 361.35 198.22
  Q 360.89 197.13 362.00 197.13
  Q 371.06 197.14 379.92 196.79
  A 0.78 0.78 0.0 0 1 380.70 197.77
  L 380.42 198.78
  A 0.83 0.83 0.0 0 1 379.63 199.40
  Q 376.08 199.46 375.87 202.54
  Q 375.17 212.71 376.14 225.80
  C 377.32 241.58 395.97 239.56 396.55 224.47
  Q 396.99 213.14 396.44 204.21
  C 396.25 200.98 394.70 199.57 391.64 199.30
  A 0.78 0.71 -29.1 0 1 391.43 199.25
  Q 389.80 198.58 390.35 197.33
  Q 390.57 196.85 391.10 196.86
  L 405.58 197.06
  A 1.08 1.08 0.0 0 1 406.60 198.44
  Q 406.33 199.37 405.29 199.62
  C 401.76 200.46 400.99 201.73 400.89 205.70
  Z"
/>
<path fill="#000000" d="
  M 412.37 200.65
  L 409.39 199.63
  A 1.15 1.14 51.5 0 1 409.64 197.41
  C 417.12 196.65 436.98 194.47 441.71 202.55
  C 444.72 207.70 442.19 213.47 436.44 215.07
  A 0.68 0.68 0.0 0 0 436.45 216.38
  Q 447.70 219.35 445.15 230.68
  C 442.72 241.51 417.61 239.39 409.39 239.19
  A 0.93 0.93 0.0 0 1 408.48 238.22
  Q 408.52 237.19 409.53 236.71
  A 1.62 1.59 31.5 0 1 410.23 236.55
  C 413.21 236.55 413.77 234.84 413.77 232.11
  Q 413.73 217.48 413.75 202.59
  A 2.05 2.03 9.8 0 0 412.37 200.65
  Z
  M 422.72 201.82
  L 422.74 213.54
  A 1.76 1.76 0.0 0 0 424.50 215.30
  L 426.41 215.29
  A 7.43 7.35 89.9 0 0 433.75 207.85
  L 433.75 207.47
  A 7.43 7.35 89.9 0 0 426.39 200.05
  L 424.48 200.06
  A 1.76 1.76 0.0 0 0 422.72 201.82
  Z
  M 422.87 219.18
  C 422.53 224.32 420.63 236.18 428.75 235.98
  C 438.79 235.73 438.71 216.45 424.02 217.98
  Q 422.94 218.09 422.87 219.18
  Z"
/>
<path fill="#000000" d="
  M 454.53 232.26
  C 454.36 222.05 454.59 211.86 454.50 201.65
  A 1.34 1.31 19.7 0 0 454.00 200.62
  Q 452.24 199.21 450.02 198.94
  A 0.95 0.95 0.0 0 1 450.13 197.05
  L 468.39 197.00
  A 0.88 0.87 -5.1 0 1 469.25 197.71
  Q 469.39 198.44 468.63 198.82
  Q 466.86 199.69 465.63 200.10
  A 2.29 2.29 0.0 0 0 464.06 202.23
  Q 463.80 217.39 464.22 232.50
  C 464.33 236.79 472.50 236.05 475.31 235.75
  C 481.64 235.09 480.48 229.01 484.14 227.97
  A 1.20 1.20 0.0 0 1 485.63 229.43
  L 483.26 238.52
  A 0.97 0.97 0.0 0 1 482.31 239.25
  L 449.47 239.12
  A 1.01 1.00 -52.9 0 1 449.20 237.15
  L 453.52 235.88
  A 0.99 0.96 -87.8 0 0 454.14 235.29
  Q 454.56 234.14 454.53 232.26
  Z"
/>
<path fill="#000000" d="
  M 490.64 200.30
  L 487.29 199.04
  A 1.13 1.13 0.0 0 1 487.70 196.86
  L 505.82 197.10
  A 1.21 1.21 0.0 0 1 506.06 199.49
  L 503.27 200.09
  A 2.24 2.24 0.0 0 0 501.50 202.28
  Q 501.50 217.28 501.49 232.44
  C 501.49 235.22 502.86 236.61 505.57 236.54
  A 1.30 1.29 -64.2 0 1 506.38 238.87
  Q 505.76 239.34 504.93 239.19
  C 499.69 238.25 492.66 239.05 487.19 238.95
  A 0.59 0.59 0.0 0 1 486.61 238.40
  C 486.36 234.92 492.25 237.83 492.25 232.26
  Q 492.27 217.31 492.24 202.59
  A 2.46 2.45 -80.0 0 0 490.64 200.30
  Z"
/>
<path fill="#000000" d="
  M 643.09 198.48
  A 1.12 1.12 0.0 0 1 644.16 197.33
  C 658.60 196.60 686.52 193.50 688.68 215.21
  C 690.35 231.99 676.02 239.18 661.56 239.24
  Q 652.45 239.29 643.14 238.98
  A 0.98 0.98 0.0 0 1 642.87 237.07
  L 645.62 236.18
  A 2.74 2.73 82.2 0 0 647.50 233.69
  Q 648.10 218.72 647.50 203.19
  C 647.36 199.49 645.38 201.00 643.63 199.56
  Q 643.11 199.14 643.09 198.48
  Z
  M 657.01 204.06
  L 657.01 232.14
  A 3.84 3.84 0.0 0 0 660.85 235.98
  L 663.63 235.98
  A 16.23 14.86 90.0 0 0 678.49 219.75
  L 678.49 216.45
  A 16.23 14.86 -90.0 0 0 663.63 200.22
  L 660.85 200.22
  A 3.84 3.84 0.0 0 0 657.01 204.06
  Z"
/>
<path fill="#000000" d="
  M 693.01 197.74
  L 693.24 197.26
  Q 693.48 196.75 694.04 196.75
  L 723.53 196.75
  A 1.78 1.78 0.0 0 1 725.30 198.34
  L 726.09 206.08
  A 0.98 0.96 -24.0 0 1 725.75 206.93
  Q 724.48 208.00 723.46 206.66
  Q 723.18 206.29 722.97 205.47
  C 721.24 198.73 714.26 200.24 709.02 200.03
  A 1.22 1.22 0.0 0 0 707.75 201.25
  L 707.75 214.67
  A 0.66 0.64 3.0 0 0 708.34 215.31
  Q 711.89 215.63 715.21 215.38
  C 720.06 215.01 717.15 210.84 719.83 210.02
  A 1.16 1.16 0.0 0 1 721.32 211.28
  Q 720.55 217.40 721.38 223.45
  A 1.17 1.17 0.0 0 1 719.24 224.26
  C 717.93 222.29 718.77 219.62 715.52 219.16
  Q 711.90 218.65 708.30 219.22
  Q 707.77 219.31 707.76 219.84
  C 707.73 222.32 706.86 231.85 709.05 234.37
  C 711.16 236.80 719.32 235.76 722.19 235.15
  A 0.50 0.49 -77.9 0 0 722.48 234.96
  L 726.73 228.73
  A 1.11 1.11 0.0 0 1 728.06 228.32
  Q 729.12 228.73 728.98 230.00
  Q 728.47 234.62 726.49 238.79
  Q 726.27 239.25 725.76 239.25
  L 693.26 239.25
  A 1.18 1.17 -57.7 0 1 692.76 237.01
  C 694.94 235.96 698.17 237.12 698.23 233.43
  C 698.40 221.34 699.61 203.63 697.81 200.75
  A 1.57 1.55 -4.5 0 0 697.10 200.15
  L 693.28 198.48
  A 0.55 0.55 0.0 0 1 693.01 197.74
  Z"
/>
<path fill="#000000" d="
  M 833.95 226.23
  C 833.81 234.24 827.26 239.42 819.06 239.80
  C 806.79 240.38 800.55 236.81 799.96 223.96
  Q 799.45 213.03 799.87 202.07
  A 1.15 1.15 0.0 0 0 799.46 201.15
  Q 797.41 199.44 794.78 198.75
  A 0.72 0.71 12.7 0 1 794.26 197.93
  Q 794.47 196.74 796.24 196.87
  Q 804.73 197.48 813.00 196.79
  A 1.02 1.01 10.6 0 1 814.00 198.24
  L 813.64 199.00
  A 0.89 0.89 0.0 0 1 812.87 199.51
  C 810.25 199.61 809.00 200.88 809.00 203.59
  C 809.00 211.40 807.36 226.26 811.35 232.66
  C 814.85 238.27 824.09 237.49 827.56 232.65
  C 831.09 227.73 831.41 207.19 829.16 201.27
  A 1.25 1.25 0.0 0 0 828.43 200.54
  L 824.18 198.87
  A 0.99 0.99 0.0 0 1 824.55 196.96
  L 839.16 197.11
  Q 839.64 197.12 839.82 197.56
  Q 840.13 198.34 839.21 199.25
  Q 838.87 199.59 838.38 199.66
  Q 836.26 199.93 834.85 201.57
  A 1.49 1.47 -24.2 0 0 834.48 202.52
  Q 834.15 214.42 833.95 226.23
  Z"
/>
<path fill="#000000" d="
  M 1035.80 200.14
  L 1032.58 198.69
  A 0.91 0.90 -32.7 0 1 1032.96 196.96
  L 1050.86 197.05
  A 0.91 0.91 0.0 0 1 1051.75 197.83
  Q 1051.95 199.27 1050.25 199.34
  C 1047.92 199.43 1046.75 200.77 1046.75 203.15
  Q 1046.75 213.58 1046.74 223.99
  C 1046.73 229.28 1048.85 235.36 1054.69 236.34
  C 1062.81 237.69 1066.23 233.18 1067.30 225.62
  Q 1068.95 213.92 1067.06 202.19
  Q 1066.98 201.70 1066.63 201.34
  Q 1064.93 199.62 1062.52 199.12
  Q 1060.90 198.78 1061.28 197.60
  A 0.96 0.95 8.7 0 1 1062.19 196.94
  L 1076.34 197.11
  A 1.07 1.07 0.0 0 1 1076.78 199.15
  L 1073.05 200.88
  Q 1072.41 201.18 1072.34 201.89
  Q 1071.45 211.06 1071.76 220.20
  C 1072.05 229.00 1069.63 237.68 1059.77 239.52
  C 1044.89 242.31 1037.36 236.22 1037.28 221.23
  Q 1037.23 211.64 1037.26 202.40
  A 2.48 2.48 0.0 0 0 1035.80 200.14
  Z"
/>
</svg>
