<?xml version="1.0" encoding="UTF-8" standalone="no"?>
<!DOCTYPE svg PUBLIC "-//W3C//DTD SVG 1.1//EN" "http://www.w3.org/Graphics/SVG/1.1/DTD/svg11.dtd">
<svg xmlns="http://www.w3.org/2000/svg" version="1.1" viewBox="0.00 0.00 463.00 439.00">
<path fill="#ff4343" d="
  M 440.19 216.46
  A 209.69 203.69 0.0 0 1 230.50 420.15
  A 209.69 203.69 0.0 0 1 20.81 216.46
  A 209.69 203.69 0.0 0 1 230.50 12.77
  A 209.69 203.69 0.0 0 1 440.19 216.46
  Z
  M 424.7497 216.0910
  A 194.26 188.23 -0.1 0 0 230.1615 28.2003
  A 194.26 188.23 -0.1 0 0 36.2303 216.7690
  A 194.26 188.23 -0.1 0 0 230.8185 404.6597
  A 194.26 188.23 -0.1 0 0 424.7497 216.0910
  Z"
/>
<path fill="#be5108" d="
  M 230.93 199.27
  C 231.28 193.91 231.42 187.93 231.88 183.28
  C 235.23 149.98 242.65 115.10 255.48 84.11
  C 260.27 72.54 269.93 55.83 281.47 51.33
  C 298.26 44.78 305.27 58.64 311.56 70.97
  C 318.64 84.85 325.34 98.79 333.35 112.33
  Q 346.11 133.90 352.26 145.77
  C 355.06 151.17 358.85 163.06 354.30 169.16
  Q 352.44 171.66 346.80 174.66
  Q 335.44 180.71 324.52 187.21
  A 0.50 0.50 0.0 0 0 324.83 188.14
  C 353.25 185.39 381.65 195.92 385.40 227.82
  C 389.10 259.29 380.43 290.75 353.15 309.43
  C 349.16 312.16 344.57 311.05 340.38 309.51
  C 324.22 303.60 308.58 296.49 292.28 290.95
  Q 290.62 290.39 291.00 292.10
  C 291.45 294.11 291.54 296.51 290.50 298.38
  C 287.34 304.07 283.19 300.68 279.11 298.31
  A 0.54 0.54 0.0 0 0 278.30 298.73
  C 276.92 314.53 277.12 330.38 276.96 346.25
  C 276.91 351.42 276.31 357.45 271.08 360.57
  C 243.73 376.82 213.49 372.45 185.84 358.88
  C 165.27 348.78 154.36 333.20 159.01 309.68
  C 160.67 301.28 163.88 294.19 167.57 286.53
  A 0.33 0.33 0.0 0 0 167.09 286.12
  Q 154.89 294.16 142.95 302.91
  C 129.24 312.95 113.26 291.10 105.89 281.42
  Q 85.60 254.76 63.16 229.86
  C 58.65 224.84 53.16 218.42 50.31 212.30
  C 46.48 204.08 51.51 195.29 58.78 191.03
  C 70.92 183.91 87.87 183.42 101.50 184.18
  C 139.87 186.31 179.40 194.51 215.32 208.25
  A 0.94 0.94 0.0 0 0 216.57 207.58
  L 217.61 203.00
  A 0.68 0.67 -69.8 0 0 217.27 202.26
  Q 201.06 193.29 187.44 180.88
  C 184.48 178.18 181.10 177.45 179.09 173.10
  Q 178.90 172.68 179.13 172.28
  C 182.10 167.01 186.64 175.49 187.45 178.05
  Q 187.61 178.56 188.01 178.91
  Q 202.05 191.49 218.54 200.69
  Q 219.06 200.98 219.53 200.63
  Q 221.52 199.15 224.07 198.70
  A 0.56 0.53 46.6 0 1 224.25 198.71
  Q 225.80 199.05 225.79 197.51
  C 225.74 188.59 225.19 175.47 223.14 164.38
  Q 223.04 163.88 222.73 163.48
  C 221.56 161.97 219.09 155.45 222.62 154.45
  Q 225.11 153.75 225.52 156.25
  C 226.09 159.76 225.08 162.87 225.57 166.18
  Q 227.92 182.16 227.71 198.34
  Q 227.70 198.98 228.31 199.19
  L 230.13 199.81
  A 0.61 0.60 -78.7 0 0 230.93 199.27
  Z
  M 290.20 64.91
  C 284.00 62.06 280.84 67.10 280.25 72.51
  Q 279.30 81.44 282.57 88.82
  Q 288.42 102.02 294.34 115.31
  A 0.46 0.46 0.0 0 0 295.22 115.20
  C 296.80 106.11 297.20 99.69 301.72 89.68
  C 303.92 84.81 304.08 81.89 302.02 77.22
  Q 298.23 68.60 290.20 64.91
  Z
  M 271.58 78.05
  C 267.34 87.03 257.71 107.63 267.58 115.64
  A 0.74 0.73 35.5 0 0 268.67 115.46
  Q 272.40 109.45 278.63 105.83
  C 282.55 103.55 283.57 102.21 282.33 97.73
  C 280.81 92.26 276.99 79.84 273.29 77.55
  A 1.19 1.19 0.0 0 0 271.58 78.05
  Z
  M 304.69 97.94
  C 298.20 110.23 297.97 126.53 296.96 140.35
  A 0.62 0.62 0.0 0 0 297.96 140.88
  Q 299.07 140.00 299.80 138.52
  Q 304.96 128.03 309.80 117.37
  C 312.42 111.60 314.64 104.45 312.32 98.41
  C 310.71 94.20 306.82 93.90 304.69 97.94
  Z
  M 292.34 117.79
  C 283.80 102.85 269.28 114.41 267.43 126.00
  Q 265.74 136.63 264.41 154.35
  C 263.43 167.48 260.77 178.73 257.31 190.88
  C 254.93 199.30 248.22 221.15 251.63 226.61
  Q 254.29 230.87 257.09 235.24
  A 0.53 0.52 46.9 0 0 257.95 235.27
  Q 258.69 234.28 259.50 232.50
  Q 277.10 193.96 287.98 157.50
  C 290.82 147.97 297.55 126.91 292.34 117.79
  Z
  M 256.09 165.82
  Q 259.45 144.26 265.24 123.26
  Q 265.95 120.71 264.50 117.92
  A 1.33 1.31 -2.9 0 0 263.80 117.30
  C 253.92 113.44 252.33 126.15 251.66 132.25
  Q 247.99 165.82 246.58 202.09
  A 0.25 0.25 0.0 0 0 247.06 202.21
  Q 248.38 199.50 249.48 195.49
  Q 254.09 178.69 256.09 165.82
  Z
  M 319.42 118.07
  C 317.30 119.21 314.09 125.95 313.22 128.25
  A 2.53 2.52 -68.5 0 0 314.62 131.48
  C 317.79 132.78 322.58 133.68 324.54 136.95
  Q 326.99 141.03 329.43 145.21
  Q 329.66 145.61 330.13 145.51
  C 338.13 143.61 335.77 138.54 332.57 133.89
  Q 327.40 126.42 322.45 118.84
  A 2.30 2.30 0.0 0 0 319.42 118.07
  Z
  M 316.64 136.33
  C 298.19 130.01 288.06 177.93 286.24 188.71
  A 1.63 1.63 0.0 0 0 287.56 190.59
  C 307.69 194.10 343.11 145.40 316.64 136.33
  Z
  M 332.41 149.42
  Q 329.93 153.63 329.12 158.38
  C 327.86 165.71 325.86 170.55 319.80 175.12
  Q 319.35 175.46 319.83 175.75
  Q 320.17 175.95 320.70 175.68
  C 330.31 170.71 346.11 165.57 340.72 151.17
  C 339.27 147.31 334.96 145.08 332.41 149.42
  Z
  M 121.55 207.43
  C 119.03 195.65 95.00 195.81 86.06 195.94
  Q 84.80 195.96 84.14 196.13
  A 1.24 1.24 0.0 0 0 83.47 198.07
  Q 90.34 207.19 99.24 213.51
  C 101.85 215.37 103.70 215.79 106.61 213.98
  C 111.56 210.92 114.04 209.26 121.12 208.06
  Q 121.67 207.97 121.55 207.43
  Z
  M 211.23 223.04
  Q 177.57 210.26 143.49 200.04
  C 138.00 198.39 130.21 196.07 126.36 199.82
  C 123.25 202.86 125.02 207.24 129.15 207.99
  C 136.18 209.26 143.54 210.13 150.23 211.62
  C 170.48 216.13 190.27 222.10 211.06 223.72
  Q 211.60 223.76 211.50 223.50
  A 0.63 0.13 71.0 0 0 211.23 223.04
  Z
  M 82.62 203.80
  C 76.88 200.58 62.11 196.24 64.48 209.19
  C 65.76 216.16 72.11 226.69 80.32 226.91
  C 90.62 227.19 98.31 227.84 107.89 231.12
  Q 111.87 232.49 109.10 229.32
  Q 101.16 220.24 91.41 210.83
  Q 86.20 205.80 82.62 203.80
  Z
  M 302.04 212.35
  C 290.79 223.17 281.91 233.70 269.57 241.91
  A 0.88 0.88 0.0 0 0 270.21 243.51
  C 280.27 241.80 288.56 238.74 297.77 233.98
  Q 302.39 231.60 307.14 229.50
  C 313.22 226.82 339.41 217.93 337.22 207.68
  Q 336.65 205.04 333.79 203.26
  C 324.97 197.76 317.36 201.87 309.36 206.68
  Q 305.52 208.99 302.04 212.35
  Z
  M 229.84 235.23
  C 223.86 232.78 217.06 231.59 210.13 230.30
  C 201.51 228.71 189.37 227.35 179.05 225.28
  C 168.17 223.11 155.00 218.64 145.82 215.44
  Q 135.88 211.98 128.76 211.00
  C 121.09 209.95 106.60 214.21 111.10 225.22
  C 114.93 234.57 124.86 237.01 135.00 238.99
  C 168.72 245.56 204.51 247.37 238.75 246.81
  Q 239.73 246.80 239.22 245.95
  Q 236.78 241.93 233.62 238.04
  Q 232.08 236.16 229.84 235.23
  Z
  M 325.70 244.59
  C 336.99 242.94 360.64 241.55 360.41 224.74
  C 360.33 219.13 357.49 209.24 349.63 214.37
  C 344.70 217.59 339.99 221.13 334.79 223.69
  C 313.48 234.15 293.65 240.08 272.52 246.81
  A 0.53 0.53 0.0 0 0 272.62 247.84
  Q 291.97 250.25 311.20 247.02
  Q 325.65 244.60 325.70 244.59
  Z
  M 370.86 225.41
  C 365.29 219.51 359.23 242.79 359.05 244.26
  C 358.54 248.19 365.04 251.48 368.70 253.11
  Q 369.14 253.30 369.57 253.08
  C 373.29 251.18 375.92 248.17 375.70 243.69
  C 375.41 237.49 375.57 230.40 370.86 225.41
  Z
  M 133.76 243.31
  C 127.24 240.93 85.88 225.23 85.47 237.14
  A 1.20 1.19 26.8 0 0 85.73 237.91
  Q 89.91 243.23 96.74 244.40
  C 106.64 246.09 117.09 245.25 129.68 244.90
  Q 131.90 244.84 133.77 244.11
  A 0.43 0.43 0.0 0 0 133.76 243.31
  Z
  M 184.30 253.06
  C 173.21 250.40 123.95 240.47 121.70 258.09
  C 117.86 288.21 187.23 271.45 184.73 253.53
  A 0.58 0.57 -87.8 0 0 184.30 253.06
  Z
  M 274.14 251.49
  C 278.46 256.29 286.16 258.93 292.34 260.13
  C 314.27 264.41 333.94 268.59 354.86 269.23
  C 360.29 269.39 364.40 268.32 366.49 263.26
  C 370.82 252.71 352.88 249.44 346.78 249.04
  Q 346.05 248.99 333.68 249.42
  C 326.23 249.68 320.02 249.91 311.87 251.21
  Q 295.80 253.76 279.78 250.23
  C 278.05 249.85 276.21 249.92 274.59 250.20
  A 0.78 0.78 0.0 0 0 274.14 251.49
  Z
  M 116.47 252.97
  Q 110.16 252.24 103.94 253.79
  A 2.05 2.05 0.0 0 0 102.76 256.95
  Q 108.31 264.92 113.73 273.01
  Q 115.72 275.98 118.25 277.63
  A 1.45 1.41 55.6 0 0 119.28 277.84
  Q 122.04 277.33 124.24 275.52
  A 1.68 1.68 0.0 0 0 124.52 273.21
  L 117.82 264.26
  A 0.74 0.72 28.0 0 1 117.67 263.79
  L 118.06 254.83
  A 1.79 1.79 0.0 0 0 116.47 252.97
  Z
  M 284.41 270.84
  C 294.43 280.37 306.65 283.83 319.85 286.51
  Q 325.51 287.65 329.93 289.29
  C 335.84 291.47 342.86 295.18 349.06 294.13
  Q 353.35 293.41 353.89 289.85
  C 355.06 282.18 340.61 275.14 335.05 273.25
  Q 321.73 268.73 307.68 267.83
  Q 299.69 267.32 290.16 265.18
  C 285.90 264.22 282.70 261.56 279.01 259.31
  A 0.48 0.48 0.0 0 0 278.29 259.68
  C 277.98 263.46 282.05 268.60 284.41 270.84
  Z
  M 178.57 302.86
  C 179.66 307.10 185.49 307.28 188.77 306.15
  Q 196.95 303.34 203.33 297.33
  Q 213.86 287.42 225.34 278.68
  C 232.23 273.44 237.07 267.75 241.89 261.18
  A 0.94 0.94 0.0 0 0 240.65 259.81
  Q 230.77 265.67 219.85 269.37
  Q 210.87 272.41 210.76 272.45
  C 204.16 274.85 196.94 276.73 191.16 280.81
  C 182.89 286.66 175.63 291.40 178.57 302.86
  Z
  M 183.42 330.34
  C 194.39 338.21 205.90 332.98 212.69 322.68
  C 217.94 314.71 223.22 306.82 228.70 299.00
  Q 239.68 283.34 245.05 264.99
  A 0.55 0.55 0.0 0 0 244.12 264.46
  C 229.10 280.51 215.34 295.67 196.86 310.30
  C 192.43 313.81 187.23 316.57 182.33 319.61
  C 177.02 322.90 179.40 327.46 183.42 330.34
  Z
  M 218.21 352.54
  Q 219.81 353.81 220.55 353.83
  C 231.05 354.17 231.93 348.04 235.41 338.61
  C 241.46 322.16 245.17 304.36 248.96 287.27
  C 250.54 280.15 250.46 274.52 248.52 267.98
  A 1.38 1.38 0.0 0 0 245.86 268.01
  C 243.70 275.89 241.93 283.99 238.08 291.15
  Q 234.64 297.57 230.63 303.64
  C 225.71 311.08 222.45 318.81 218.50 326.57
  C 214.90 333.63 210.56 346.46 218.21 352.54
  Z
  M 252.21 296.82
  C 246.86 313.29 239.41 333.49 247.91 349.57
  C 250.43 354.35 255.96 354.71 258.86 350.13
  C 262.14 344.96 261.64 337.29 261.87 331.34
  Q 262.04 327.00 263.00 322.80
  C 266.53 307.30 269.01 286.38 255.18 274.73
  A 0.84 0.84 0.0 0 0 253.81 275.51
  Q 254.31 278.68 254.72 281.89
  C 255.34 286.65 253.68 292.29 252.21 296.82
  Z
  M 126.41 286.34
  C 131.47 290.83 137.54 291.67 143.39 288.06
  Q 150.90 283.42 157.67 277.88
  A 0.42 0.41 -78.9 0 0 157.21 277.19
  Q 151.21 280.51 144.44 280.18
  C 140.03 279.96 130.14 275.96 125.59 278.84
  C 122.56 280.76 124.23 284.41 126.41 286.34
  Z
  M 184.37 342.28
  C 187.33 348.20 193.86 351.28 199.54 353.88
  C 203.90 355.87 207.64 354.97 211.36 352.45
  Q 211.76 352.18 211.75 351.70
  Q 211.59 346.34 209.72 341.34
  Q 209.54 340.84 209.07 340.57
  C 205.62 338.54 190.11 337.31 185.43 339.35
  A 2.15 2.14 65.0 0 0 184.37 342.28
  Z"
/>
</svg>
