<?xml version="1.0" encoding="UTF-8" standalone="no"?>
<!DOCTYPE svg PUBLIC "-//W3C//DTD SVG 1.1//EN" "http://www.w3.org/Graphics/SVG/1.1/DTD/svg11.dtd">
<svg xmlns="http://www.w3.org/2000/svg" version="1.1" viewBox="0.00 0.00 1280.00 700.00">
<g stroke-width="2.00" fill="none" stroke-linecap="butt">
<path stroke="#60aa45" vector-effect="non-scaling-stroke" d="
  M 513.04 325.07
  C 513.29 329.35 507.69 328.08 505.26 328.32
  C 502.48 328.59 500.70 328.03 498.20 327.26
  Q 497.70 327.11 497.23 327.32
  L 494.38 328.59"
/>
<path stroke="#60aa45" vector-effect="non-scaling-stroke" d="
  M 485.79 329.06
  C 482.81 332.58 476.84 330.44 472.84 330.59
  C 454.98 331.25 437.34 330.25 419.38 330.59
  C 417.11 330.63 415.12 331.57 412.68 331.78"
/>
<path stroke="#2a863f" vector-effect="non-scaling-stroke" d="
  M 507.96 366.16
  Q 508.00 367.48 507.71 368.32
  C 507.15 369.94 504.28 369.95 503.00 369.76
  C 497.67 368.96 493.73 368.67 487.99 369.03
  Q 476.49 369.75 464.93 368.79
  A 1.47 1.46 -60.1 0 0 463.98 369.05
  Q 461.99 370.44 459.30 370.18"
/>
<path stroke="#3d923e" vector-effect="non-scaling-stroke" d="
  M 529.95 446.01
  Q 528.84 448.08 530.16 449.95
  Q 530.47 450.39 530.75 449.93
  Q 532.48 447.11 530.87 445.93"
/>
<path stroke="#2a863f" vector-effect="non-scaling-stroke" d="
  M 627.59 359.60
  Q 626.27 358.63 625.31 359.80
  Q 625.01 360.16 624.65 359.87
  Q 623.76 359.16 622.56 359.15
  C 611.83 359.04 600.70 358.34 590.01 359.06
  C 582.87 359.54 572.77 360.42 564.25 359.99
  Q 561.72 359.86 558.82 361.01
  Q 558.46 361.16 558.47 360.77
  L 558.51 358.48"
/>
<path stroke="#60aa45" vector-effect="non-scaling-stroke" d="
  M 657.88 328.55
  Q 648.31 326.91 645.18 327.04
  C 634.55 327.49 621.65 326.32 607.82 327.41
  C 602.51 327.82 596.82 327.69 591.29 328.08
  Q 591.04 328.10 591.04 327.86
  L 591.04 327.49
  Q 591.04 327.38 590.92 327.37
  L 583.31 326.71
  Q 582.84 326.67 582.85 326.20
  L 582.89 324.45"
/>
<path stroke="#076237" vector-effect="non-scaling-stroke" d="
  M 466.96 436.76
  L 466.78 427.26
  A 0.28 0.28 0.0 0 0 466.22 427.21
  Q 466.19 427.34 466.21 427.50
  Q 466.27 427.95 466.02 428.32
  Q 464.77 430.18 462.99 429.04
  Q 454.52 423.59 446.70 421.01
  C 439.59 418.65 433.82 415.63 427.23 413.01
  C 415.69 408.42 405.53 403.21 393.14 400.50
  C 391.88 400.22 390.73 400.63 389.55 400.22
  A 0.82 0.81 9.6 0 1 389.00 399.45
  L 389.00 389.75
  A 0.12 0.12 0.0 0 0 388.76 389.75
  L 388.30 413.51"
/>
<path stroke="#076237" vector-effect="non-scaling-stroke" d="
  M 675.26 388.25
  Q 674.68 388.43 674.76 388.99
  Q 674.86 389.64 674.68 390.22
  Q 674.50 390.78 674.50 390.19
  L 674.50 389.54
  Q 674.50 389.11 674.28 389.48
  L 674.14 389.71
  Q 674.01 389.93 673.78 389.84
  L 668.83 388.05
  Q 668.50 387.93 668.50 388.28
  L 668.50 388.76
  Q 668.50 389.08 668.18 389.07
  Q 645.41 388.05 627.06 388.75
  Q 618.39 389.08 603.08 390.69"
/>
<path stroke="#3ca046" vector-effect="non-scaling-stroke" d="
  M 1180.8714 240.6879
  A 1.69 0.59 131.9 0 0 1182.4391 239.8240
  A 1.69 0.59 131.9 0 0 1183.1286 238.1721
  A 1.69 0.59 131.9 0 0 1181.5609 239.0360
  A 1.69 0.59 131.9 0 0 1180.8714 240.6879"
/>
<path stroke="#7ebe42" vector-effect="non-scaling-stroke" d="
  M 621.3624 289.0983
  A 0.27 0.27 0.0 0 0 620.9892 289.0177
  L 611.5916 295.0740
  A 0.27 0.27 0.0 0 0 611.5109 295.4472
  L 611.5976 295.5817
  A 0.27 0.27 0.0 0 0 611.9708 295.6623
  L 621.3684 289.6060
  A 0.27 0.27 0.0 0 0 621.4491 289.2328
  L 621.3624 289.0983"
/>
</g>
<path fill="#058947" d="
  M 1180.49 241.48
  A 0.42 0.41 61.4 0 0 1179.83 241.28
  C 1163.06 255.17 1143.72 266.52 1125.43 274.68
  Q 1101.63 285.30 1073.97 287.32
  C 1060.89 288.28 1047.05 287.09 1033.73 285.31
  Q 1031.08 284.96 1031.59 281.96
  C 1042.35 218.52 1112.51 209.74 1162.74 206.90
  Q 1177.31 206.07 1182.64 205.02
  Q 1203.64 200.88 1220.75 187.53
  A 0.83 0.83 0.0 0 1 1222.09 188.24
  Q 1221.60 195.42 1219.83 202.82
  C 1213.60 228.81 1206.71 254.87 1192.29 277.30
  C 1173.85 305.98 1148.44 321.03 1115.51 327.03
  Q 1090.62 331.57 1066.76 331.77
  Q 1061.04 331.82 1056.90 333.76
  C 1034.38 344.35 1019.28 368.00 1011.91 390.97
  A 0.70 0.70 0.0 0 1 1010.98 391.40
  Q 1010.69 391.28 1010.70 390.82
  Q 1010.71 390.39 1010.67 390.20
  C 1005.23 365.02 1000.69 336.35 1015.16 313.45
  Q 1020.47 305.05 1030.31 302.95
  C 1035.10 301.92 1041.67 302.84 1047.07 303.06
  C 1074.45 304.18 1100.31 296.66 1125.31 286.26
  C 1147.86 276.87 1166.28 262.19 1180.40 242.13
  C 1180.53 241.95 1180.55 241.66 1180.49 241.48
  Z
  M 1180.8714 240.6879
  A 1.69 0.59 131.9 0 0 1182.4391 239.8240
  A 1.69 0.59 131.9 0 0 1183.1286 238.1721
  A 1.69 0.59 131.9 0 0 1181.5609 239.0360
  A 1.69 0.59 131.9 0 0 1180.8714 240.6879
  Z"
/>
<path fill="#8ac63f" d="
  M 827.16 297.20
  Q 823.30 297.77 819.80 300.31
  C 797.98 316.13 790.58 340.50 790.51 366.59
  A 2.28 2.21 58.1 0 1 790.31 367.52
  L 789.72 368.85
  Q 789.50 369.34 789.12 369.72
  C 784.39 374.37 779.29 379.17 775.39 384.24
  Q 757.33 407.72 749.55 437.35
  A 0.45 0.45 0.0 0 1 748.67 437.23
  Q 748.82 334.33 748.73 231.00
  C 748.73 227.59 750.80 227.80 753.45 227.77
  C 801.03 227.13 830.17 226.95 868.00 229.01
  Q 882.52 229.81 893.50 231.76
  Q 895.07 232.04 895.92 232.04
  Q 896.48 232.04 896.84 231.60
  L 905.88 220.55
  A 0.49 0.49 0.0 0 1 906.72 221.01
  C 899.78 241.65 880.80 260.26 863.71 272.98
  C 851.70 281.91 839.94 285.53 832.57 299.91
  C 831.02 302.93 831.02 306.37 830.59 309.68
  A 0.66 0.66 0.0 0 1 829.29 309.76
  Q 827.79 303.86 827.76 297.72
  Q 827.76 297.11 827.16 297.20
  Z"
/>
<path fill="#72b644" d="
  M 513.04 325.07
  C 513.29 329.35 507.69 328.08 505.26 328.32
  C 502.48 328.59 500.70 328.03 498.20 327.26
  Q 497.70 327.11 497.23 327.32
  L 494.38 328.59
  Q 479.55 311.62 461.18 298.33
  Q 460.19 297.62 459.26 297.28
  A 0.47 0.47 0.0 0 0 458.78 298.06
  Q 473.13 312.13 485.79 329.06
  C 482.81 332.58 476.84 330.44 472.84 330.59
  C 454.98 331.25 437.34 330.25 419.38 330.59
  C 417.11 330.63 415.12 331.57 412.68 331.78
  C 402.48 321.26 393.74 310.54 390.00 296.05
  C 387.70 287.14 388.36 276.94 386.94 267.40
  Q 384.18 248.83 376.76 231.14
  Q 376.20 229.79 377.66 229.78
  C 378.52 229.78 379.87 229.63 380.79 229.88
  Q 415.68 239.44 447.51 256.39
  C 476.02 271.57 498.49 296.15 513.04 325.07
  Z"
/>
<path fill="#8ac63f" d="
  M 274.36 274.99
  Q 274.21 274.12 272.91 273.05
  Q 253.39 257.13 228.72 251.63
  C 206.43 246.65 174.14 247.99 164.58 273.96
  C 159.07 288.93 166.76 303.82 178.99 313.65
  C 196.51 327.73 215.12 333.62 236.92 341.07
  C 268.02 351.70 300.03 371.27 309.42 405.27
  Q 315.50 427.27 309.52 450.22
  A 0.53 0.53 0.0 0 1 308.50 450.21
  Q 308.45 450.00 308.44 449.68
  C 307.38 422.49 299.95 398.08 278.94 379.81
  C 266.46 368.96 253.16 361.83 236.82 355.83
  Q 217.60 348.78 198.38 341.76
  C 174.59 333.07 150.56 318.36 148.44 290.26
  C 146.18 260.41 165.11 238.09 193.77 232.28
  C 219.06 227.15 246.97 231.12 267.78 247.11
  C 285.50 260.73 304.27 269.48 326.33 274.19
  A 0.65 0.64 -57.0 0 1 326.57 275.34
  C 300.75 294.42 268.09 305.17 235.93 297.37
  Q 204.89 289.85 183.31 265.94
  A 1.57 1.57 0.0 0 1 183.65 263.56
  C 206.95 249.04 250.69 265.24 273.38 275.75
  Q 274.60 276.31 274.36 274.99
  Z"
/>
<path fill="#72b644" d="
  M 657.88 328.55
  Q 648.31 326.91 645.18 327.04
  C 634.55 327.49 621.65 326.32 607.82 327.41
  C 602.51 327.82 596.82 327.69 591.29 328.08
  Q 591.04 328.10 591.04 327.86
  L 591.04 327.49
  Q 591.04 327.38 590.92 327.37
  L 583.31 326.71
  Q 582.84 326.67 582.85 326.20
  L 582.89 324.45
  Q 595.22 309.60 610.17 297.44
  Q 610.91 296.83 610.97 296.07
  A 0.45 0.45 0.0 0 0 610.29 295.65
  C 579.39 314.50 549.89 341.94 534.98 374.93
  Q 532.80 379.76 534.13 374.63
  Q 541.64 345.62 557.85 319.84
  C 569.96 300.58 584.95 279.29 604.12 264.28
  C 630.44 243.68 665.65 231.13 699.53 234.46
  A 1.85 1.85 0.0 0 1 701.11 236.87
  Q 687.17 280.36 664.02 319.51
  Q 662.57 321.96 657.88 328.55
  Z
  M 621.3624 289.0983
  A 0.27 0.27 0.0 0 0 620.9892 289.0177
  L 611.5916 295.0740
  A 0.27 0.27 0.0 0 0 611.5109 295.4472
  L 611.5976 295.5817
  A 0.27 0.27 0.0 0 0 611.9708 295.6623
  L 621.3684 289.6060
  A 0.27 0.27 0.0 0 0 621.4491 289.2328
  L 621.3624 289.0983
  Z"
/>
<ellipse fill="#72b644" cx="0.00" cy="0.00" transform="translate(1182.00,239.43) rotate(131.9)" rx="1.69" ry="0.59"/>
<path fill="#4d9e46" d="
  M 824.60 405.77
  A 1.72 1.71 87.0 0 0 823.07 407.48
  L 822.85 509.69
  Q 822.84 512.18 820.35 512.19
  Q 785.12 512.29 751.75 512.30
  Q 750.30 512.30 749.03 511.74
  Q 748.56 511.53 748.54 511.01
  C 747.10 467.94 756.41 424.44 782.91 389.71
  C 798.70 369.01 817.50 355.00 837.33 339.36
  C 864.48 317.95 886.10 291.58 901.81 260.80
  A 0.31 0.31 0.0 0 1 902.39 261.02
  C 898.74 275.33 891.27 288.88 882.74 300.76
  C 862.15 329.41 835.32 353.84 806.89 374.50
  A 0.94 0.94 0.0 0 0 807.40 376.20
  Q 849.05 377.91 883.16 354.78
  C 886.38 352.60 889.01 350.15 891.32 347.28
  A 0.85 0.85 0.0 0 0 890.74 345.90
  L 883.69 345.25
  A 0.55 0.55 0.0 0 1 883.55 344.19
  C 926.39 328.47 926.30 280.64 918.09 242.95
  A 0.55 0.55 0.0 0 1 918.91 242.37
  Q 950.43 261.63 957.13 296.82
  C 960.59 314.98 958.34 339.61 950.95 356.69
  C 938.68 385.06 911.50 398.66 882.25 403.76
  Q 854.90 408.53 827.23 405.83
  Q 825.56 405.66 824.60 405.77
  Z"
/>
<path fill="#058947" d="
  M 121.49 450.75
  A 0.34 0.34 0.0 0 0 121.29 451.34
  C 149.54 478.80 186.56 493.37 226.23 488.22
  C 243.80 485.94 261.71 474.87 267.34 457.57
  C 278.43 423.45 233.16 399.89 208.80 391.19
  C 177.84 380.12 142.69 369.32 120.77 343.75
  C 99.75 319.23 106.23 290.39 124.80 267.02
  A 0.53 0.53 0.0 0 1 125.69 267.11
  Q 125.93 267.58 125.63 268.41
  Q 119.94 284.25 118.75 298.24
  C 116.56 324.17 136.87 341.75 156.74 354.03
  Q 163.10 357.96 182.39 366.01
  Q 201.67 374.06 220.80 382.47
  C 253.09 396.66 283.88 418.33 282.68 458.03
  C 281.50 497.09 246.73 512.13 212.93 513.54
  C 188.98 514.54 161.72 509.78 140.60 497.16
  C 132.93 492.58 124.67 484.39 117.92 479.33
  Q 89.28 457.91 54.43 449.57
  Q 54.29 449.54 54.18 449.50
  A 0.49 0.49 0.0 0 1 54.09 448.63
  C 84.17 429.47 120.93 416.28 156.67 421.60
  C 189.60 426.51 218.72 444.22 239.97 469.70
  Q 241.48 471.52 239.44 472.71
  C 228.10 479.31 215.52 480.08 202.08 478.02
  C 174.24 473.76 148.26 463.05 122.97 451.05
  Q 122.18 450.67 121.49 450.75
  Z"
/>
<rect fill="#8ac63f" x="-5.86" y="-0.35" transform="translate(616.48,292.34) rotate(-32.8)" width="11.72" height="0.70" rx="0.27"/>
<path fill="#065636" d="
  M 466.96 436.76
  L 466.78 427.26
  A 0.28 0.28 0.0 0 0 466.22 427.21
  Q 466.19 427.34 466.21 427.50
  Q 466.27 427.95 466.02 428.32
  Q 464.77 430.18 462.99 429.04
  Q 454.52 423.59 446.70 421.01
  C 439.59 418.65 433.82 415.63 427.23 413.01
  C 415.69 408.42 405.53 403.21 393.14 400.50
  C 391.88 400.22 390.73 400.63 389.55 400.22
  A 0.82 0.81 9.6 0 1 389.00 399.45
  L 389.00 389.75
  A 0.12 0.12 0.0 0 0 388.76 389.75
  L 388.30 413.51
  L 388.35 319.10
  A 0.52 0.52 0.0 0 1 389.32 318.84
  Q 393.03 325.21 398.03 330.96
  Q 422.61 359.21 454.08 379.46
  C 456.33 380.91 466.52 387.28 466.61 391.00
  Q 467.17 413.86 466.96 436.76
  Z"
/>
<path fill="#065636" d="
  M 675.26 388.25
  Q 674.68 388.43 674.76 388.99
  Q 674.86 389.64 674.68 390.22
  Q 674.50 390.78 674.50 390.19
  L 674.50 389.54
  Q 674.50 389.11 674.28 389.48
  L 674.14 389.71
  Q 674.01 389.93 673.78 389.84
  L 668.83 388.05
  Q 668.50 387.93 668.50 388.28
  L 668.50 388.76
  Q 668.50 389.08 668.18 389.07
  Q 645.41 388.05 627.06 388.75
  Q 618.39 389.08 603.08 390.69
  C 631.09 370.66 657.05 350.82 674.54 320.65
  A 0.51 0.51 0.0 0 1 675.50 320.91
  L 675.26 388.25
  Z"
/>
<path fill="#4d9e46" d="
  M 582.89 324.45
  L 582.85 326.20
  Q 582.84 326.67 583.31 326.71
  L 590.92 327.37
  Q 591.04 327.38 591.04 327.49
  L 591.04 327.86
  Q 591.04 328.10 591.29 328.08
  C 596.82 327.69 602.51 327.82 607.82 327.41
  C 621.65 326.32 634.55 327.49 645.18 327.04
  Q 648.31 326.91 657.88 328.55
  Q 644.82 346.01 627.59 359.60
  Q 626.27 358.63 625.31 359.80
  Q 625.01 360.16 624.65 359.87
  Q 623.76 359.16 622.56 359.15
  C 611.83 359.04 600.70 358.34 590.01 359.06
  C 582.87 359.54 572.77 360.42 564.25 359.99
  Q 561.72 359.86 558.82 361.01
  Q 558.46 361.16 558.47 360.77
  L 558.51 358.48
  Q 569.34 340.43 582.89 324.45
  Z"
/>
<path fill="#4d9e46" d="
  M 513.04 325.07
  Q 517.80 334.38 521.23 344.25
  C 526.26 358.74 527.96 374.73 528.12 390.13
  A 0.46 0.45 38.5 0 1 527.22 390.23
  C 522.32 368.12 509.03 345.71 494.38 328.59
  L 497.23 327.32
  Q 497.70 327.11 498.20 327.26
  C 500.70 328.03 502.48 328.59 505.26 328.32
  C 507.69 328.08 513.29 329.35 513.04 325.07
  Z"
/>
<path fill="#4d9e46" d="
  M 485.79 329.06
  Q 498.22 346.37 507.96 366.16
  Q 508.00 367.48 507.71 368.32
  C 507.15 369.94 504.28 369.95 503.00 369.76
  C 497.67 368.96 493.73 368.67 487.99 369.03
  Q 476.49 369.75 464.93 368.79
  A 1.47 1.46 -60.1 0 0 463.98 369.05
  Q 461.99 370.44 459.30 370.18
  C 440.91 358.90 429.31 348.09 412.68 331.78
  C 415.12 331.57 417.11 330.63 419.38 330.59
  C 437.34 330.25 454.98 331.25 472.84 330.59
  C 476.84 330.44 482.81 332.58 485.79 329.06
  Z"
/>
<path fill="#058947" d="
  M 1081.12 356.00
  L 1164.21 356.00
  A 1.33 1.33 0.0 0 1 1165.54 357.29
  Q 1166.57 393.33 1135.03 410.05
  C 1130.43 412.49 1128.45 414.00 1123.04 414.01
  C 1108.05 414.01 1092.67 413.35 1077.73 414.45
  A 1.06 1.05 -2.0 0 0 1076.75 415.50
  L 1076.75 511.49
  A 1.63 1.63 0.0 0 1 1074.93 513.11
  C 1053.38 510.53 1029.63 500.02 1024.24 476.83
  Q 1023.26 472.58 1023.26 463.96
  Q 1023.29 437.67 1023.19 411.39
  C 1023.07 379.62 1040.83 353.54 1068.94 339.38
  C 1071.84 337.91 1076.82 338.03 1078.86 341.23
  C 1080.51 343.81 1079.75 351.58 1079.98 354.94
  A 1.15 1.14 87.8 0 0 1081.12 356.00
  Z"
/>
<path fill="#076e37" d="
  M 558.51 358.48
  L 558.47 360.77
  Q 558.46 361.16 558.82 361.01
  Q 561.72 359.86 564.25 359.99
  C 572.77 360.42 582.87 359.54 590.01 359.06
  C 600.70 358.34 611.83 359.04 622.56 359.15
  Q 623.76 359.16 624.65 359.87
  Q 625.01 360.16 625.31 359.80
  Q 626.27 358.63 627.59 359.60
  Q 601.49 380.18 574.02 399.01
  Q 569.92 401.82 562.67 409.33
  C 546.76 425.83 535.39 447.95 529.09 469.91
  Q 528.89 470.61 528.64 470.73
  Q 528.12 470.97 528.02 470.41
  C 523.55 444.91 512.57 422.67 495.41 403.51
  Q 478.98 385.16 459.30 370.18
  Q 461.99 370.44 463.98 369.05
  A 1.47 1.46 -60.1 0 1 464.93 368.79
  Q 476.49 369.75 487.99 369.03
  C 493.73 368.67 497.67 368.96 503.00 369.76
  C 504.28 369.95 507.15 369.94 507.71 368.32
  Q 508.00 367.48 507.96 366.16
  Q 526.14 404.20 529.95 446.01
  Q 528.84 448.08 530.16 449.95
  Q 530.47 450.39 530.75 449.93
  Q 532.48 447.11 530.87 445.93
  C 534.12 414.21 541.61 385.96 558.51 358.48
  Z"
/>
<path fill="#076e37" d="
  M 675.26 388.25
  L 675.25 511.11
  A 2.13 2.12 -0.1 0 1 673.13 513.23
  Q 663.34 513.29 653.50 513.21
  C 627.32 512.98 604.46 495.30 598.17 469.78
  Q 596.72 463.89 596.59 454.10
  Q 596.22 425.79 596.78 397.50
  Q 596.79 397.02 596.97 396.58
  L 597.71 394.75
  A 0.71 0.66 83.7 0 1 597.92 394.47
  L 603.08 390.69
  Q 618.39 389.08 627.06 388.75
  Q 645.41 388.05 668.18 389.07
  Q 668.50 389.08 668.50 388.76
  L 668.50 388.28
  Q 668.50 387.93 668.83 388.05
  L 673.78 389.84
  Q 674.01 389.93 674.14 389.71
  L 674.28 389.48
  Q 674.50 389.11 674.50 389.54
  L 674.50 390.19
  Q 674.50 390.78 674.68 390.22
  Q 674.86 389.64 674.76 388.99
  Q 674.68 388.43 675.26 388.25
  Z"
/>
<path fill="#076e37" d="
  M 466.96 436.76
  C 466.85 451.42 468.45 466.50 461.64 480.33
  Q 448.42 507.13 419.09 512.30
  C 410.46 513.81 399.64 513.35 390.24 513.13
  A 1.89 1.88 -89.5 0 1 388.40 511.25
  L 388.30 413.51
  L 388.76 389.75
  A 0.12 0.12 0.0 0 1 389.00 389.75
  L 389.00 399.45
  A 0.82 0.81 9.6 0 0 389.55 400.22
  C 390.73 400.63 391.88 400.22 393.14 400.50
  C 405.53 403.21 415.69 408.42 427.23 413.01
  C 433.82 415.63 439.59 418.65 446.70 421.01
  Q 454.52 423.59 462.99 429.04
  Q 464.77 430.18 466.02 428.32
  Q 466.27 427.95 466.21 427.50
  Q 466.19 427.34 466.22 427.21
  A 0.28 0.28 0.0 0 1 466.78 427.26
  L 466.96 436.76
  Z"
/>
<path fill="#72b644" d="
  M 529.95 446.01
  Q 530.41 445.97 530.87 445.93
  Q 532.48 447.11 530.75 449.93
  Q 530.47 450.39 530.16 449.95
  Q 528.84 448.08 529.95 446.01
  Z"
/>
</svg>
