<?xml version="1.0" encoding="UTF-8" standalone="no"?>
<!DOCTYPE svg PUBLIC "-//W3C//DTD SVG 1.1//EN" "http://www.w3.org/Graphics/SVG/1.1/DTD/svg11.dtd">
<svg xmlns="http://www.w3.org/2000/svg" version="1.1" viewBox="0.00 0.00 1280.00 477.00">
<path fill="#000000" d="
  M 1118.06 162.77
  C 1138.40 153.29 1154.90 138.27 1167.74 120.00
  A 0.50 0.50 0.0 0 0 1166.99 119.35
  C 1152.50 132.78 1134.07 142.56 1115.00 151.75
  C 1085.52 165.96 1051.21 169.41 1018.96 163.89
  A 0.96 0.96 0.0 0 1 1018.17 162.81
  C 1026.98 98.19 1098.31 89.65 1149.02 86.29
  Q 1164.19 85.29 1168.92 84.40
  Q 1190.00 80.41 1207.11 66.79
  A 0.77 0.77 0.0 0 1 1208.35 67.49
  C 1206.03 86.53 1199.97 105.76 1193.95 123.93
  C 1180.97 163.06 1151.99 195.42 1110.55 204.06
  Q 1082.84 209.84 1049.75 210.47
  C 1048.09 210.50 1044.77 211.61 1042.89 212.53
  C 1019.14 224.14 1007.95 246.41 998.18 269.50
  A 0.38 0.38 0.0 0 1 997.46 269.44
  C 993.66 253.49 990.53 234.60 992.75 218.51
  C 994.64 204.83 1001.11 185.20 1016.89 181.98
  Q 1019.80 181.39 1028.63 181.95
  C 1060.08 183.96 1089.59 176.04 1118.06 162.77
  Z"
/>
<path fill="#000000" d="
  M 882.57 112.60
  A 0.86 0.86 0.0 0 0 883.64 112.32
  L 893.23 98.70
  A 0.45 0.45 0.0 0 1 894.02 99.09
  C 886.95 121.48 867.46 138.92 849.69 152.88
  C 846.01 155.78 842.10 157.78 838.02 160.03
  C 829.07 164.97 817.45 175.97 818.25 187.14
  A 1.60 1.58 79.1 0 1 817.16 188.77
  Q 816.33 189.04 815.91 188.30
  C 815.13 186.91 815.95 184.38 814.58 182.14
  A 1.37 1.34 -55.3 0 1 814.42 181.19
  L 815.23 177.48
  A 1.46 1.45 86.5 0 0 813.33 175.79
  C 802.82 179.49 792.46 191.42 787.34 200.84
  C 783.56 207.81 780.29 219.22 779.02 226.50
  Q 778.07 231.88 777.62 244.60
  C 777.42 250.07 770.65 253.43 767.29 257.30
  C 752.57 274.28 742.37 295.20 736.55 316.80
  A 0.50 0.50 0.0 0 1 735.56 316.69
  C 735.32 310.64 736.40 304.17 736.42 299.18
  C 736.74 235.53 736.27 172.10 736.85 108.22
  Q 736.86 107.33 737.75 107.33
  Q 775.21 107.03 813.31 107.46
  C 824.53 107.59 840.22 108.76 853.75 108.44
  Q 856.04 108.39 859.14 109.11
  C 863.52 110.13 867.75 109.52 872.17 110.40
  C 875.22 111.00 879.31 111.06 882.57 112.60
  Z"
/>
<path fill="#000000" d="
  M 264.10 154.17
  Q 263.94 153.92 263.63 153.63
  C 243.07 135.16 215.19 124.92 187.60 127.87
  Q 175.93 129.12 168.56 133.37
  C 157.74 139.59 150.00 151.80 150.75 164.42
  C 152.60 195.78 198.87 211.58 223.26 219.20
  C 271.79 234.36 312.57 272.47 297.47 328.43
  A 0.44 0.44 0.0 0 1 296.61 328.34
  Q 296.04 317.50 294.23 306.95
  C 288.73 274.97 269.13 254.56 240.80 240.16
  C 207.51 223.24 134.47 215.34 136.89 162.99
  C 139.36 109.32 197.46 100.11 237.81 115.20
  C 248.60 119.23 257.91 128.04 265.84 133.16
  Q 287.92 147.41 313.96 152.56
  A 0.73 0.72 23.7 0 1 314.41 153.70
  Q 314.04 154.19 313.39 154.61
  C 294.17 166.84 275.03 176.19 252.18 177.88
  C 221.83 180.12 192.42 166.15 171.92 144.16
  A 1.36 1.36 0.0 0 1 172.19 142.08
  C 184.71 134.27 200.74 135.50 214.82 138.70
  Q 239.93 144.40 263.17 155.20
  A 0.73 0.72 -3.1 0 0 264.10 154.17
  Z"
/>
<path fill="#000000" d="
  M 606.00 170.27
  Q 606.30 168.72 604.99 169.60
  C 594.82 176.37 583.60 183.42 574.97 190.19
  C 552.15 208.10 533.04 230.02 520.97 256.79
  A 0.06 0.06 0.0 0 1 520.86 256.75
  C 529.37 220.06 549.46 188.46 573.14 160.78
  C 591.68 139.11 616.85 124.34 644.48 117.20
  C 645.79 116.86 647.19 117.15 648.68 116.55
  Q 654.78 114.06 661.37 114.75
  Q 661.88 114.80 662.32 114.56
  C 666.40 112.32 682.65 112.70 687.47 113.60
  A 1.39 1.38 13.7 0 1 688.55 115.37
  C 680.29 142.31 668.97 168.33 655.03 192.59
  C 634.61 228.14 600.39 250.28 567.47 273.48
  C 541.34 291.89 525.27 318.12 516.70 348.27
  A 0.59 0.59 0.0 0 1 515.55 348.22
  C 511.39 326.32 502.52 305.80 488.45 288.53
  Q 465.08 259.81 433.53 239.97
  C 430.27 237.91 425.71 234.28 422.29 231.16
  C 406.16 216.43 385.51 199.57 378.55 177.55
  C 375.23 167.07 376.43 155.19 374.50 143.97
  Q 371.49 126.53 364.66 109.96
  A 0.90 0.90 0.0 0 1 365.61 108.72
  C 366.83 108.88 368.25 108.92 369.43 109.26
  Q 399.47 117.79 430.79 133.23
  C 472.04 153.57 507.38 197.73 513.86 243.90
  Q 515.60 256.33 515.76 268.91
  A 0.54 0.53 -20.9 0 1 515.58 269.31
  Q 515.44 269.44 515.44 269.56
  A 0.15 0.15 0.0 0 1 515.14 269.60
  C 504.70 230.60 478.51 197.06 445.22 174.78
  Q 444.82 173.96 444.07 174.27
  Q 443.57 174.49 443.98 174.84
  Q 446.18 176.75 448.20 178.76
  Q 501.68 231.99 515.54 306.40
  Q 517.15 315.04 517.33 323.72
  A 0.30 0.30 0.0 0 0 517.89 323.86
  C 519.36 321.15 518.97 318.07 519.25 315.70
  C 521.78 294.31 527.37 272.55 537.08 253.28
  Q 552.89 221.91 578.22 194.22
  Q 591.28 179.95 604.84 171.41
  Q 605.20 171.18 605.47 170.90
  Q 605.99 170.35 606.00 170.27
  Z"
/>
<path fill="#000000" d="
  M 819.34 222.04
  C 841.15 205.82 861.27 185.28 875.79 162.20
  Q 883.16 150.47 889.48 138.26
  A 0.29 0.29 0.0 0 1 890.01 138.48
  C 883.46 161.16 870.57 180.97 854.96 198.48
  Q 828.09 228.62 794.93 252.92
  A 1.02 1.02 0.0 0 0 795.48 254.76
  C 823.78 256.20 850.05 248.10 872.88 231.36
  Q 875.71 229.28 877.64 226.66
  A 0.96 0.95 22.1 0 0 877.00 225.15
  L 869.82 224.17
  A 0.48 0.48 0.0 0 1 869.73 223.24
  C 912.68 208.81 913.43 158.39 904.55 122.39
  A 0.67 0.66 7.1 0 1 905.51 121.65
  Q 914.56 126.48 922.06 133.94
  C 946.54 158.30 949.80 191.00 941.94 223.25
  C 931.94 264.25 896.49 279.30 858.37 284.27
  Q 837.16 287.03 815.77 284.60
  C 814.26 284.43 812.72 284.52 811.20 284.50
  Q 810.64 284.48 810.50 285.03
  Q 810.10 286.59 810.10 288.25
  Q 809.91 337.92 810.02 388.78
  Q 810.03 390.69 808.13 390.83
  Q 805.40 391.04 801.69 391.06
  Q 770.84 391.29 740.00 391.24
  Q 737.86 391.23 736.16 390.84
  Q 735.39 390.66 735.37 389.87
  C 734.17 352.02 741.24 312.91 761.30 280.56
  C 775.99 256.87 797.24 238.48 819.34 222.04
  Z"
/>
<path fill="#000000" d="
  M 126.05 218.97
  C 153.34 242.63 189.90 251.20 221.76 267.73
  C 251.60 283.22 274.73 306.54 270.05 343.02
  C 267.20 365.26 251.58 379.75 231.49 386.49
  C 201.77 396.47 167.60 393.10 139.33 381.16
  C 130.55 377.45 124.39 373.02 116.30 365.89
  Q 84.58 337.93 43.09 328.00
  A 0.49 0.49 0.0 0 1 42.96 327.10
  C 58.18 318.40 72.38 310.92 89.16 305.55
  C 141.12 288.91 193.36 306.89 227.83 348.36
  Q 229.28 350.11 227.30 351.22
  C 214.26 358.54 199.09 358.56 184.61 355.65
  C 158.33 350.36 134.48 340.33 110.39 328.90
  Q 109.59 328.52 109.31 329.12
  A 0.72 0.72 0.0 0 0 109.45 329.94
  C 138.36 358.64 183.07 375.95 223.25 365.30
  C 242.14 360.29 260.01 341.72 257.25 321.01
  C 253.55 293.29 213.84 274.91 191.18 267.08
  C 159.46 256.13 123.59 243.75 104.05 214.71
  C 88.59 191.71 98.12 166.25 112.78 146.05
  Q 113.22 145.44 113.43 145.47
  A 0.83 0.83 0.0 0 1 114.10 146.56
  C 104.94 174.21 102.07 198.17 126.05 218.97
  Z"
/>
<path fill="#000000" d="
  M 376.60 197.28
  C 392.47 219.96 414.59 239.85 437.66 254.99
  C 444.08 259.21 448.50 262.38 453.35 266.88
  A 3.34 3.33 21.3 0 1 454.40 269.26
  Q 454.81 303.58 454.19 338.17
  C 453.66 367.42 428.09 389.55 399.57 391.08
  Q 388.30 391.69 377.56 391.15
  A 1.63 1.63 0.0 0 1 376.01 389.52
  L 375.98 197.48
  A 0.34 0.34 0.0 0 1 376.60 197.28
  Z"
/>
<path fill="#000000" d="
  M 636.93 391.11
  C 611.68 389.22 590.39 370.92 585.25 346.34
  Q 584.07 340.66 584.01 326.43
  Q 583.90 300.46 584.13 274.94
  Q 584.14 273.65 585.18 272.90
  C 614.83 251.54 643.16 231.22 661.95 199.02
  A 0.56 0.56 0.0 0 1 662.98 199.22
  C 663.57 203.19 663.01 208.20 663.01 210.95
  Q 663.00 298.97 663.01 387.00
  Q 663.01 388.97 662.09 390.62
  Q 661.84 391.07 661.33 391.11
  Q 649.09 392.02 636.93 391.11
  Z"
/>
<path fill="#000000" d="
  M 1061.41 391.64
  C 1037.36 389.51 1010.55 375.15 1009.84 347.43
  Q 1009.44 332.04 1009.84 289.20
  C 1010.13 258.31 1027.33 233.08 1054.58 219.10
  C 1058.30 217.20 1066.00 216.99 1065.99 222.83
  Q 1065.99 227.75 1066.00 233.40
  A 1.92 1.92 0.0 0 0 1067.93 235.31
  Q 1106.77 235.12 1145.50 234.95
  Q 1148.56 234.94 1150.94 235.59
  A 0.81 0.80 -84.1 0 1 1151.53 236.33
  C 1152.78 262.90 1138.82 281.32 1115.23 291.84
  Q 1112.87 292.89 1110.09 292.89
  Q 1088.81 292.93 1065.58 292.67
  Q 1063.25 292.64 1063.25 294.97
  L 1063.25 389.96
  A 1.69 1.68 -87.4 0 1 1061.41 391.64
  Z"
/>
</svg>
