<?xml version="1.0" encoding="UTF-8" standalone="no"?>
<!DOCTYPE svg PUBLIC "-//W3C//DTD SVG 1.1//EN" "http://www.w3.org/Graphics/SVG/1.1/DTD/svg11.dtd">
<svg xmlns="http://www.w3.org/2000/svg" version="1.1" viewBox="0.00 0.00 419.00 485.00">
<path fill="#000000" d="
  M 309.52 88.25
  C 287.15 108.06 258.56 123.95 232.50 135.51
  Q 195.80 151.79 154.47 153.56
  C 137.49 154.28 119.61 152.69 102.75 150.14
  A 1.70 1.70 0.0 0 1 101.32 148.21
  C 108.18 101.59 140.64 70.96 184.20 57.45
  C 218.83 46.70 252.62 42.53 287.77 40.88
  Q 301.88 40.21 307.69 39.29
  Q 340.25 34.10 366.21 13.29
  A 0.79 0.79 0.0 0 1 367.49 14.00
  C 364.62 38.90 357.60 63.15 349.98 87.00
  Q 345.92 99.72 340.63 111.99
  C 319.51 161.04 280.98 196.69 227.64 207.26
  C 202.77 212.19 175.94 215.69 151.00 215.58
  C 144.23 215.55 139.42 216.64 133.20 219.87
  C 104.18 234.95 83.10 269.00 73.82 299.24
  A 0.42 0.42 0.0 0 1 73.01 299.23
  Q 64.63 268.61 65.22 237.02
  C 65.62 215.70 74.37 180.17 99.99 175.30
  C 105.56 174.25 113.37 175.26 120.04 175.69
  C 159.59 178.27 198.56 166.78 234.47 151.51
  Q 267.93 137.28 292.51 110.51
  Q 297.04 105.59 307.14 92.90
  Q 309.13 90.41 310.02 88.64
  A 0.32 0.32 0.0 0 0 309.52 88.25
  Z"
/>
<path fill="#000000" d="
  M 170.20 250.07
  C 207.83 249.30 245.61 249.61 283.25 249.79
  Q 285.35 249.80 287.61 250.17
  Q 288.12 250.26 288.15 250.78
  C 289.90 289.01 270.87 315.09 236.81 329.93
  C 234.98 330.72 232.30 331.04 230.30 331.03
  Q 197.82 330.80 165.71 331.05
  A 1.22 1.21 -0.2 0 0 164.50 332.26
  L 164.50 468.25
  A 1.23 1.23 0.0 0 1 163.31 469.48
  C 159.98 469.60 156.17 468.63 153.47 468.16
  C 125.83 463.31 97.83 447.85 91.11 418.59
  Q 89.75 412.68 89.75 401.83
  Q 89.75 364.35 89.75 326.89
  Q 89.74 315.82 90.99 308.71
  C 97.35 272.55 120.46 242.55 153.45 226.69
  C 158.84 224.11 168.42 224.77 168.47 232.68
  Q 168.52 240.18 168.55 248.46
  A 1.61 1.61 0.0 0 0 170.20 250.07
  Z"
/>
</svg>
