<?xml version="1.0" encoding="UTF-8" standalone="no"?>
<!DOCTYPE svg PUBLIC "-//W3C//DTD SVG 1.1//EN" "http://www.w3.org/Graphics/SVG/1.1/DTD/svg11.dtd">
<svg xmlns="http://www.w3.org/2000/svg" version="1.1" viewBox="0.00 0.00 427.00 373.00">
<path fill="#000000" d="
  M 206.14 270.06
  C 207.43 265.01 207.32 258.71 207.90 254.76
  C 212.15 225.71 220.75 197.85 235.62 172.43
  Q 258.69 132.99 292.42 102.26
  C 293.66 101.12 295.81 99.70 297.12 97.80
  A 0.34 0.34 0.0 0 0 296.66 97.32
  C 260.63 118.63 226.44 152.01 209.84 190.89
  Q 208.35 194.40 209.22 190.68
  Q 217.88 154.11 238.09 122.98
  C 247.79 108.02 258.37 92.91 270.40 79.25
  C 295.58 50.65 330.16 32.49 367.65 26.29
  C 378.71 24.46 388.54 24.70 400.07 25.21
  Q 402.08 25.30 403.19 26.25
  A 0.89 0.89 0.0 0 1 403.48 27.18
  C 395.28 55.58 382.75 84.18 369.27 109.29
  C 357.79 130.66 343.74 148.76 325.59 164.10
  C 305.16 181.37 283.13 196.62 261.42 212.21
  C 231.75 233.52 213.82 264.06 204.17 298.37
  A 0.59 0.59 0.0 0 1 203.03 298.31
  C 197.86 268.93 185.26 242.95 165.37 221.04
  C 151.91 206.21 136.12 190.68 119.06 180.00
  C 99.67 167.88 83.04 152.41 67.25 136.00
  C 55.70 123.99 46.69 111.37 42.63 94.95
  C 40.12 84.83 41.43 74.77 39.72 63.76
  Q 36.41 42.45 28.27 21.68
  Q 27.60 19.98 29.42 19.77
  Q 30.78 19.62 32.90 20.20
  Q 68.66 30.06 104.55 47.97
  C 146.33 68.81 177.57 105.04 193.95 148.32
  C 199.29 162.41 201.63 176.69 202.74 191.75
  Q 203.34 199.85 202.78 206.66
  A 0.29 0.29 0.0 0 1 202.22 206.73
  Q 201.67 205.12 201.76 203.41
  A 1.66 1.65 -51.9 0 0 201.70 202.90
  C 188.60 159.28 159.99 123.22 122.88 97.34
  Q 122.60 97.14 122.42 97.43
  L 122.27 97.69
  Q 122.18 97.84 122.31 97.96
  Q 189.93 163.61 204.01 257.31
  Q 204.95 263.60 205.22 269.96
  A 0.47 0.47 0.0 0 0 206.14 270.06
  Z"
/>
<path fill="#000000" d="
  M 128.42 200.65
  C 130.00 202.04 132.30 203.27 132.29 205.75
  Q 132.21 243.57 132.02 281.38
  Q 131.96 291.13 130.64 297.00
  C 125.61 319.22 109.36 336.46 87.90 343.69
  C 74.41 348.23 57.25 348.20 42.79 347.16
  Q 41.26 347.05 41.26 345.52
  L 41.08 122.19
  Q 41.08 121.31 41.94 121.49
  Q 42.27 121.56 42.85 122.45
  Q 53.21 138.28 69.65 153.85
  C 81.70 165.27 91.42 174.55 104.59 183.49
  C 112.66 188.96 120.98 194.09 128.42 200.65
  Z"
/>
<path fill="#000000" d="
  M 303.94 330.31
  Q 288.49 316.39 283.87 296.47
  Q 282.58 290.87 282.55 281.75
  Q 282.44 247.27 282.52 212.74
  Q 282.52 210.71 285.15 208.85
  C 304.02 195.49 323.21 181.57 340.05 165.68
  C 353.02 153.44 363.71 139.25 372.69 123.99
  A 0.51 0.50 -45.1 0 1 373.56 123.98
  C 374.28 125.18 373.74 126.64 373.78 127.66
  C 374.25 141.30 373.78 159.11 373.78 168.50
  Q 373.72 240.92 373.76 313.34
  C 373.77 321.39 374.32 335.05 373.61 345.92
  A 1.46 1.45 -89.1 0 1 372.22 347.28
  C 346.57 348.28 324.15 348.52 303.94 330.31
  Z"
/>
</svg>
