<?xml version="1.0" encoding="UTF-8" standalone="no"?>
<!DOCTYPE svg PUBLIC "-//W3C//DTD SVG 1.1//EN" "http://www.w3.org/Graphics/SVG/1.1/DTD/svg11.dtd">
<svg xmlns="http://www.w3.org/2000/svg" version="1.1" viewBox="0.00 0.00 865.00 880.00">
<path fill="#000000" d="
  M 356.95 262.71
  C 353.45 262.32 350.80 262.56 348.14 265.22
  C 332.50 280.89 315.31 296.11 302.21 314.31
  C 291.87 328.67 284.71 345.42 279.37 362.18
  C 277.86 366.91 277.30 372.55 275.92 377.73
  C 271.97 392.56 266.54 408.06 266.48 423.53
  Q 266.43 436.65 266.68 449.43
  A 3.19 3.16 -22.7 0 1 265.70 451.79
  C 251.78 465.17 241.52 476.47 226.66 494.46
  C 223.41 498.39 218.84 502.69 215.31 507.20
  A 1.57 1.51 66.3 0 0 214.98 508.10
  Q 214.76 512.15 212.93 514.17
  C 201.77 526.45 196.33 535.45 189.39 550.38
  C 184.43 561.06 177.55 572.68 172.96 584.73
  Q 165.12 605.35 157.46 626.02
  Q 154.49 634.03 152.49 642.50
  A 2.27 2.27 0.0 0 1 149.39 644.06
  C 146.22 642.70 145.50 639.39 145.50 635.96
  Q 145.50 354.98 145.50 74.01
  C 145.50 67.19 147.66 63.75 154.64 63.75
  Q 287.57 63.75 420.50 63.74
  C 431.27 63.74 447.38 65.57 462.60 66.14
  C 474.09 66.57 483.58 67.54 498.89 68.31
  C 510.86 68.91 522.38 70.69 534.13 72.33
  C 537.77 72.84 544.95 76.87 548.19 74.12
  C 557.21 66.47 564.34 58.27 571.10 48.61
  C 573.65 44.97 577.47 39.34 581.91 38.75
  Q 582.42 38.68 582.44 39.19
  C 582.62 42.49 583.34 45.73 582.66 48.91
  C 580.33 59.80 576.01 71.70 570.83 81.65
  C 567.90 87.27 562.82 92.35 559.35 97.59
  C 550.38 111.16 540.18 121.54 530.38 133.60
  Q 515.44 152.01 496.96 166.83
  C 493.67 169.46 491.29 172.53 488.23 175.17
  C 477.48 184.46 466.34 193.95 454.20 201.40
  C 443.17 208.15 431.37 214.12 422.00 220.30
  Q 402.34 233.25 389.77 252.89
  C 385.66 259.31 382.97 266.98 380.02 274.31
  Q 377.74 279.98 377.38 287.72
  C 377.11 293.44 374.86 297.57 368.30 295.42
  A 1.51 1.50 81.8 0 1 367.52 294.83
  C 364.87 291.02 363.61 285.45 362.54 282.11
  Q 360.41 275.47 360.87 266.73
  Q 361.06 263.18 356.95 262.71
  Z"
/>
<path fill="#000000" d="
  M 482.56 311.56
  C 473.37 322.64 462.87 332.79 452.88 343.17
  Q 452.54 343.52 452.45 344.00
  C 451.56 348.47 442.21 353.85 439.29 356.59
  C 429.28 365.99 418.67 377.62 410.33 385.72
  C 393.14 402.41 377.33 415.45 360.56 430.07
  Q 356.57 433.54 346.97 440.24
  C 339.81 445.24 333.64 450.32 327.15 455.64
  Q 324.98 457.42 315.82 460.96
  A 1.07 1.07 0.0 0 0 315.20 461.58
  Q 313.88 464.96 315.83 467.96
  A 0.91 0.91 0.0 0 0 316.50 468.36
  C 322.90 468.87 329.50 468.47 335.48 468.62
  C 351.43 469.02 365.96 468.03 381.40 463.31
  Q 399.74 457.71 418.19 452.44
  C 427.68 449.73 442.41 443.77 457.28 438.37
  Q 468.60 434.25 478.75 427.79
  Q 483.21 424.94 487.29 423.10
  C 496.54 418.93 504.01 413.83 512.30 409.07
  C 518.23 405.66 522.32 401.56 526.78 396.79
  A 1.53 1.52 37.9 0 0 526.49 394.47
  C 523.80 392.71 521.13 391.60 518.64 389.57
  Q 514.67 386.34 509.86 384.31
  A 0.65 0.65 0.0 0 1 509.75 383.17
  C 513.27 380.81 516.66 379.71 520.21 377.68
  C 523.45 375.83 526.61 375.89 529.54 374.05
  C 540.41 367.20 550.98 359.95 561.69 352.86
  C 572.50 345.71 578.36 336.66 585.54 326.98
  C 590.06 320.88 593.68 314.80 597.37 308.42
  C 601.36 301.55 604.12 294.31 606.89 286.92
  C 608.64 282.25 609.49 276.57 610.51 272.80
  C 612.86 264.01 615.15 255.32 616.60 246.29
  C 618.82 232.56 619.30 223.69 620.05 213.38
  C 621.07 199.24 619.67 184.91 617.78 170.25
  C 616.88 163.26 616.85 155.49 615.60 147.73
  Q 613.30 133.51 610.09 119.46
  C 609.38 116.33 609.31 111.98 607.93 108.55
  Q 605.94 103.62 610.45 101.46
  C 611.60 100.92 612.70 101.18 613.80 101.90
  C 633.09 114.51 655.26 127.41 669.27 146.13
  C 679.57 159.89 691.41 173.37 698.72 189.04
  Q 705.39 203.33 711.32 217.95
  C 718.87 236.57 722.49 256.98 722.96 277.01
  Q 723.89 316.78 722.87 341.50
  Q 722.61 347.94 720.47 356.94
  C 717.65 368.85 715.98 379.14 713.41 390.20
  C 711.32 399.16 707.73 407.92 704.50 416.75
  C 696.90 437.52 682.10 457.91 667.71 473.97
  C 664.61 477.43 660.25 481.90 655.76 485.29
  C 645.06 493.38 635.04 502.39 623.41 509.21
  C 608.37 518.03 592.15 526.38 575.68 532.19
  C 569.05 534.53 564.77 535.38 559.70 536.82
  Q 555.78 537.94 555.73 537.95
  C 528.74 544.20 497.07 549.37 476.00 554.00
  C 466.37 556.11 457.17 555.24 446.89 555.88
  C 417.98 557.69 387.80 556.02 359.01 553.13
  A 2.58 2.57 -83.2 0 0 356.20 555.34
  C 354.15 570.28 352.19 582.94 352.13 600.06
  Q 351.93 649.91 351.96 699.75
  Q 351.97 710.83 353.74 721.74
  Q 354.19 724.49 353.71 727.25
  Q 352.11 736.55 352.08 744.69
  C 351.91 782.78 350.94 807.38 353.30 829.96
  C 353.73 834.06 352.94 837.32 351.82 841.10
  Q 351.67 841.61 351.14 841.69
  Q 348.00 842.14 344.81 842.15
  Q 249.04 842.42 153.27 842.09
  C 148.60 842.08 145.52 838.42 145.51 833.93
  C 145.45 809.28 145.18 784.17 147.70 760.25
  C 150.26 736.01 152.02 714.25 157.16 691.48
  Q 160.20 677.98 163.15 664.47
  Q 172.26 622.73 191.20 584.43
  C 201.60 563.39 209.58 546.61 220.61 528.73
  C 227.87 516.96 237.75 505.87 246.16 494.36
  C 248.46 491.21 252.07 489.26 254.17 486.42
  C 260.99 477.22 266.02 471.85 274.98 462.78
  A 1.27 1.25 -21.6 0 0 275.35 461.94
  C 275.74 453.92 293.03 444.89 298.18 439.67
  C 313.16 424.53 328.61 410.11 346.08 397.81
  C 365.94 383.84 384.56 368.26 404.29 354.07
  C 408.44 351.09 412.00 348.09 415.87 344.24
  Q 445.89 314.32 475.77 284.26
  Q 479.46 280.55 480.58 276.43
  Q 480.72 275.92 481.10 275.56
  Q 494.25 262.89 499.29 256.05
  C 514.35 235.60 525.90 216.58 539.53 197.04
  C 550.29 181.63 558.32 163.44 567.46 146.20
  Q 568.56 144.14 569.75 142.98
  Q 570.13 142.61 570.58 142.87
  C 577.59 146.83 573.24 155.71 570.72 162.74
  C 563.51 182.81 555.86 203.91 545.43 222.54
  C 527.20 255.13 507.71 281.28 482.56 311.56
  Z"
/>
</svg>
