<?xml version="1.0" encoding="UTF-8" standalone="no"?>
<!DOCTYPE svg PUBLIC "-//W3C//DTD SVG 1.1//EN" "http://www.w3.org/Graphics/SVG/1.1/DTD/svg11.dtd">
<svg xmlns="http://www.w3.org/2000/svg" version="1.1" viewBox="0.00 0.00 401.00 433.00">
<path fill="#000000" d="
  M 242.69 179.29
  C 288.70 192.99 336.51 220.08 350.09 269.99
  C 355.37 289.40 354.58 310.24 348.92 329.54
  A 0.36 0.36 0.0 0 1 348.22 329.46
  C 347.58 314.56 345.74 298.41 341.43 284.58
  C 328.23 242.27 291.13 215.09 250.51 201.48
  C 227.90 193.91 197.98 184.44 173.97 171.04
  C 143.65 154.11 128.12 127.32 135.58 92.28
  C 150.22 23.43 248.09 22.36 292.51 56.10
  Q 303.89 64.75 304.90 65.43
  Q 335.77 86.04 372.75 93.36
  A 0.59 0.59 0.0 0 1 372.98 94.41
  Q 348.01 112.96 317.96 122.09
  C 266.78 137.63 215.69 120.40 180.10 81.77
  A 1.39 1.39 0.0 0 1 180.30 79.71
  C 209.34 58.43 272.95 82.22 302.99 95.80
  A 0.62 0.62 0.0 0 0 303.65 94.77
  C 277.26 71.71 243.39 58.78 208.26 60.25
  C 196.26 60.75 183.19 63.43 173.47 70.22
  C 154.97 83.14 147.08 106.00 158.23 126.57
  C 173.35 154.46 214.10 170.78 242.69 179.29
  Z"
/>
<path fill="#000000" d="
  M 176.88 236.01
  C 138.38 222.24 83.94 193.67 79.69 147.00
  C 77.53 123.36 88.54 101.29 102.85 83.31
  A 0.51 0.51 0.0 0 1 103.76 83.63
  Q 103.76 84.10 103.57 84.69
  C 99.15 98.39 93.85 116.21 94.22 132.49
  C 95.18 174.75 141.94 200.47 175.77 214.72
  C 201.15 225.41 226.77 234.80 251.52 248.25
  C 288.41 268.31 315.31 295.13 313.49 340.74
  C 311.44 392.00 263.96 411.26 219.75 413.02
  C 186.13 414.36 147.76 407.41 118.98 388.61
  C 112.28 384.23 105.06 376.98 99.48 372.50
  Q 58.79 339.89 7.85 327.34
  A 0.44 0.43 -54.4 0 1 7.72 326.55
  C 56.76 295.17 114.48 278.25 171.87 296.39
  C 204.94 306.85 234.65 328.09 256.71 354.82
  Q 257.12 355.32 257.33 355.63
  A 1.64 1.63 57.7 0 1 256.82 357.94
  C 242.97 366.36 227.04 368.19 211.25 366.45
  C 171.60 362.07 132.80 346.46 97.60 328.34
  A 0.48 0.48 0.0 0 0 97.04 329.11
  C 125.37 357.11 161.71 375.93 200.55 380.20
  C 233.27 383.80 269.91 378.46 288.53 348.06
  C 307.17 317.61 285.60 288.77 259.68 272.30
  C 233.56 255.71 207.36 246.92 176.88 236.01
  Z"
/>
</svg>
